<svg width="769" height="483" viewBox="0 0 769 483" fill="none" xmlns="http://www.w3.org/2000/svg">
<path fill-rule="evenodd" clip-rule="evenodd" d="M17.7907 383.836C6.86061 382.243 -0.708055 372.09 0.885638 361.16L50.9514 17.7907C52.5451 6.86063 62.6977 -0.708053 73.6278 0.885639L506.778 64.0421C514.902 65.2267 521.477 71.2563 523.359 79.2479L524.157 82.6368C528.316 100.294 551.945 103.739 560.972 88.0047L562.705 84.9848C566.791 77.8633 574.814 73.9623 582.938 75.1469L751.46 99.7187C762.391 101.312 769.959 111.465 768.365 122.395L718.3 465.764C716.706 476.694 706.553 484.263 695.623 482.669L527.102 458.098C518.978 456.913 512.403 450.884 510.521 442.892L509.723 439.503C505.564 421.846 481.935 418.401 472.908 434.135L471.175 437.155C467.089 444.277 459.066 448.178 450.942 446.993L17.7907 383.836Z" fill="#7266F8"/>
</svg>
