<svg width="699" height="704" viewBox="0 0 699 704" fill="none" xmlns="http://www.w3.org/2000/svg">
<path d="M209.268 441.727C220.592 440.645 231.916 439.586 243.224 438.457C244.222 438.355 245.165 437.72 246.163 437.453C247.201 437.171 248.269 437.037 249.33 436.841C249.44 437.955 249.92 439.186 249.605 440.174C246.643 449.678 243.547 459.135 240.513 468.608C240.277 469.345 240.23 470.145 240.16 470.922C239.609 477.383 239.995 478.418 246.383 475.297C252.607 472.255 259.318 470.239 265.699 467.503C269.707 465.777 273.495 463.55 278.485 460.986C278.084 475.399 277.07 488.942 279.648 502.916C291.805 495.435 301.934 486.699 311.749 476.474C316.087 490.11 318.004 503.865 325.981 517.047C333.839 505.167 341.092 494.204 348.605 482.841C356.007 493.804 363.583 505.033 371.701 517.07C379.496 504.053 381.044 490.055 385.759 476.411C395.763 486.683 405.672 495.717 418.073 502.955C419.904 488.785 419.432 475.117 418.741 460.625C431.746 467.605 443.605 473.564 457.082 477.148C457.207 475.54 457.608 474.246 457.357 473.102C456.178 467.824 455.007 462.531 453.483 457.347C451.73 451.403 449.522 445.601 447.714 439.664C447.227 438.049 447.18 436.128 450.119 436.669C458.543 438.214 466.975 439.774 475.447 441.013C479.038 441.539 482.739 441.342 486.385 441.366C486.936 441.366 487.493 440.794 489.01 439.954C481.898 428.506 474.889 417.237 467.738 405.717C468.366 405.6 469.435 405.223 470.504 405.223C482.755 405.192 494.558 402.298 506.432 399.773C507.634 399.515 509.67 400.071 510.361 400.973C516.011 408.337 521.552 415.786 526.864 423.401C529.434 427.078 531.437 431.156 533.999 435.579C519.461 441.593 504.161 440.307 489.552 441.891C492.924 451.6 496.24 460.915 499.383 470.302C500.625 474.003 501.411 477.854 502.495 481.61C503.179 483.994 502.055 484.825 499.941 484.715C495.894 484.519 491.784 484.543 487.816 483.853C479.337 482.386 470.928 480.512 462.48 478.834C457.875 477.916 457.561 478.575 458.425 483.061C459.274 487.515 459.573 492.118 459.683 496.666C459.863 503.849 460.139 511.079 459.494 518.207C459.093 522.685 461.357 524.167 464.626 524.912C476.908 527.719 489.222 530.425 501.576 532.879C505.135 533.585 506.33 535.098 506.22 538.666C505.788 552.797 504.2 566.763 500.75 580.487C499.933 583.733 500.452 585.788 504.279 586.172C516.734 587.419 529.166 588.846 541.622 590.038C544.993 590.359 548.427 590.116 551.83 590.116C554.148 590.116 555.343 591.143 554.808 593.527C552.969 601.769 551.264 610.042 549.166 618.213C546.895 627.059 544.152 635.787 541.779 644.609C540.993 647.534 539.084 648.31 536.506 648.035C527.406 647.063 518.275 646.263 509.23 644.867C501.623 643.699 494.118 641.848 486.582 640.194C482.558 639.315 480.531 638.461 482.928 633.277C486.763 624.996 490.134 616.48 493.222 607.894C495.407 601.808 496.782 595.433 498.542 589.199C499.265 586.627 498.456 585.803 495.682 585.09C485.364 582.447 475.164 579.302 464.932 576.315C461.875 575.421 458.897 574.237 455.801 573.5C450.787 572.3 449.475 569.634 450.96 564.78C452.72 559.024 454.095 553.135 455.306 547.23C456.689 540.494 457.608 533.663 458.928 526.912C459.408 524.457 459.015 523.336 456.437 522.269C447.494 518.56 438.685 514.522 429.915 510.405C427.008 509.04 424.297 507.198 421.664 505.339C418.788 503.308 417.625 504.727 417.059 507.362C416.077 511.918 415.519 516.584 414.269 521.07C412.155 528.653 409.649 536.118 407.315 543.63C406.937 544.83 406.584 546.038 405.837 548.492C395.59 538.886 385.822 529.915 376.282 520.693C372.526 517.062 372.879 516.976 370.153 521.752C365.304 530.221 360.133 538.51 355.064 546.853C353.854 548.837 352.55 550.766 351.222 552.68C349.823 554.695 348.008 555.22 346.593 552.946C340.723 543.521 334.986 534.016 329.273 524.496C328.299 522.873 327.796 520.975 326.829 519.344C325.548 517.196 323.867 517.572 322.311 519.109C315.804 525.547 309.431 532.126 302.775 538.408C299.506 541.497 295.734 544.054 291.498 547.387C289.706 542.721 287.648 538.517 286.485 534.079C284.206 525.398 282.375 516.592 280.473 507.817C279.774 504.594 278.909 503.778 275.522 505.637C266.351 510.671 256.929 515.251 247.523 519.831C244.772 521.172 241.739 521.924 238.659 523.006V477.987C234.894 478.889 230.612 480.222 226.227 480.888C216.577 482.355 206.879 483.578 197.174 484.707C194.534 485.013 194.605 482.818 195.1 481.163C197.693 472.498 200.216 463.801 203.186 455.262C204.821 450.564 207.288 446.149 209.371 441.601L209.261 441.711L209.268 441.727Z" fill="url(#paint0_radial_3114_2856)"/>
<path d="M478.227 333.361C481.402 330.703 484.663 328.131 487.736 325.363C493.897 319.803 500.27 314.431 505.92 308.385C508.71 305.398 510.997 305.672 514.046 306.88C519.963 309.224 525.998 311.279 531.798 313.882C538.187 316.745 544.355 320.085 551.428 323.614C558.328 314.753 565.785 305.194 573.211 295.611C574.61 293.8 575.946 291.925 577.164 289.996C580.48 284.766 581.03 284.405 586.185 287.636C597.651 294.803 608.967 302.214 620.346 309.53C621.752 310.432 623.167 311.326 625.202 312.62C621.344 317.576 617.753 322.736 613.595 327.386C606.719 335.071 599.411 342.379 592.464 350.002C591.773 350.754 591.741 353.185 592.417 353.93C599.938 362.305 607.757 370.414 615.285 378.781C618.696 382.568 621.666 386.764 625.485 391.61C637.21 379.949 648.644 368.641 659.991 357.247C664.525 352.699 664.738 351.774 660.329 347.335C650.011 336.945 639.465 326.774 628.864 316.674C624.762 312.769 624.927 313.004 627.937 308.236C633.249 299.853 638.208 291.235 643.033 282.57C645.83 277.544 647.929 272.133 650.734 267.114C651.261 266.173 654.31 265.436 655.111 266.04C664.651 273.27 674.113 280.625 683.338 288.255C688.627 292.639 693.436 297.595 699 302.794C694.041 310.393 689.311 317.85 684.36 325.159C679.527 332.31 674.521 339.345 669.492 346.363C668.015 348.425 664.918 350.26 664.934 352.181C664.95 354.103 668.148 355.851 669.578 357.922C678.419 370.712 687.189 383.564 695.904 396.44C696.831 397.805 697.263 399.506 698.175 401.639C695.055 404.792 691.888 408.415 688.281 411.544C680.989 417.872 673.523 424.012 665.987 430.058C662.349 432.983 658.514 435.696 654.522 438.111C653.689 438.621 651.009 437.821 650.522 436.912C645.343 427.282 640.628 417.401 635.387 407.803C632.518 402.549 628.888 397.703 624.982 391.72C621.556 394.009 618.185 396.401 614.672 398.581C604.495 404.894 594.256 411.112 584.048 417.378C583.184 417.903 582.335 418.452 581.384 419.04C571.294 405.968 561.243 392.935 551.569 380.396C543.082 384.568 535.381 388.653 527.429 392.167C522.124 394.511 516.498 396.158 510.926 397.813C509.865 398.126 508.089 397.389 507.146 396.566C498.384 388.912 489.724 381.149 481.056 373.393C480.019 372.468 479.115 371.394 477.827 370.061C482.337 368.218 486.785 366.618 491.044 364.618C498.078 361.317 505.024 357.82 511.94 354.275C513.983 353.232 513.559 350.519 511.287 349.413C500.577 344.191 489.85 338.992 478.219 333.338L478.227 333.361ZM551.035 324.437C549.998 325.049 548.615 325.527 547.68 326.461C538.862 335.188 529.44 343.132 518.816 349.633C516.749 350.903 516.843 353.005 518.965 354.377C529.205 360.996 538.737 368.477 547.192 377.259C549.361 379.518 551.734 379.667 554.304 378.514C556.174 377.667 558.013 376.632 559.648 375.401C568.591 368.649 577.471 361.819 586.35 354.989C589.187 352.801 589.289 351.288 586.405 349.115C576.032 341.289 565.597 333.565 555.114 325.88C554.123 325.151 552.701 325.002 551.035 324.437Z" fill="url(#paint1_radial_3114_2856)"/>
<path d="M209.395 262.15C210.338 264.848 210.849 267.804 212.295 270.196C217.607 278.971 223.226 287.573 228.774 296.207C229.167 296.819 229.921 297.195 230.723 297.861C216.955 299.979 203.439 302.057 189.93 304.135L189.254 306.001C191.659 308.628 193.852 311.506 196.523 313.827C203.266 319.693 210.26 325.276 217.089 331.048C218.024 331.832 218.59 333.047 219.486 334.294C214.299 336.372 209.27 338.113 204.484 340.372C198.166 343.351 192.005 346.661 185.852 349.978C183.879 351.036 184.068 353.624 186.033 354.542C196.736 359.537 207.447 364.493 218.15 369.472C218.37 369.574 218.511 369.841 219.313 370.696C216.484 373.174 213.615 375.581 210.857 378.106C204.154 384.238 197.404 390.324 190.897 396.652C189.349 398.157 188.162 398.769 186.182 397.993C178.701 395.036 171.157 392.237 163.723 389.163C159.448 387.399 155.314 385.266 151.165 383.195C149.939 382.584 148.886 381.619 147.479 380.623C135.503 391.923 126.293 405.584 116.376 420.067C104.353 412.328 92.5653 404.76 80.8092 397.138C78.8524 395.868 77.21 394.001 75.1197 393.092C72.2829 391.861 73.1944 390.073 74.3182 388.779C84.1725 377.455 94.0505 366.155 104.18 355.083C106.427 352.628 106.255 351.303 104.196 349.021C94.2077 337.941 84.369 326.735 74.5303 315.529C73.8152 314.713 73.5716 313.49 72.8644 311.922C87.3473 302.731 101.618 293.682 115.763 284.711C126.396 298.348 136.517 311.334 146.576 324.225C159.841 315.427 173.962 310.722 187.604 305.68C179.361 293.062 171.086 280.382 162.803 267.71L162.693 267.828C169.059 266.565 175.384 265.075 181.789 264.118C186.944 263.35 192.194 263.209 197.404 262.864C201.443 262.597 205.49 262.448 209.529 262.236L209.403 262.15H209.395ZM146.057 379.823C147.605 379.016 148.949 378.671 149.79 377.824C158.615 368.97 168.328 361.246 178.787 354.393C180.956 352.973 180.642 350.88 178.599 349.633C168.343 343.359 159.196 335.737 150.788 327.205C148.053 324.429 145.311 324.014 142.096 326.131C138.655 328.405 135.189 330.679 131.896 333.157C124.965 338.372 118.105 343.673 111.276 349.029C108.746 351.013 108.266 353.012 111.339 355.255C120.95 362.274 130.419 369.496 140.022 376.53C141.845 377.871 144.022 378.726 146.065 379.823H146.057Z" fill="url(#paint2_radial_3114_2856)"/>
<path d="M238.488 180.494C246.795 184.031 255.195 187.371 263.376 191.19C267.894 193.3 272.138 196.044 276.303 198.797C278.739 200.404 279.493 199.573 280.004 197.236C281.191 191.77 282.267 186.281 283.698 180.878C285.01 175.899 286.731 171.029 288.263 166.112C289.191 163.117 290.094 160.113 291.257 156.31C296.31 160.388 300.986 163.76 305.175 167.649C311.194 173.24 316.789 179.294 322.777 184.917C323.445 185.544 326.368 185.16 326.801 184.415C329.41 179.882 331.311 174.95 333.983 170.464C338.015 163.705 342.384 157.141 346.824 150.633C348.246 148.547 350.195 149.543 351.264 151.213C356.49 159.384 361.629 167.602 366.69 175.875C368.175 178.291 369.409 180.87 370.603 183.443C371.931 186.297 373.629 186.681 375.585 184.321C384.214 173.883 394.666 165.414 405.188 157.016C405.361 156.875 405.691 156.937 406.987 156.765C409.455 165.657 412.103 174.66 414.414 183.748C415.592 188.359 416.197 193.119 417.015 197.824C417.439 200.279 416.347 201.682 414.296 203.267C404.693 210.638 395.349 218.338 385.566 226.196C380.937 214.01 379.546 199.942 372.049 187.222C367.617 193.206 363.342 198.554 359.546 204.215C355.782 209.83 352.498 215.774 348.985 221.601C341.213 209.822 333.96 198.844 326.714 187.865C326.227 187.865 325.748 187.865 325.26 187.873C318.322 199.981 315.713 213.68 312.223 226.815C301.654 217.946 291.226 209.203 280.798 200.451L279.493 201.22C277.207 214.833 278.377 228.611 278.621 243.063C273.387 240.452 268.861 238.005 264.193 235.904C258.842 233.496 253.349 231.395 247.926 229.144C246.386 228.509 244.901 227.709 243.329 227.2C241.035 226.455 239.589 227.247 240.107 229.827C241.294 235.676 242.386 241.573 244.021 247.306C245.687 253.124 247.989 258.763 249.946 264.503C250.182 265.193 249.977 266.04 249.977 266.385C236.382 264.965 222.89 263.554 209.405 262.142C209.405 262.142 209.53 262.229 209.538 262.229C207.872 259.249 205.727 256.434 204.635 253.258C201.837 245.079 199.511 236.735 196.981 228.454C196.336 226.353 195.574 224.282 195 222.165C194.442 220.103 195.11 218.754 197.499 219.013C203.047 219.624 208.627 220.103 214.128 221.012C222.426 222.393 230.669 224.11 239.251 225.741C239.337 224.823 239.502 223.984 239.479 223.145C239.101 209.265 238.693 195.386 238.316 181.513C238.308 181.137 238.512 180.761 238.614 180.384L238.496 180.486L238.488 180.494Z" fill="url(#paint3_radial_3114_2856)"/>
<path d="M209.378 441.625C196.271 440.511 183.155 439.397 170.047 438.26C169.411 438.205 168.672 438.064 168.193 437.696C164.287 434.653 162.26 437.735 161.089 440.425C157.435 448.815 154.228 457.402 150.865 465.918C149.505 469.353 147.989 472.741 146.936 476.269C146.37 478.175 146.637 480.324 146.527 482.37L146.645 482.245C137.663 480.088 128.626 478.104 119.699 475.713C113.223 473.98 106.89 471.745 100.509 469.667C99.1963 469.235 97.9704 468.514 95.6679 467.447C94.1433 471.949 92.5009 476.301 91.2122 480.755C89.5226 486.605 87.8881 492.486 86.6307 498.438C85.342 504.531 84.2418 510.687 83.6446 516.874C83.2988 520.458 81.9786 521.657 78.7488 520.63C73.4366 518.944 68.0929 517.282 62.9299 515.196C56.2582 512.498 49.72 509.463 43.1897 506.421C39.0562 504.5 35.1113 502.186 30.9779 500.265C26.8208 498.328 27.6616 494.792 28.5732 491.867C32.9031 477.9 37.5474 464.028 42.121 450.141C43.1112 447.129 44.2821 444.189 45.2172 441.625C61.649 450.36 77.6801 458.876 94.2298 467.683C95.6443 464.813 96.8152 462.711 97.7267 460.515C100.501 453.858 102.89 447.035 105.962 440.527C108.76 434.606 112.312 429.038 115.424 423.251C116.642 420.993 118.001 420.428 120.469 421.51C127.738 424.678 135.046 427.8 142.464 430.591C146.433 432.081 150.676 432.865 154.794 433.963C155.666 434.198 156.625 434.238 157.435 434.606C162.668 436.974 162.338 436.723 165.45 432.081C172.475 421.597 179.886 411.371 187.233 401.106C187.768 400.361 189.135 399.608 189.968 399.75C203.202 401.969 216.404 404.329 229.786 406.689C226.832 411.065 223.413 415.833 220.309 420.797C216.553 426.796 213.025 432.928 209.504 439.068C209.095 439.774 209.323 440.848 209.26 441.758L209.37 441.648L209.378 441.625Z" fill="url(#paint4_radial_3114_2856)"/>
<path d="M162.803 267.703C155.549 270 148.225 272.094 141.067 274.65C133.86 277.222 126.866 280.398 119.66 282.955C118.584 283.339 116.077 282.131 115.464 281.002C111.11 272.941 106.891 264.793 102.993 256.497C99.9988 250.114 97.547 243.472 94.5686 236.265C78.1682 244.993 62.0115 253.595 45.3203 262.48C43.1043 256.756 40.4088 250.537 38.2949 244.13C35.128 234.54 32.4562 224.785 29.4307 215.147C26.6803 206.364 27.639 204.451 36.1653 200.977C40.7153 199.126 44.9903 196.625 49.4695 194.594C54.3496 192.375 59.2925 190.305 64.2511 188.273C68.0781 186.705 72.0466 185.474 75.8029 183.772C80.6829 181.553 82.9776 183.035 83.7162 188.242C84.675 195.025 86.2466 201.722 87.6847 208.435C88.667 212.999 89.83 217.523 90.9774 222.048C91.9361 225.812 92.8634 229.6 94.0579 233.293C94.4272 234.43 95.6059 235.3 96.1089 235.92C103.433 233.56 110.325 231.16 117.326 229.137C125.696 226.706 134.19 224.691 142.567 222.283C145.169 221.538 145.711 222.197 146.426 224.722C148.296 231.254 150.607 237.677 153.019 244.036C155.4 250.325 158.127 256.481 160.689 262.7C161.388 264.401 162.025 266.126 162.693 267.836L162.803 267.726V267.703Z" fill="url(#paint5_radial_3114_2856)"/>
<path d="M479.777 639.064C477.812 643.133 476.241 647.172 474.025 650.826C466.984 662.432 459.754 673.928 452.477 685.385C449.899 689.447 445.64 689.855 441.161 687.651C435.236 684.742 428.918 682.617 422.992 679.707C414.411 675.489 406.018 670.893 397.586 666.384C396.486 665.796 395.622 664.753 394.506 663.789C399.834 657.053 405.185 650.669 410.097 643.965C415.378 636.766 420.273 629.285 425.279 621.882C426.992 619.349 425.578 618.212 423.307 616.77C410.938 608.912 398.71 600.835 386.475 592.782C383.819 591.033 384.18 588.829 385.65 586.336C390.42 578.219 395.19 570.103 399.7 561.838C401.602 558.341 402.773 554.459 404.407 550.805C405.822 547.652 408.407 548.75 410.333 549.832C420.462 555.565 430.481 561.493 440.548 567.343C441.444 567.868 442.387 568.347 443.353 568.723C448.265 570.629 448.972 572.268 446.929 577.035C443.408 585.222 440.037 593.472 436.344 601.58C434.23 606.222 431.574 610.622 429.201 615.146C428.218 617.02 427.652 618.722 430.324 619.906C434.819 621.89 439.165 624.196 443.676 626.148C449.177 628.532 454.701 630.877 460.343 632.892C466.504 635.088 472.807 636.884 479.793 639.087L479.777 639.064Z" fill="url(#paint6_radial_3114_2856)"/>
<path d="M534.812 267.805C535.637 265.86 536.517 263.931 537.287 261.963C540.462 253.854 543.708 245.769 546.725 237.606C548.729 232.195 550.387 226.651 552.203 221.17L552.085 221.264C558.89 223.06 565.742 224.699 572.493 226.698C579.495 228.769 586.394 231.192 593.333 233.466C595.895 234.305 598.457 235.167 601.859 236.297C608.728 219.617 611.399 201.471 615.054 182.894C617.073 183.153 619.321 183.059 621.277 183.773C629.741 186.839 638.236 189.866 646.479 193.441C653.457 196.476 660.145 200.193 666.887 203.738C668.946 204.82 670.329 206.576 669.591 209.188C667.367 217.045 665.198 224.918 662.872 232.744C661.324 237.936 659.642 243.088 657.827 248.193C656.114 253 654.149 257.712 652.318 262.418C635.996 253.713 619.989 245.166 603.211 236.218C595.698 252.749 590.347 269.561 579.966 283.802C571.118 280.101 562.701 276.219 554.026 273.059C547.763 270.777 541.154 269.459 534.702 267.703L534.812 267.805Z" fill="url(#paint7_radial_3114_2856)"/>
<path d="M302.578 664.558C297.274 667.6 291.537 671.286 285.463 674.289C275.506 679.214 265.353 683.754 255.239 688.35C251.514 690.043 247.805 689.095 245.479 685.534C239.491 676.367 233.637 667.098 227.924 657.751C224.953 652.905 222.415 647.8 219.625 642.836C218.234 640.366 217.873 639.111 221.527 637.974C229.951 635.339 238.132 631.912 246.375 628.729C251.892 626.596 257.385 624.424 262.823 622.102C270.508 618.825 270.343 618.362 266.265 611.03C262.202 603.729 258.681 596.115 255.224 588.501C253.157 583.937 251.845 579.036 249.848 574.44C248.536 571.429 250.328 570.425 252.355 569.39C259.043 565.979 265.856 562.795 272.418 559.157C277.392 556.404 282.107 553.173 286.846 550.013C290.052 547.88 292.001 548.813 293.494 552.413C295.914 558.263 298.665 564.003 301.698 569.555C304.975 575.554 308.81 581.247 312.26 587.152C313.478 589.238 313.478 591.3 311.104 592.923C303.238 598.326 295.529 603.957 287.569 609.211C283.176 612.104 278.421 614.457 273.801 616.997C270.893 618.597 271.349 620.848 272.826 622.934C282.508 636.586 292.276 650.168 302.57 664.542L302.578 664.558Z" fill="url(#paint8_radial_3114_2856)"/>
<path d="M535.203 534.55C527.746 534.55 520.28 534.573 512.823 534.542C508.949 534.526 507.707 532.66 507.432 528.676C506.591 516.326 505.334 503.991 503.849 491.695C503.016 484.77 502.701 485.194 509.475 484.951C522.001 484.496 534.512 483.586 547.014 482.685C549.686 482.488 551.588 482.598 552.272 485.664C553.466 490.997 555.242 496.227 556.012 501.615C557.301 510.64 558.228 519.729 558.826 528.825C559.061 532.378 560.295 533.57 563.556 532.997C573.426 531.28 583.297 529.555 593.159 527.751C597.504 526.959 601.811 525.963 606.141 525.061C606.911 524.905 607.728 524.873 608.443 524.591C614.015 522.411 614.455 522.419 614.722 528.276C615.469 544.572 615.838 560.883 616.42 577.178C616.561 581.067 615.076 583.067 610.966 583.576C601.017 584.815 591.116 586.478 581.175 587.827C575.092 588.65 568.986 589.403 562.865 589.811C556.154 590.258 556.209 590.077 556.696 583.239C557.568 571.022 558.401 558.797 559.156 546.571C559.329 543.709 559.006 540.815 559.124 537.953C559.234 535.358 558.181 534.597 555.635 534.66C548.83 534.824 542.017 534.715 535.211 534.715C535.211 534.66 535.211 534.613 535.211 534.558L535.203 534.55Z" fill="url(#paint9_radial_3114_2856)"/>
<path d="M393.896 39.5072C402.124 35.1707 409.644 30.9676 417.377 27.1878C425.4 23.2591 433.675 19.8323 441.746 15.9977C445.534 14.2019 449.062 14.5469 451.396 17.9659C456.724 25.7763 462.013 33.6259 467.003 41.648C471.12 48.2743 474.814 55.1672 478.617 61.9817C479.081 62.8129 479.081 63.8951 479.301 64.9224C470.83 67.7375 462.531 70.1293 454.524 73.266C446.202 76.5281 438.115 80.4255 430.068 84.3307C429.212 84.7463 428.528 87.3968 429.015 88.4319C434.115 99.23 439.538 109.871 444.701 120.638C445.934 123.202 446.461 126.088 447.498 128.754C448.638 131.703 447.42 133.451 444.889 134.737C438.579 137.937 432.182 140.972 426.006 144.399C420.811 147.284 415.813 150.531 410.847 153.801C407.664 155.895 405.55 154.954 404.018 151.527C400.812 144.344 397.268 137.294 393.566 130.354C391.146 125.821 388.152 121.603 385.535 117.172C384.105 114.749 384.223 112.49 386.816 110.71C394.572 105.401 402.21 99.9044 410.077 94.7524C414.603 91.7882 419.467 89.3337 424.214 86.7067C426.367 85.507 426.878 84.0092 425.44 81.9311C420.151 74.2776 415.059 66.4829 409.534 59.0018C404.859 52.6657 399.68 46.6981 393.896 39.5308V39.5072Z" fill="url(#paint10_radial_3114_2856)"/>
<path d="M248.684 132.526C253.124 119.979 257.446 108.287 263.882 97.4732C265.76 94.3208 267.159 90.9018 268.888 87.6632C270.68 84.3069 267.23 83.5306 265.878 82.9032C258.248 79.3509 250.476 76.0496 242.594 73.1089C234.633 70.1447 226.484 67.6903 217.864 64.828C219.962 60.6248 221.628 56.555 223.899 52.8615C230.901 41.4831 238.083 30.2067 245.321 18.9694C248.566 13.9272 250.02 13.6841 257.069 16.8208C263.128 19.5184 269.383 21.7846 275.316 24.7253C284.754 29.399 294.003 34.4726 303.355 39.3972C296.141 48.721 289.406 57.1823 282.962 65.8631C279.206 70.9289 275.882 76.324 272.464 81.6329C270.876 84.0952 271.615 85.5302 274.263 87.1848C286.609 94.909 298.734 102.978 310.946 110.922C314.026 112.929 313.406 115.086 311.645 117.799C304.541 128.738 297.94 139.968 293.422 152.264C292.44 154.922 289.775 155.792 287.19 154.208C278.735 149.017 270.334 143.732 261.745 138.768C257.658 136.4 253.203 134.667 248.708 132.542L248.684 132.526Z" fill="url(#paint11_radial_3114_2856)"/>
<path d="M552.205 221.178C544.677 220.527 537.156 219.672 529.62 219.28C522.186 218.896 514.721 218.825 507.271 218.919C504.072 218.959 503.145 217.955 503.475 214.826C504.945 200.836 506.281 186.823 507.593 172.818C507.9 169.579 510.1 169.164 512.591 169.148C526.335 169.077 540.079 168.983 553.824 169.03C559.238 169.054 559.513 169.163 559.246 163.729C558.539 149.143 557.69 134.566 556.716 119.996C556.331 114.271 556.503 113.66 562.091 114.067C579.018 115.306 595.913 116.859 612.549 120.49C615.252 121.078 616.243 122.427 616.345 125.007C617.036 142.776 617.083 160.522 614.655 178.197C614.262 181.052 612.942 181.091 610.569 180.362C605.752 178.879 600.856 177.625 595.945 176.464C590.758 175.241 585.532 174.143 580.291 173.178C575.026 172.214 569.729 171.406 564.425 170.7C560.197 170.144 559.23 171.014 559.057 175.186C558.405 190.211 556.087 204.961 551.969 219.437C551.812 219.994 552.032 220.66 552.087 221.272L552.213 221.17L552.205 221.178Z" fill="url(#paint12_radial_3114_2856)"/>
<path d="M601.918 468.428C584.991 473.305 568.842 477.963 553.063 482.519C546.972 466.718 541.165 451.662 535.491 436.943C549.715 431.838 564.536 426.514 580.331 420.844C590.382 434.253 595.623 451.145 603.097 467.785C619.694 458.947 635.787 450.384 652.431 441.531C654.852 447.961 657.524 454.626 659.858 461.409C662.176 468.138 664.243 474.96 666.239 481.798C667.543 486.276 668.714 490.808 669.508 495.396C669.712 496.564 668.62 498.673 667.535 499.246C659.842 503.308 652.046 507.182 644.18 510.899C639.316 513.196 634.326 515.259 629.296 517.156C625.548 518.576 621.65 519.595 617.808 520.748C615.709 521.375 614.633 520.513 614.303 518.364C613.415 512.695 612.613 507.009 611.442 501.395C610.421 496.486 608.928 491.679 607.655 486.817C606.641 482.943 605.777 479.022 604.613 475.195C603.843 472.67 602.664 470.271 601.926 468.436L601.918 468.428Z" fill="url(#paint13_radial_3114_2856)"/>
<path d="M146.518 482.362C161.118 485.06 175.853 485.405 190.634 484.903C193.919 484.793 194.485 486.236 194.147 489.255C192.623 502.72 191.224 516.207 190.037 529.703C189.786 532.526 189.118 534.189 186.116 534.298C179.452 534.549 172.796 534.965 166.132 535.02C158.022 535.09 149.904 534.957 141.795 534.714C139.256 534.643 138.227 535.365 138.282 537.976C138.573 553.095 137.528 568.285 140.702 583.262C140.891 584.148 140.852 585.089 141.001 585.983C141.457 588.752 140.639 590.21 137.504 589.881C125.826 588.634 114.133 587.583 102.471 586.234C96.782 585.576 91.1475 584.407 85.4974 583.458C82.9512 583.027 81.2224 582.055 81.2696 578.926C81.5132 564.309 81.5132 549.684 81.8039 535.059C81.8668 531.828 82.8177 528.629 83.2577 525.398C83.5878 522.951 84.963 522.842 86.904 523.461C102.322 528.417 118.078 531.75 134.227 533.161C137.056 533.412 138.141 532.158 138.494 529.405C140.152 516.49 141.873 503.582 143.814 490.706C144.254 487.805 145.677 485.06 146.651 482.229L146.541 482.347L146.518 482.362Z" fill="url(#paint14_radial_3114_2856)"/>
<path d="M81.3331 147.151C81.3331 139.71 81.3331 132.26 81.3331 124.818C81.3331 122.685 81.781 121.078 84.3271 120.56C101.372 117.11 118.582 114.985 135.941 114.075C141.19 113.8 141.709 114.31 140.711 119.572C137.835 134.714 138.55 149.998 138.361 165.266C138.322 168.426 139.438 169.148 142.495 169.108C155.972 168.928 169.457 168.967 182.934 169.061C189.386 169.108 189.519 169.775 190.022 175.978C191.052 188.713 192.427 201.416 193.857 214.12C194.321 218.245 193.983 218.762 189.645 218.833C179.453 219.005 169.268 219.249 159.084 219.617C156.624 219.703 154.141 220.197 151.744 220.793C146.974 221.977 145.3 221.366 144.522 216.512C142.353 202.898 140.436 189.238 138.66 175.57C138.055 170.873 137.898 170.214 133.183 170.975C123.155 172.59 113.136 174.331 103.171 176.315C97.6313 177.413 92.2012 179.075 86.7318 180.542C84.6808 181.091 83.4627 180.706 83.2505 178.33C82.3154 167.956 81.3174 157.589 80.3508 147.222C80.6809 147.198 81.0031 147.175 81.3331 147.151Z" fill="url(#paint15_radial_3114_2856)"/>
<path d="M237.907 523.696C238.615 528.103 239.267 532.808 240.139 537.474C241.247 543.457 242.379 549.448 243.786 555.369C244.776 559.525 246.316 563.548 247.479 567.665C248.548 571.437 245.192 572.432 243.015 573.185C234.371 576.173 225.593 578.792 216.808 581.356C211.794 582.823 206.71 584.046 201.602 585.136C199.449 585.599 198.592 586.516 199.127 588.594C200.345 593.346 201.413 598.146 202.899 602.819C204.816 608.85 206.961 614.817 209.232 620.73C210.969 625.27 212.886 629.756 215.04 634.108C216.407 636.884 215.951 638.483 212.996 639.338C209.625 640.311 206.293 641.62 202.851 642.146C189.162 644.247 175.426 646.098 161.713 648.043C158.507 648.497 156.684 647.423 155.788 644.004C153.611 635.676 150.853 627.497 148.644 619.169C146.46 610.912 144.715 602.537 142.656 594.24C141.918 591.276 142.908 590.092 145.902 590.1C151.662 590.116 157.462 590.414 163.182 589.88C173.32 588.939 183.402 587.426 193.516 586.234C196.997 585.818 197.869 583.944 196.989 580.831C193.28 567.672 192.18 554.145 191.213 540.595C190.789 534.596 191.748 533.773 197.657 532.73C205.728 531.31 213.727 529.475 221.735 527.687C226.882 526.542 231.974 525.162 237.9 523.688L237.907 523.696Z" fill="url(#paint16_radial_3114_2856)"/>
<path d="M459.661 180.33C458.993 176.581 458.372 172.786 457.618 169.022C456.219 162.066 454.789 155.118 453.28 148.186C452.431 144.281 451.394 140.407 450.427 136.526C449.618 133.295 451.48 131.695 454.081 130.637C456.164 129.79 458.278 128.958 460.447 128.362C472.093 125.163 483.739 121.916 495.448 118.968C498.175 118.278 499.471 117.502 498.52 114.584C496.281 107.707 494.088 100.822 491.911 93.9293C490.866 90.6279 490.096 87.2324 488.831 84.0251C486.961 79.2965 484.988 74.5837 482.607 70.0982C481.075 67.2046 481.083 65.5421 484.493 64.6246C488.249 63.613 491.927 62.1701 495.738 61.5271C507.337 59.5824 518.944 57.6298 530.622 56.2653C541.427 55.0028 541.686 55.6223 544.02 66.3106C544.971 70.6863 546.692 74.8895 547.894 79.2181C549.277 84.1976 550.613 89.2007 551.714 94.2508C552.767 99.0735 553.6 103.951 554.33 108.836C555.069 113.761 554.935 113.816 549.757 113.832C546.747 113.847 543.722 113.683 540.727 113.902C529.93 114.679 519.141 115.518 508.359 116.482C506.316 116.663 504.155 117.196 502.402 118.192C501.396 118.764 500.446 120.693 500.618 121.838C501.679 128.778 503.408 135.624 504.265 142.58C505.247 150.594 505.593 158.679 506.135 166.748C506.339 169.759 504.029 170.371 501.774 170.771C496.249 171.759 490.646 172.386 485.193 173.656C477.012 175.562 468.926 177.891 459.661 180.345V180.33Z" fill="url(#paint17_radial_3114_2856)"/>
<path d="M238.611 180.392C236.01 179.828 233.393 179.342 230.823 178.675C223.287 176.722 215.798 174.566 208.223 172.762C204.176 171.798 199.995 171.366 195.87 170.755C192.53 170.253 190.832 168.763 191.115 165.015C192.145 151.346 192.923 137.655 196.718 124.371C198.078 119.595 197.811 118.458 193.229 117.831C181.355 116.208 169.41 115.047 157.481 113.926C153.458 113.549 149.364 113.769 145.309 113.863C142.692 113.918 141.804 113.055 142.401 110.35C143.91 103.488 144.806 96.4699 146.66 89.7103C149.584 79.0377 152.994 68.4827 156.515 57.9904C156.876 56.9004 159.501 55.8339 160.963 55.9673C170.463 56.8534 179.964 57.8571 189.402 59.2608C196.357 60.2959 203.194 62.076 210.101 63.4091C216.113 64.5697 216.435 65.5264 214.36 70.9685C209.818 82.8409 205.606 94.8467 201.363 106.829C200.325 109.754 199.516 112.789 198.966 115.839C198.824 116.631 199.901 118.294 200.702 118.513C209.881 121.038 219.185 123.116 228.309 125.829C234.25 127.594 239.986 130.088 245.684 132.55C246.587 132.942 247.475 135.043 247.24 136.102C245.668 143.293 243.609 150.382 242.061 157.581C240.56 164.536 239.476 171.586 238.258 178.597C238.155 179.2 238.399 179.859 238.493 180.486L238.619 180.377L238.611 180.392Z" fill="url(#paint18_radial_3114_2856)"/>
<path d="M459.466 180.573C460.228 195.982 460.597 210.599 457.768 226.157C462.735 224.997 466.805 223.773 470.97 223.115C480.487 221.617 490.035 220.339 499.591 219.107C501.838 218.817 503.567 219.523 502.671 222.464C500.439 229.796 498.373 237.183 496.023 244.483C494.49 249.259 492.722 253.98 490.781 258.606C489.799 260.943 488.062 262.127 485.037 262.37C474.514 263.194 464.039 264.543 453.564 265.836C451.749 266.056 450.02 266.958 447.435 267.813C447.851 265.507 447.985 264.001 448.401 262.59C450.664 254.991 453.077 247.432 455.269 239.817C456.236 236.453 456.92 232.995 457.533 229.545C457.949 227.216 456.755 226.306 454.546 227.208C447.537 230.062 440.511 232.878 433.588 235.928C429.054 237.92 424.677 240.288 419.71 242.742C419.451 241.158 419.066 239.841 419.042 238.524C418.846 226.808 418.657 215.085 418.657 203.369C418.657 202.012 419.451 199.981 420.504 199.401C429.007 194.696 437.596 190.124 446.295 185.796C450.279 183.82 454.586 182.494 459.474 180.581L459.466 180.573Z" fill="url(#paint19_radial_3114_2856)"/>
<path d="M44.4328 439.068C41.1794 436.912 37.9968 435.202 35.2857 432.936C24.0797 423.573 12.9837 414.069 1.92695 404.533C-0.100508 402.785 -0.776327 400.848 1.11754 398.095C10.5476 384.388 19.7026 370.484 29.0697 356.73C31.7258 352.833 33.3525 353.076 36.7631 356.409C47.7648 367.167 58.7979 377.887 70.0589 388.364C72.4714 390.606 72.4793 392.387 71.0491 394.755C64.9353 404.902 58.6957 414.971 52.7312 425.196C50.5388 428.96 49.0535 433.14 47.0575 437.03C46.6096 437.9 45.368 438.371 44.4328 439.061V439.068Z" fill="url(#paint20_radial_3114_2856)"/>
<path d="M72.3888 312.73C71.7994 313.576 71.2807 314.839 70.3535 315.56C58.1652 325.057 47.4385 336.051 37.1362 347.5C33.1677 351.907 32.2719 351.938 28.9085 347.319C21.6788 337.384 14.4413 327.456 7.45517 317.356C4.7519 313.443 2.55156 309.154 0.469092 304.872C-0.0259841 303.861 0.366934 301.657 1.1842 300.888C8.61821 293.909 16.0758 286.946 23.8556 280.359C29.3564 275.701 35.2816 271.513 41.1597 267.326C45.2303 264.424 45.5918 265.099 47.8078 269.357C53.4344 280.155 59.5168 290.726 65.5363 301.312C67.3437 304.488 69.5833 307.413 71.5794 310.487C71.9251 311.012 72.0273 311.702 72.3888 312.737V312.73Z" fill="url(#paint21_radial_3114_2856)"/>
<path d="M349.135 0.00784175C350.888 1.19979 352.436 2.07806 353.779 3.20728C361.426 9.68456 369.158 16.0756 376.592 22.796C381.653 27.3677 386.282 32.41 391.075 37.2718C392.639 38.8559 392.757 40.0165 390.596 41.577C378.58 50.2735 366.691 59.1425 354.793 67.9958C352.656 69.5877 350.699 72.6695 348.601 72.7166C346.66 72.7558 344.758 69.5171 342.668 67.9488C330.739 59.017 318.794 50.1088 306.763 41.3182C304.79 39.8831 304.987 38.6363 306.346 37.264C318.81 24.6858 331.564 12.437 345.803 1.83497C346.77 1.11353 347.933 0.650865 349.127 0L349.135 0.00784175Z" fill="url(#paint22_radial_3114_2856)"/>
<path d="M392.489 663.93C391.883 664.848 391.286 666.048 390.422 666.996C378.611 680.045 365.448 691.627 351.531 702.378C349.582 703.884 347.916 703.923 345.967 702.394C332.199 691.619 319.029 680.218 307.273 667.239C305.261 665.02 304.758 663.954 307.799 661.978C321.567 653.022 334.683 643.197 346.525 631.748C347.342 630.956 350.14 630.995 351.114 631.779C359.782 638.696 368.135 646.012 376.819 652.92C381.644 656.755 386.909 660.041 392.496 663.93H392.489Z" fill="url(#paint23_radial_3114_2856)"/>
<path d="M382.635 590.524C382.092 591.535 381.927 592.029 381.613 592.39C371.491 604.239 361.417 616.119 351.107 627.803C350.368 628.642 347.162 628.713 346.415 627.921C339.028 619.985 331.862 611.837 324.766 603.635C321.984 600.42 319.776 596.703 316.899 593.59C314.73 591.237 315.54 589.779 317.371 588.061C322.455 583.301 327.689 578.69 332.538 573.703C337.308 568.794 341.842 563.634 346.125 558.294C348.215 555.69 349.394 556.216 351.295 558.247C359.79 567.343 368.364 576.377 376.961 585.372C378.729 587.222 380.749 588.83 382.619 590.524H382.635Z" fill="url(#paint24_radial_3114_2856)"/>
<path d="M348.757 74.7324C349.842 75.4303 350.903 75.8538 351.594 76.6066C359.484 85.2482 367.389 93.8741 375.13 102.649C377.574 105.417 379.68 108.53 381.589 111.698C382.006 112.389 381.252 114.318 380.458 115.11C375.303 120.246 369.841 125.076 364.78 130.291C360.136 135.075 355.814 140.172 351.476 145.245C349.732 147.284 348.875 148.617 346.313 145.598C339.964 138.102 333.127 131.005 326.306 123.924C323.375 120.873 319.886 118.372 316.923 115.353C316.106 114.521 315.548 112.122 316.09 111.471C325.96 99.7162 336.019 88.1105 346.078 76.5047C346.69 75.7989 347.689 75.4303 348.757 74.7403V74.7324Z" fill="url(#paint25_radial_3114_2856)"/>
<path d="M534.705 267.702C527.561 280.241 519.9 292.427 510.32 303.288C509.605 304.104 507.782 304.48 506.619 304.276C501.487 303.367 496.442 301.916 491.287 301.14C485.087 300.206 478.816 299.783 472.584 299.101C470.824 298.905 469.08 298.568 467.932 298.387C474.777 287.009 481.488 275.748 488.364 264.581C489.008 263.531 490.722 262.393 491.845 262.48C503.672 263.421 515.483 264.519 527.286 265.773C529.833 266.048 532.3 267.091 534.807 267.789L534.705 267.695V267.702Z" fill="url(#paint26_radial_3114_2856)"/>
<defs>
<radialGradient id="paint0_radial_3114_2856" cx="0" cy="0" r="1" gradientUnits="userSpaceOnUse" gradientTransform="translate(349.596 332.319) rotate(89.9941) scale(462.388 459.415)">
<stop stop-color="#7266F8" stop-opacity="0.41"/>
<stop offset="1" stop-opacity="0"/>
</radialGradient>
<radialGradient id="paint1_radial_3114_2856" cx="0" cy="0" r="1" gradientUnits="userSpaceOnUse" gradientTransform="translate(349.596 332.319) rotate(89.9941) scale(462.388 459.415)">
<stop stop-color="#7266F8" stop-opacity="0.41"/>
<stop offset="1" stop-opacity="0"/>
</radialGradient>
<radialGradient id="paint2_radial_3114_2856" cx="0" cy="0" r="1" gradientUnits="userSpaceOnUse" gradientTransform="translate(349.596 332.319) rotate(89.9941) scale(462.388 459.415)">
<stop stop-color="#7266F8" stop-opacity="0.41"/>
<stop offset="1" stop-opacity="0"/>
</radialGradient>
<radialGradient id="paint3_radial_3114_2856" cx="0" cy="0" r="1" gradientUnits="userSpaceOnUse" gradientTransform="translate(349.596 332.319) rotate(89.9941) scale(462.388 459.415)">
<stop stop-color="#7266F8" stop-opacity="0.41"/>
<stop offset="1" stop-opacity="0"/>
</radialGradient>
<radialGradient id="paint4_radial_3114_2856" cx="0" cy="0" r="1" gradientUnits="userSpaceOnUse" gradientTransform="translate(349.596 332.319) rotate(89.9941) scale(462.388 459.415)">
<stop stop-color="#7266F8" stop-opacity="0.41"/>
<stop offset="1" stop-opacity="0"/>
</radialGradient>
<radialGradient id="paint5_radial_3114_2856" cx="0" cy="0" r="1" gradientUnits="userSpaceOnUse" gradientTransform="translate(349.596 332.319) rotate(89.9941) scale(462.388 459.415)">
<stop stop-color="#7266F8" stop-opacity="0.41"/>
<stop offset="1" stop-opacity="0"/>
</radialGradient>
<radialGradient id="paint6_radial_3114_2856" cx="0" cy="0" r="1" gradientUnits="userSpaceOnUse" gradientTransform="translate(349.596 332.319) rotate(89.9941) scale(462.388 459.415)">
<stop stop-color="#7266F8" stop-opacity="0.41"/>
<stop offset="1" stop-opacity="0"/>
</radialGradient>
<radialGradient id="paint7_radial_3114_2856" cx="0" cy="0" r="1" gradientUnits="userSpaceOnUse" gradientTransform="translate(349.596 332.319) rotate(89.9941) scale(462.388 459.415)">
<stop stop-color="#7266F8" stop-opacity="0.41"/>
<stop offset="1" stop-opacity="0"/>
</radialGradient>
<radialGradient id="paint8_radial_3114_2856" cx="0" cy="0" r="1" gradientUnits="userSpaceOnUse" gradientTransform="translate(349.596 332.319) rotate(89.9941) scale(462.388 459.415)">
<stop stop-color="#7266F8" stop-opacity="0.41"/>
<stop offset="1" stop-opacity="0"/>
</radialGradient>
<radialGradient id="paint9_radial_3114_2856" cx="0" cy="0" r="1" gradientUnits="userSpaceOnUse" gradientTransform="translate(349.596 332.319) rotate(89.9941) scale(462.388 459.415)">
<stop stop-color="#7266F8" stop-opacity="0.41"/>
<stop offset="1" stop-opacity="0"/>
</radialGradient>
<radialGradient id="paint10_radial_3114_2856" cx="0" cy="0" r="1" gradientUnits="userSpaceOnUse" gradientTransform="translate(349.596 332.319) rotate(89.9941) scale(462.388 459.415)">
<stop stop-color="#7266F8" stop-opacity="0.41"/>
<stop offset="1" stop-opacity="0"/>
</radialGradient>
<radialGradient id="paint11_radial_3114_2856" cx="0" cy="0" r="1" gradientUnits="userSpaceOnUse" gradientTransform="translate(349.596 332.319) rotate(89.9941) scale(462.388 459.415)">
<stop stop-color="#7266F8" stop-opacity="0.41"/>
<stop offset="1" stop-opacity="0"/>
</radialGradient>
<radialGradient id="paint12_radial_3114_2856" cx="0" cy="0" r="1" gradientUnits="userSpaceOnUse" gradientTransform="translate(349.596 332.319) rotate(89.9941) scale(462.388 459.415)">
<stop stop-color="#7266F8" stop-opacity="0.41"/>
<stop offset="1" stop-opacity="0"/>
</radialGradient>
<radialGradient id="paint13_radial_3114_2856" cx="0" cy="0" r="1" gradientUnits="userSpaceOnUse" gradientTransform="translate(349.596 332.319) rotate(89.9941) scale(462.388 459.415)">
<stop stop-color="#7266F8" stop-opacity="0.41"/>
<stop offset="1" stop-opacity="0"/>
</radialGradient>
<radialGradient id="paint14_radial_3114_2856" cx="0" cy="0" r="1" gradientUnits="userSpaceOnUse" gradientTransform="translate(349.596 332.319) rotate(89.9941) scale(462.388 459.415)">
<stop stop-color="#7266F8" stop-opacity="0.41"/>
<stop offset="1" stop-opacity="0"/>
</radialGradient>
<radialGradient id="paint15_radial_3114_2856" cx="0" cy="0" r="1" gradientUnits="userSpaceOnUse" gradientTransform="translate(349.596 332.319) rotate(89.9941) scale(462.388 459.415)">
<stop stop-color="#7266F8" stop-opacity="0.41"/>
<stop offset="1" stop-opacity="0"/>
</radialGradient>
<radialGradient id="paint16_radial_3114_2856" cx="0" cy="0" r="1" gradientUnits="userSpaceOnUse" gradientTransform="translate(349.596 332.319) rotate(89.9941) scale(462.388 459.415)">
<stop stop-color="#7266F8" stop-opacity="0.41"/>
<stop offset="1" stop-opacity="0"/>
</radialGradient>
<radialGradient id="paint17_radial_3114_2856" cx="0" cy="0" r="1" gradientUnits="userSpaceOnUse" gradientTransform="translate(349.596 332.319) rotate(89.9941) scale(462.388 459.415)">
<stop stop-color="#7266F8" stop-opacity="0.41"/>
<stop offset="1" stop-opacity="0"/>
</radialGradient>
<radialGradient id="paint18_radial_3114_2856" cx="0" cy="0" r="1" gradientUnits="userSpaceOnUse" gradientTransform="translate(349.596 332.319) rotate(89.9941) scale(462.388 459.415)">
<stop stop-color="#7266F8" stop-opacity="0.41"/>
<stop offset="1" stop-opacity="0"/>
</radialGradient>
<radialGradient id="paint19_radial_3114_2856" cx="0" cy="0" r="1" gradientUnits="userSpaceOnUse" gradientTransform="translate(349.596 332.319) rotate(89.9941) scale(462.388 459.415)">
<stop stop-color="#7266F8" stop-opacity="0.41"/>
<stop offset="1" stop-opacity="0"/>
</radialGradient>
<radialGradient id="paint20_radial_3114_2856" cx="0" cy="0" r="1" gradientUnits="userSpaceOnUse" gradientTransform="translate(349.596 332.319) rotate(89.9941) scale(462.388 459.415)">
<stop stop-color="#7266F8" stop-opacity="0.41"/>
<stop offset="1" stop-opacity="0"/>
</radialGradient>
<radialGradient id="paint21_radial_3114_2856" cx="0" cy="0" r="1" gradientUnits="userSpaceOnUse" gradientTransform="translate(349.596 332.319) rotate(89.9941) scale(462.388 459.415)">
<stop stop-color="#7266F8" stop-opacity="0.41"/>
<stop offset="1" stop-opacity="0"/>
</radialGradient>
<radialGradient id="paint22_radial_3114_2856" cx="0" cy="0" r="1" gradientUnits="userSpaceOnUse" gradientTransform="translate(349.596 332.319) rotate(89.9941) scale(462.388 459.415)">
<stop stop-color="#7266F8" stop-opacity="0.41"/>
<stop offset="1" stop-opacity="0"/>
</radialGradient>
<radialGradient id="paint23_radial_3114_2856" cx="0" cy="0" r="1" gradientUnits="userSpaceOnUse" gradientTransform="translate(349.596 332.319) rotate(89.9941) scale(462.388 459.415)">
<stop stop-color="#7266F8" stop-opacity="0.41"/>
<stop offset="1" stop-opacity="0"/>
</radialGradient>
<radialGradient id="paint24_radial_3114_2856" cx="0" cy="0" r="1" gradientUnits="userSpaceOnUse" gradientTransform="translate(349.596 332.319) rotate(89.9941) scale(462.388 459.415)">
<stop stop-color="#7266F8" stop-opacity="0.41"/>
<stop offset="1" stop-opacity="0"/>
</radialGradient>
<radialGradient id="paint25_radial_3114_2856" cx="0" cy="0" r="1" gradientUnits="userSpaceOnUse" gradientTransform="translate(349.596 332.319) rotate(89.9941) scale(462.388 459.415)">
<stop stop-color="#7266F8" stop-opacity="0.41"/>
<stop offset="1" stop-opacity="0"/>
</radialGradient>
<radialGradient id="paint26_radial_3114_2856" cx="0" cy="0" r="1" gradientUnits="userSpaceOnUse" gradientTransform="translate(349.596 332.319) rotate(89.9941) scale(462.388 459.415)">
<stop stop-color="#7266F8" stop-opacity="0.41"/>
<stop offset="1" stop-opacity="0"/>
</radialGradient>
</defs>
</svg>
