<svg width="700" height="704" viewBox="0 0 700 704" fill="none" xmlns="http://www.w3.org/2000/svg">
<path d="M209.831 441.727C221.155 440.645 232.479 439.586 243.787 438.457C244.785 438.355 245.728 437.72 246.726 437.453C247.763 437.171 248.832 437.037 249.893 436.841C250.003 437.955 250.482 439.186 250.168 440.174C247.205 449.678 244.109 459.135 241.076 468.608C240.84 469.345 240.793 470.145 240.722 470.922C240.172 477.383 240.557 478.418 246.946 475.297C253.17 472.255 259.881 470.239 266.262 467.503C270.269 465.777 274.057 463.55 279.047 460.986C278.646 475.399 277.633 488.942 280.21 502.916C292.367 495.435 302.497 486.699 312.312 476.474C316.65 490.11 318.567 503.865 326.543 517.047C334.402 505.167 341.655 494.204 349.167 482.841C356.57 493.804 364.145 505.033 372.263 517.07C380.059 504.053 381.607 490.055 386.322 476.411C396.325 486.684 406.235 495.717 418.635 502.955C420.466 488.785 419.995 475.117 419.303 460.625C432.309 467.605 444.167 473.564 457.644 477.148C457.77 475.54 458.171 474.246 457.919 473.102C456.74 467.824 455.57 462.531 454.045 457.348C452.293 451.403 450.084 445.601 448.277 439.664C447.79 438.049 447.743 436.128 450.682 436.669C459.106 438.214 467.538 439.774 476.009 441.013C479.6 441.539 483.302 441.342 486.948 441.366C487.498 441.366 488.056 440.794 489.573 439.954C482.461 428.506 475.451 417.237 468.3 405.717C468.929 405.6 469.997 405.223 471.066 405.223C483.317 405.192 495.121 402.298 506.995 399.773C508.197 399.515 510.232 400.071 510.924 400.973C516.574 408.337 522.114 415.786 527.426 423.401C529.996 427.078 532 431.156 534.562 435.579C520.024 441.593 504.724 440.307 490.115 441.891C493.486 451.599 496.802 460.915 499.946 470.302C501.187 474.003 501.973 477.854 503.058 481.61C503.741 483.994 502.617 484.825 500.504 484.715C496.457 484.519 492.347 484.543 488.378 483.853C479.899 482.386 471.491 480.512 463.043 478.834C458.438 477.916 458.123 478.575 458.988 483.061C459.837 487.515 460.135 492.118 460.245 496.666C460.426 503.849 460.701 511.079 460.057 518.207C459.656 522.685 461.919 524.167 465.188 524.912C477.471 527.719 489.785 530.425 502.138 532.879C505.698 533.585 506.892 535.098 506.782 538.666C506.35 552.797 504.763 566.763 501.313 580.487C500.496 583.733 501.014 585.788 504.841 586.172C517.297 587.419 529.729 588.846 542.184 590.038C545.556 590.359 548.99 590.116 552.392 590.116C554.711 590.116 555.905 591.143 555.371 593.527C553.532 601.769 551.827 610.042 549.728 618.213C547.457 627.059 544.715 635.787 542.341 644.609C541.556 647.534 539.646 648.31 537.068 648.035C527.969 647.063 518.837 646.263 509.792 644.867C502.185 643.699 494.681 641.848 487.144 640.194C483.121 639.315 481.093 638.461 483.49 633.277C487.325 624.996 490.696 616.48 493.785 607.893C495.969 601.808 497.345 595.433 499.105 589.199C499.828 586.627 499.018 585.803 496.244 585.09C485.926 582.447 475.726 579.302 465.495 576.315C462.438 575.421 459.459 574.237 456.363 573.5C451.35 572.3 450.037 569.634 451.522 564.78C453.283 559.024 454.658 553.135 455.868 547.23C457.251 540.494 458.171 533.663 459.491 526.912C459.97 524.457 459.577 523.336 457 522.269C448.057 518.56 439.248 514.522 430.478 510.405C427.57 509.04 424.859 507.198 422.227 505.339C419.35 503.308 418.187 504.727 417.622 507.362C416.639 511.918 416.081 516.584 414.832 521.07C412.718 528.653 410.211 536.118 407.877 543.63C407.5 544.83 407.146 546.038 406.4 548.492C396.152 538.886 386.385 529.915 376.844 520.693C373.088 517.062 373.442 516.976 370.715 521.752C365.866 530.221 360.696 538.51 355.627 546.853C354.417 548.837 353.112 550.766 351.784 552.68C350.385 554.695 348.57 555.22 347.156 552.946C341.285 543.521 335.549 534.016 329.836 524.496C328.861 522.873 328.358 520.975 327.392 519.344C326.111 517.196 324.429 517.572 322.873 519.109C316.367 525.547 309.993 532.126 303.337 538.408C300.068 541.497 296.296 544.054 292.061 547.387C290.269 542.721 288.21 538.517 287.047 534.079C284.768 525.398 282.937 516.592 281.035 507.817C280.336 504.594 279.472 503.779 276.085 505.637C266.914 510.671 257.492 515.251 248.085 519.831C245.335 521.172 242.302 521.924 239.221 523.006V477.987C235.457 478.889 231.174 480.222 226.789 480.888C217.139 482.355 207.442 483.578 197.737 484.707C195.096 485.013 195.167 482.818 195.662 481.163C198.256 472.498 200.778 463.801 203.749 455.262C205.383 450.564 207.851 446.15 209.933 441.601L209.823 441.711L209.831 441.727Z" fill="url(#paint0_radial_3639_3573)"/>
<path d="M478.79 333.361C481.965 330.703 485.226 328.131 488.298 325.363C494.459 319.803 500.833 314.431 506.483 308.385C509.272 305.398 511.559 305.672 514.608 306.88C520.526 309.224 526.561 311.279 532.36 313.882C538.749 316.745 544.918 320.085 551.99 323.614C558.89 314.753 566.348 305.194 573.774 295.611C575.173 293.8 576.509 291.925 577.727 289.996C581.043 284.766 581.593 284.405 586.748 287.636C598.213 294.803 609.529 302.214 620.908 309.53C622.315 310.432 623.729 311.326 625.765 312.62C621.906 317.576 618.315 322.736 614.158 327.386C607.282 335.071 599.974 342.379 593.027 350.001C592.335 350.754 592.304 353.185 592.98 353.93C600.5 362.305 608.319 370.414 615.847 378.781C619.258 382.568 622.228 386.764 626.048 391.61C637.772 379.949 649.206 368.641 660.554 357.247C665.088 352.699 665.3 351.774 660.892 347.335C650.574 336.945 640.028 326.774 629.427 316.674C625.325 312.769 625.49 313.004 628.499 308.236C633.812 299.853 638.77 291.235 643.595 282.57C646.393 277.544 648.491 272.133 651.297 267.114C651.823 266.173 654.872 265.436 655.674 266.04C665.214 273.27 674.675 280.625 683.901 288.255C689.19 292.639 693.999 297.595 699.562 302.794C694.604 310.393 689.873 317.85 684.922 325.159C680.09 332.31 675.084 339.345 670.054 346.363C668.577 348.425 665.481 350.26 665.497 352.181C665.512 354.103 668.711 355.851 670.141 357.922C678.982 370.712 687.751 383.564 696.466 396.44C697.394 397.805 697.826 399.506 698.737 401.639C695.618 404.792 692.451 408.415 688.844 411.544C681.551 417.872 674.086 424.012 666.55 430.058C662.911 432.983 659.076 435.696 655.084 438.111C654.251 438.621 651.572 437.821 651.084 436.912C645.906 427.282 641.191 417.401 635.949 407.803C633.081 402.549 629.45 397.703 625.545 391.72C622.118 394.009 618.747 396.401 615.234 398.581C605.058 404.894 594.818 411.112 584.61 417.378C583.746 417.903 582.897 418.452 581.947 419.04C571.856 405.968 561.806 392.935 552.132 380.396C543.645 384.568 535.944 388.653 527.991 392.167C522.687 394.511 517.06 396.158 511.488 397.813C510.428 398.126 508.652 397.389 507.709 396.566C498.947 388.912 490.287 381.149 481.619 373.393C480.582 372.468 479.678 371.394 478.389 370.061C482.9 368.218 487.348 366.618 491.607 364.618C498.64 361.317 505.587 357.82 512.502 354.275C514.545 353.232 514.121 350.519 511.85 349.413C501.139 344.191 490.412 338.992 478.782 333.338L478.79 333.361ZM551.597 324.437C550.56 325.049 549.177 325.527 548.242 326.461C539.425 335.188 530.003 343.132 519.378 349.633C517.311 350.903 517.406 353.005 519.528 354.377C529.767 360.996 539.299 368.477 547.755 377.259C549.924 379.518 552.297 379.667 554.867 378.514C556.737 377.667 558.576 376.632 560.21 375.401C569.153 368.649 578.033 361.819 586.913 354.989C589.75 352.801 589.852 351.288 586.968 349.115C576.595 341.289 566.159 333.565 555.676 325.88C554.686 325.151 553.263 325.002 551.597 324.437Z" fill="url(#paint1_radial_3639_3573)"/>
<path d="M209.958 262.15C210.901 264.848 211.412 267.804 212.858 270.196C218.17 278.971 223.789 287.573 229.337 296.207C229.73 296.819 230.484 297.195 231.286 297.861C217.518 299.979 204.001 302.057 190.493 304.135L189.817 306.001C192.222 308.628 194.414 311.506 197.086 313.827C203.828 319.693 210.822 325.276 217.651 331.048C218.586 331.832 219.152 333.047 220.048 334.294C214.862 336.372 209.832 338.113 205.046 340.372C198.728 343.352 192.567 346.661 186.414 349.978C184.442 351.036 184.63 353.624 186.595 354.542C197.298 359.537 208.009 364.493 218.712 369.472C218.932 369.574 219.074 369.841 219.875 370.696C217.046 373.174 214.178 375.581 211.42 378.106C204.716 384.238 197.966 390.324 191.459 396.652C189.911 398.157 188.725 398.769 186.744 397.993C179.263 395.036 171.719 392.237 164.285 389.163C160.01 387.399 155.877 385.266 151.728 383.195C150.502 382.584 149.449 381.619 148.042 380.623C136.066 391.923 126.856 405.584 116.939 420.067C104.915 412.328 93.1278 404.76 81.3717 397.138C79.4149 395.868 77.7725 394.001 75.6822 393.092C72.8454 391.861 73.7569 390.073 74.8807 388.779C84.735 377.455 94.613 366.155 104.742 355.083C106.99 352.628 106.817 351.303 104.758 349.021C94.7702 337.941 84.9315 326.735 75.0928 315.529C74.3777 314.713 74.1341 313.49 73.4269 311.922C87.9098 302.731 102.181 293.682 116.326 284.711C126.958 298.348 137.08 311.334 147.138 324.225C160.403 315.427 174.525 310.722 188.167 305.68C179.923 293.062 171.648 280.382 163.366 267.71L163.256 267.828C169.621 266.565 175.947 265.075 182.352 264.118C187.507 263.35 192.756 263.209 197.966 262.864C202.005 262.597 206.052 262.448 210.092 262.236L209.966 262.15H209.958ZM146.62 379.823C148.168 379.016 149.511 378.671 150.352 377.824C159.177 368.97 168.89 361.246 179.35 354.393C181.519 352.973 181.204 350.88 179.161 349.633C168.906 343.359 159.759 335.737 151.35 327.205C148.616 324.429 145.873 324.014 142.659 326.131C139.217 328.405 135.751 330.679 132.459 333.157C125.528 338.372 118.667 343.673 111.839 349.029C109.308 351.013 108.829 353.012 111.901 355.255C121.512 362.274 130.981 369.496 140.584 376.53C142.408 377.871 144.584 378.726 146.627 379.823H146.62Z" fill="url(#paint2_radial_3639_3573)"/>
<path d="M239.051 180.494C247.357 184.031 255.758 187.371 263.938 191.19C268.457 193.3 272.7 196.044 276.865 198.797C279.301 200.404 280.056 199.573 280.567 197.236C281.753 191.77 282.83 186.281 284.26 180.878C285.572 175.899 287.293 171.029 288.826 166.112C289.753 163.117 290.657 160.113 291.82 156.31C296.873 160.388 301.548 163.76 305.737 167.649C311.757 173.24 317.352 179.294 323.34 184.917C324.008 185.544 326.931 185.16 327.363 184.415C329.972 179.882 331.874 174.95 334.546 170.464C338.577 163.705 342.946 157.141 347.386 150.633C348.809 148.547 350.758 149.543 351.826 151.213C357.052 159.384 362.191 167.602 367.252 175.875C368.737 178.291 369.971 180.87 371.166 183.443C372.494 186.297 374.191 186.681 376.148 184.321C384.776 173.883 395.228 165.414 405.75 157.016C405.923 156.875 406.253 156.937 407.55 156.765C410.017 165.657 412.666 174.66 414.976 183.748C416.155 188.359 416.76 193.119 417.577 197.824C418.002 200.279 416.909 201.682 414.858 203.267C405.255 210.638 395.912 218.338 386.128 226.196C381.499 214.01 380.109 199.942 372.612 187.222C368.18 193.206 363.905 198.554 360.109 204.215C356.345 209.83 353.06 215.774 349.547 221.601C341.775 209.822 334.522 198.844 327.277 187.865C326.79 187.865 326.31 187.865 325.823 187.873C318.884 199.981 316.275 213.68 312.786 226.815C302.216 217.946 291.788 209.203 281.36 200.451L280.056 201.22C277.769 214.833 278.94 228.611 279.184 243.063C273.95 240.452 269.424 238.005 264.756 235.904C259.404 233.496 253.911 231.395 248.489 229.144C246.949 228.509 245.463 227.709 243.892 227.2C241.597 226.455 240.151 227.247 240.67 229.827C241.856 235.676 242.949 241.573 244.583 247.306C246.249 253.124 248.552 258.763 250.508 264.503C250.744 265.193 250.54 266.04 250.54 266.385C236.945 264.965 223.452 263.554 209.967 262.142C209.967 262.142 210.093 262.229 210.101 262.229C208.435 259.249 206.289 256.434 205.197 253.258C202.4 245.079 200.073 236.735 197.543 228.454C196.899 226.353 196.136 224.282 195.563 222.165C195.005 220.103 195.673 218.754 198.062 219.013C203.61 219.624 209.189 220.103 214.69 221.012C222.988 222.393 231.232 224.11 239.813 225.741C239.9 224.823 240.065 223.984 240.041 223.145C239.664 209.265 239.255 195.386 238.878 181.513C238.87 181.137 239.075 180.761 239.177 180.384L239.059 180.486L239.051 180.494Z" fill="url(#paint3_radial_3639_3573)"/>
<path d="M209.941 441.625C196.833 440.511 183.717 439.397 170.61 438.26C169.973 438.205 169.235 438.064 168.755 437.696C164.85 434.653 162.822 437.735 161.651 440.425C157.997 448.815 154.791 457.402 151.427 465.918C150.068 469.353 148.551 472.741 147.498 476.269C146.933 478.175 147.2 480.324 147.09 482.37L147.208 482.245C138.225 480.088 129.188 478.104 120.261 475.713C113.786 473.98 107.452 471.745 101.071 469.667C99.7588 469.235 98.5329 468.514 96.2304 467.447C94.7058 471.949 93.0634 476.301 91.7747 480.755C90.0851 486.605 88.4506 492.486 87.1932 498.438C85.9045 504.531 84.8043 510.687 84.2071 516.874C83.8613 520.458 82.5411 521.657 79.3113 520.63C73.9991 518.944 68.6554 517.282 63.4924 515.196C56.8207 512.498 50.2825 509.464 43.7522 506.421C39.6187 504.5 35.6738 502.186 31.5404 500.265C27.3833 498.328 28.2241 494.792 29.1357 491.867C33.4656 477.9 38.1099 464.028 42.6835 450.141C43.6737 447.129 44.8446 444.189 45.7797 441.625C62.2115 450.36 78.2426 458.876 94.7923 467.683C96.2068 464.813 97.3777 462.711 98.2893 460.515C101.063 453.858 103.452 447.035 106.525 440.527C109.322 434.606 112.874 429.038 115.986 423.251C117.204 420.993 118.564 420.428 121.031 421.51C128.3 424.678 135.609 427.8 143.027 430.591C146.995 432.081 151.239 432.865 155.357 433.963C156.229 434.198 157.188 434.238 157.997 434.606C163.231 436.974 162.901 436.723 166.013 432.081C173.038 421.597 180.448 411.371 187.796 401.106C188.33 400.361 189.698 399.608 190.531 399.75C203.764 401.969 216.966 404.329 230.349 406.689C227.394 411.065 223.976 415.833 220.872 420.797C217.115 426.796 213.587 432.928 210.067 439.068C209.658 439.774 209.886 440.848 209.823 441.758L209.933 441.648L209.941 441.625Z" fill="url(#paint4_radial_3639_3573)"/>
<path d="M163.365 267.703C156.112 270 148.788 272.094 141.629 274.65C134.423 277.222 127.429 280.398 120.223 282.955C119.146 283.339 116.639 282.131 116.027 281.002C111.673 272.941 107.453 264.793 103.555 256.497C100.561 250.114 98.1095 243.472 95.1311 236.265C78.7307 244.993 62.574 253.595 45.8828 262.48C43.6668 256.755 40.9713 250.537 38.8574 244.13C35.6905 234.54 33.0187 224.785 29.9932 215.147C27.2428 206.364 28.2015 204.451 36.7278 200.977C41.2778 199.126 45.5528 196.625 50.032 194.594C54.9121 192.375 59.855 190.305 64.8136 188.273C68.6406 186.705 72.6091 185.474 76.3654 183.772C81.2454 181.553 83.5401 183.035 84.2787 188.242C85.2375 195.025 86.8091 201.722 88.2472 208.435C89.2295 212.999 90.3925 217.523 91.5399 222.048C92.4986 225.812 93.4259 229.6 94.6204 233.293C94.9897 234.43 96.1684 235.3 96.6714 235.92C103.995 233.56 110.887 231.16 117.889 229.137C126.258 226.706 134.753 224.691 143.13 222.283C145.731 221.538 146.273 222.197 146.988 224.722C148.859 231.254 151.169 237.677 153.582 244.036C155.963 250.325 158.69 256.481 161.251 262.7C161.951 264.401 162.587 266.126 163.255 267.836L163.365 267.726V267.703Z" fill="url(#paint5_radial_3639_3573)"/>
<path d="M480.339 639.064C478.375 643.133 476.803 647.172 474.587 650.826C467.546 662.432 460.316 673.928 453.039 685.385C450.462 689.447 446.203 689.855 441.723 687.651C435.798 684.742 429.48 682.617 423.555 679.707C414.974 675.489 406.581 670.893 398.149 666.384C397.049 665.796 396.184 664.753 395.068 663.789C400.396 657.053 405.748 650.669 410.659 643.965C415.94 636.766 420.836 629.285 425.842 621.882C427.555 619.349 426.14 618.212 423.869 616.77C411.5 608.912 399.273 600.835 387.037 592.782C384.381 591.033 384.743 588.829 386.212 586.336C390.982 578.219 395.752 570.103 400.263 561.838C402.164 558.341 403.335 554.459 404.97 550.805C406.384 547.652 408.97 548.75 410.895 549.832C421.025 555.565 431.044 561.493 441.111 567.343C442.006 567.868 442.949 568.347 443.916 568.723C448.827 570.629 449.535 572.268 447.492 577.035C443.971 585.222 440.6 593.472 436.906 601.58C434.792 606.222 432.136 610.622 429.763 615.146C428.781 617.02 428.215 618.722 430.887 619.906C435.382 621.89 439.727 624.196 444.238 626.148C449.739 628.532 455.263 630.877 460.906 632.892C467.067 635.088 473.369 636.884 480.355 639.087L480.339 639.064Z" fill="url(#paint6_radial_3639_3573)"/>
<path d="M535.374 267.805C536.2 265.86 537.08 263.931 537.85 261.963C541.025 253.854 544.27 245.769 547.288 237.606C549.292 232.195 550.95 226.651 552.765 221.17L552.647 221.264C559.452 223.06 566.305 224.699 573.055 226.698C580.057 228.769 586.957 231.192 593.896 233.466C596.457 234.305 599.019 235.167 602.422 236.297C609.29 219.617 611.962 201.471 615.616 182.894C617.636 183.153 619.883 183.059 621.84 183.773C630.303 186.839 638.798 189.866 647.042 193.441C654.02 196.476 660.707 200.193 667.45 203.738C669.509 204.82 670.892 206.576 670.153 209.188C667.929 217.045 665.76 224.918 663.434 232.744C661.886 237.936 660.204 243.088 658.389 248.193C656.676 253 654.711 257.712 652.88 262.418C636.559 253.713 620.551 245.166 603.774 236.218C596.261 252.749 590.909 269.561 580.529 283.802C571.68 280.101 563.264 276.219 554.588 273.059C548.325 270.777 541.716 269.459 535.264 267.703L535.374 267.805Z" fill="url(#paint7_radial_3639_3573)"/>
<path d="M303.141 664.558C297.836 667.6 292.1 671.286 286.025 674.289C276.069 679.214 265.916 683.754 255.802 688.349C252.077 690.043 248.368 689.095 246.042 685.534C240.054 676.367 234.199 667.098 228.486 657.751C225.516 652.905 222.977 647.8 220.188 642.836C218.797 640.366 218.435 639.111 222.089 637.974C230.514 635.339 238.694 631.912 246.938 628.729C252.454 626.596 257.947 624.424 263.385 622.102C271.071 618.825 270.906 618.362 266.827 611.03C262.764 603.729 259.244 596.115 255.786 588.501C253.719 583.937 252.407 579.036 250.411 574.44C249.099 571.429 250.89 570.425 252.918 569.39C259.605 565.979 266.418 562.795 272.98 559.157C277.955 556.404 282.67 553.173 287.408 550.013C290.614 547.88 292.563 548.813 294.056 552.413C296.477 558.263 299.227 564.003 302.26 569.555C305.537 575.554 309.372 581.247 312.822 587.152C314.04 589.238 314.04 591.3 311.667 592.923C303.801 598.326 296.092 603.957 288.131 609.211C283.738 612.104 278.984 614.457 274.363 616.997C271.456 618.597 271.911 620.848 273.389 622.934C283.07 636.586 292.838 650.168 303.133 664.542L303.141 664.558Z" fill="url(#paint8_radial_3639_3573)"/>
<path d="M535.766 534.55C528.308 534.55 520.843 534.573 513.385 534.542C509.511 534.526 508.27 532.66 507.994 528.676C507.154 516.326 505.896 503.991 504.411 491.695C503.578 484.77 503.264 485.194 510.038 484.951C522.564 484.496 535.074 483.586 547.577 482.685C550.249 482.488 552.151 482.598 552.834 485.664C554.029 490.997 555.805 496.227 556.575 501.615C557.864 510.64 558.791 519.729 559.388 528.825C559.624 532.378 560.858 533.57 564.119 532.997C573.989 531.28 583.859 529.555 593.721 527.751C598.067 526.959 602.373 525.963 606.703 525.061C607.473 524.905 608.291 524.873 609.006 524.591C614.577 522.411 615.017 522.419 615.285 528.276C616.031 544.572 616.401 560.883 616.982 577.178C617.123 581.067 615.638 583.067 611.528 583.576C601.58 584.815 591.678 586.478 581.737 587.827C575.655 588.65 569.549 589.403 563.427 589.811C556.716 590.258 556.771 590.077 557.259 583.239C558.131 571.022 558.964 558.797 559.718 546.571C559.891 543.709 559.569 540.815 559.687 537.953C559.797 535.358 558.744 534.597 556.198 534.66C549.392 534.824 542.579 534.715 535.774 534.715C535.774 534.66 535.774 534.613 535.774 534.558L535.766 534.55Z" fill="url(#paint9_radial_3639_3573)"/>
<path d="M394.459 39.5072C402.686 35.1707 410.207 30.9676 417.94 27.1878C425.963 23.2591 434.238 19.8323 442.308 15.9977C446.096 14.2019 449.624 14.5469 451.958 17.9659C457.286 25.7763 462.575 33.6259 467.565 41.648C471.683 48.2743 475.376 55.1672 479.18 61.9817C479.643 62.8129 479.643 63.8951 479.863 64.9224C471.392 67.7375 463.094 70.1293 455.086 73.266C446.764 76.5281 438.678 80.4255 430.631 84.3307C429.774 84.7463 429.091 87.3968 429.578 88.4319C434.678 99.23 440.1 109.871 445.263 120.638C446.497 123.202 447.023 126.088 448.061 128.754C449.2 131.703 447.982 133.451 445.452 134.737C439.141 137.937 432.745 140.972 426.568 144.399C421.374 147.284 416.376 150.531 411.409 153.801C408.227 155.895 406.113 154.954 404.58 151.527C401.374 144.344 397.83 137.294 394.129 130.354C391.708 125.821 388.714 121.603 386.098 117.172C384.667 114.749 384.785 112.49 387.378 110.71C395.135 105.401 402.773 99.9044 410.639 94.7524C415.166 91.7882 420.03 89.3337 424.776 86.7067C426.93 85.507 427.44 84.0092 426.002 81.9311C420.714 74.2776 415.621 66.4829 410.097 59.0018C405.421 52.6657 400.243 46.6981 394.459 39.5308V39.5072Z" fill="url(#paint10_radial_3639_3573)"/>
<path d="M249.247 132.526C253.687 119.979 258.009 108.287 264.445 97.4732C266.323 94.3208 267.722 90.9018 269.451 87.6632C271.242 84.3069 267.792 83.5306 266.441 82.9032C258.81 79.3509 251.038 76.0496 243.156 73.1089C235.196 70.1447 227.047 67.6902 218.426 64.828C220.524 60.6248 222.19 56.555 224.461 52.8615C231.463 41.4831 238.646 30.2067 245.883 18.9694C249.129 13.9272 250.583 13.6841 257.632 16.8208C263.69 19.5184 269.946 21.7846 275.879 24.7253C285.317 29.399 294.566 34.4726 303.917 39.3972C296.703 48.721 289.969 57.1823 283.525 65.8631C279.769 70.9289 276.444 76.324 273.026 81.6329C271.439 84.0952 272.177 85.5302 274.826 87.1848C287.171 94.909 299.297 102.978 311.508 110.922C314.589 112.929 313.968 115.086 312.208 117.799C305.104 128.738 298.503 139.968 293.984 152.264C293.002 154.922 290.338 155.792 287.753 154.208C279.297 149.017 270.896 143.732 262.307 138.768C258.221 136.4 253.765 134.667 249.27 132.542L249.247 132.526Z" fill="url(#paint11_radial_3639_3573)"/>
<path d="M552.767 221.178C545.239 220.527 537.719 219.672 530.183 219.28C522.749 218.896 515.283 218.825 507.833 218.919C504.635 218.959 503.708 217.955 504.038 214.826C505.507 200.836 506.843 186.823 508.156 172.818C508.462 169.579 510.662 169.163 513.153 169.148C526.898 169.077 540.642 168.983 554.386 169.03C559.801 169.054 560.076 169.163 559.808 163.729C559.101 149.143 558.253 134.566 557.278 119.996C556.893 114.271 557.066 113.66 562.653 114.067C579.58 115.306 596.476 116.859 613.112 120.49C615.815 121.078 616.805 122.427 616.907 125.007C617.599 142.776 617.646 160.522 615.218 178.197C614.825 181.052 613.505 181.091 611.131 180.362C606.314 178.879 601.419 177.625 596.507 176.464C591.32 175.241 586.095 174.143 580.853 173.178C575.588 172.214 570.292 171.406 564.987 170.7C560.759 170.144 559.793 171.014 559.62 175.186C558.968 190.211 556.649 204.961 552.532 219.437C552.375 219.994 552.595 220.66 552.65 221.272L552.775 221.17L552.767 221.178Z" fill="url(#paint12_radial_3639_3573)"/>
<path d="M602.481 468.428C585.554 473.305 569.405 477.963 553.625 482.519C547.535 466.718 541.728 451.662 536.054 436.943C550.277 431.838 565.098 426.514 580.894 420.844C590.944 434.253 596.186 451.145 603.659 467.785C620.256 458.947 636.35 450.384 652.994 441.531C655.414 447.961 658.086 454.626 660.42 461.409C662.738 468.138 664.805 474.96 666.801 481.798C668.106 486.276 669.276 490.808 670.07 495.396C670.274 496.564 669.182 498.673 668.098 499.246C660.404 503.308 652.609 507.182 644.743 510.899C639.878 513.196 634.888 515.259 629.859 517.156C626.111 518.576 622.213 519.595 618.37 520.748C616.272 521.375 615.195 520.513 614.865 518.364C613.977 512.695 613.176 507.009 612.005 501.395C610.983 496.486 609.49 491.679 608.217 486.817C607.203 482.943 606.339 479.022 605.176 475.195C604.406 472.67 603.227 470.271 602.488 468.436L602.481 468.428Z" fill="url(#paint13_radial_3639_3573)"/>
<path d="M147.08 482.362C161.681 485.06 176.415 485.405 191.197 484.903C194.482 484.793 195.047 486.236 194.71 489.255C193.185 502.72 191.786 516.207 190.6 529.703C190.348 532.526 189.68 534.189 186.678 534.298C180.014 534.549 173.358 534.965 166.694 535.02C158.585 535.09 150.467 534.957 142.357 534.714C139.819 534.643 138.789 535.365 138.844 537.976C139.135 553.095 138.09 568.285 141.265 583.262C141.453 584.148 141.414 585.089 141.563 585.983C142.019 588.752 141.202 590.21 138.066 589.881C126.389 588.634 114.696 587.583 103.034 586.234C97.3445 585.576 91.71 584.407 86.0599 583.458C83.5137 583.027 81.7849 582.055 81.8321 578.926C82.0757 564.309 82.0757 549.684 82.3664 535.059C82.4293 531.828 83.3802 528.629 83.8202 525.398C84.1503 522.951 85.5255 522.842 87.4665 523.461C102.885 528.417 118.641 531.75 134.79 533.161C137.619 533.412 138.703 532.158 139.057 529.405C140.715 516.49 142.436 503.582 144.377 490.706C144.817 487.805 146.239 485.06 147.214 482.229L147.104 482.347L147.08 482.362Z" fill="url(#paint14_radial_3639_3573)"/>
<path d="M81.8956 147.151C81.8956 139.71 81.8956 132.26 81.8956 124.818C81.8956 122.685 82.3435 121.078 84.8896 120.56C101.934 117.11 119.144 114.985 136.503 114.075C141.753 113.8 142.271 114.31 141.273 119.572C138.397 134.714 139.112 149.998 138.924 165.266C138.884 168.426 140 169.148 143.057 169.108C156.534 168.928 170.019 168.967 183.496 169.061C189.948 169.108 190.082 169.775 190.585 175.978C191.614 188.713 192.989 201.416 194.419 214.12C194.883 218.245 194.545 218.762 190.207 218.833C180.015 219.005 169.831 219.249 159.646 219.617C157.187 219.703 154.703 220.197 152.306 220.793C147.536 221.977 145.863 221.366 145.085 216.512C142.916 202.898 140.998 189.238 139.222 175.57C138.617 170.873 138.46 170.214 133.745 170.975C123.718 172.59 113.698 174.331 103.734 176.315C98.1938 177.413 92.7637 179.075 87.2943 180.542C85.2433 181.091 84.0252 180.706 83.813 178.33C82.8779 167.956 81.8799 157.589 80.9133 147.222C81.2434 147.198 81.5656 147.175 81.8956 147.151Z" fill="url(#paint15_radial_3639_3573)"/>
<path d="M238.47 523.696C239.177 528.103 239.829 532.808 240.702 537.474C241.81 543.457 242.941 549.448 244.348 555.369C245.338 559.525 246.878 563.548 248.041 567.665C249.11 571.437 245.755 572.432 243.578 573.185C234.934 576.173 226.156 578.792 217.37 581.356C212.357 582.823 207.272 584.046 202.164 585.136C200.011 585.599 199.155 586.516 199.689 588.594C200.907 593.346 201.976 598.146 203.461 602.819C205.378 608.85 207.524 614.817 209.795 620.73C211.532 625.27 213.449 629.756 215.602 634.108C216.97 636.884 216.514 638.483 213.559 639.338C210.188 640.311 206.856 641.62 203.414 642.146C189.725 644.247 175.988 646.098 162.275 648.043C159.069 648.497 157.246 647.423 156.35 644.004C154.173 635.676 151.415 627.497 149.207 619.169C147.022 610.912 145.278 602.537 143.219 594.24C142.48 591.276 143.47 590.092 146.464 590.1C152.225 590.116 158.024 590.414 163.745 589.88C173.882 588.939 183.964 587.426 194.078 586.234C197.559 585.818 198.432 583.944 197.552 580.831C193.842 567.672 192.742 554.145 191.776 540.595C191.351 534.596 192.31 533.773 198.219 532.73C206.29 531.31 214.29 529.475 222.298 527.687C227.445 526.542 232.537 525.162 238.462 523.688L238.47 523.696Z" fill="url(#paint16_radial_3639_3573)"/>
<path d="M460.223 180.33C459.555 176.581 458.934 172.786 458.18 169.022C456.781 162.066 455.351 155.118 453.842 148.186C452.994 144.281 451.956 140.407 450.99 136.526C450.18 133.295 452.043 131.695 454.644 130.637C456.726 129.79 458.84 128.958 461.009 128.362C472.655 125.163 484.301 121.916 496.01 118.968C498.737 118.278 500.034 117.502 499.083 114.584C496.843 107.707 494.651 100.822 492.474 93.9293C491.429 90.6279 490.659 87.2324 489.393 84.0251C487.523 79.2965 485.551 74.5836 483.17 70.0982C481.637 67.2046 481.645 65.5421 485.056 64.6246C488.812 63.613 492.49 62.1702 496.301 61.5271C507.9 59.5824 519.507 57.6298 531.184 56.2653C541.989 55.0028 542.249 55.6223 544.583 66.3106C545.534 70.6863 547.255 74.8895 548.457 79.2181C549.84 84.1976 551.176 89.2007 552.276 94.2508C553.329 99.0735 554.162 103.951 554.893 108.836C555.632 113.761 555.498 113.816 550.319 113.832C547.31 113.847 544.284 113.683 541.29 113.902C530.493 114.679 519.703 115.518 508.921 116.482C506.878 116.663 504.717 117.196 502.965 118.192C501.959 118.764 501.008 120.693 501.181 121.838C502.242 128.778 503.971 135.624 504.827 142.58C505.81 150.594 506.155 158.679 506.698 166.748C506.902 169.759 504.592 170.371 502.336 170.771C496.812 171.759 491.209 172.386 485.755 173.656C477.574 175.562 469.488 177.891 460.223 180.345V180.33Z" fill="url(#paint17_radial_3639_3573)"/>
<path d="M239.174 180.392C236.573 179.828 233.956 179.342 231.386 178.675C223.85 176.722 216.361 174.566 208.785 172.762C204.738 171.798 200.558 171.367 196.432 170.755C193.092 170.253 191.395 168.763 191.678 165.015C192.707 151.346 193.485 137.655 197.281 124.371C198.64 119.595 198.373 118.458 193.792 117.831C181.918 116.208 169.973 115.047 158.044 113.926C154.02 113.549 149.926 113.769 145.871 113.863C143.255 113.918 142.367 113.055 142.964 110.35C144.473 103.488 145.368 96.4699 147.223 89.7103C150.146 79.0377 153.557 68.4827 157.077 57.9904C157.439 56.9004 160.064 55.8339 161.525 55.9673C171.026 56.8534 180.527 57.8571 189.965 59.2608C196.919 60.2959 203.756 62.076 210.664 63.4091C216.675 64.5697 216.997 65.5264 214.923 70.9685C210.381 82.8409 206.169 94.8467 201.925 106.829C200.888 109.754 200.078 112.789 199.528 115.839C199.387 116.631 200.463 118.294 201.265 118.513C210.443 121.038 219.748 123.116 228.871 125.829C234.812 127.594 240.549 130.088 246.246 132.55C247.15 132.942 248.038 135.043 247.802 136.102C246.23 143.293 244.172 150.382 242.623 157.581C241.123 164.536 240.038 171.586 238.82 178.597C238.718 179.2 238.961 179.859 239.056 180.486L239.181 180.377L239.174 180.392Z" fill="url(#paint18_radial_3639_3573)"/>
<path d="M460.028 180.573C460.791 195.982 461.16 210.599 458.331 226.157C463.297 224.997 467.368 223.773 471.533 223.115C481.049 221.617 490.597 220.339 500.153 219.107C502.401 218.817 504.129 219.523 503.233 222.464C501.002 229.796 498.935 237.183 496.585 244.483C495.053 249.259 493.285 253.98 491.344 258.606C490.362 260.943 488.625 262.127 485.599 262.37C475.077 263.194 464.602 264.543 454.127 265.836C452.311 266.056 450.583 266.958 447.997 267.813C448.414 265.507 448.547 264.001 448.964 262.59C451.227 254.991 453.639 247.432 455.832 239.817C456.798 236.453 457.482 232.995 458.095 229.545C458.512 227.216 457.317 226.306 455.109 227.208C448.099 230.062 441.074 232.878 434.151 235.928C429.616 237.92 425.239 240.288 420.273 242.742C420.013 241.158 419.628 239.841 419.605 238.524C419.408 226.808 419.22 215.085 419.22 203.369C419.22 202.012 420.013 199.981 421.067 199.401C429.569 194.696 438.158 190.124 446.858 185.796C450.842 183.82 455.148 182.494 460.036 180.581L460.028 180.573Z" fill="url(#paint19_radial_3639_3573)"/>
<path d="M44.9953 439.068C41.742 436.912 38.5593 435.202 35.8482 432.936C24.6422 423.573 13.5462 414.069 2.48945 404.533C0.461992 402.785 -0.213827 400.848 1.68004 398.095C11.1101 384.388 20.2651 370.484 29.6322 356.73C32.2883 352.833 33.915 353.076 37.3256 356.409C48.3273 367.167 59.3604 377.887 70.6214 388.364C73.0339 390.606 73.0418 392.387 71.6116 394.755C65.4978 404.902 59.2582 414.971 53.2937 425.196C51.1013 428.96 49.616 433.14 47.62 437.03C47.1721 437.9 45.9305 438.371 44.9953 439.061V439.068Z" fill="url(#paint20_radial_3639_3573)"/>
<path d="M72.9513 312.73C72.3619 313.576 71.8432 314.839 70.916 315.56C58.7276 325.057 48.001 336.051 37.6987 347.5C33.7302 351.907 32.8344 351.938 29.471 347.319C22.2413 337.384 15.0038 327.456 8.01767 317.356C5.3144 313.443 3.11406 309.154 1.03159 304.872C0.536516 303.861 0.929434 301.657 1.7467 300.888C9.18071 293.909 16.6383 286.946 24.4181 280.359C29.9189 275.701 35.8441 271.513 41.7222 267.326C45.7928 264.424 46.1543 265.099 48.3703 269.357C53.9969 280.155 60.0793 290.726 66.0988 301.312C67.9062 304.488 70.1458 307.413 72.1419 310.487C72.4876 311.012 72.5898 311.702 72.9513 312.737V312.73Z" fill="url(#paint21_radial_3639_3573)"/>
<path d="M349.698 0.00784175C351.45 1.19979 352.998 2.07806 354.342 3.20728C361.988 9.68456 369.721 16.0756 377.155 22.796C382.216 27.3677 386.844 32.41 391.638 37.2718C393.202 38.8559 393.319 40.0165 391.158 41.577C379.143 50.2735 367.253 59.1425 355.356 67.9958C353.218 69.5877 351.261 72.6695 349.163 72.7166C347.222 72.7558 345.321 69.5171 343.23 67.9488C331.301 59.017 319.357 50.1088 307.325 41.3182C305.353 39.8831 305.549 38.6363 306.909 37.264C319.372 24.6858 332.126 12.437 346.366 1.83497C347.332 1.11353 348.495 0.650865 349.69 0L349.698 0.00784175Z" fill="url(#paint22_radial_3639_3573)"/>
<path d="M393.051 663.93C392.446 664.848 391.849 666.048 390.984 666.996C379.173 680.045 366.01 691.627 352.093 702.378C350.144 703.884 348.478 703.923 346.53 702.394C332.762 691.62 319.591 680.218 307.835 667.239C305.823 665.02 305.32 663.954 308.362 661.978C322.129 653.022 335.245 643.197 347.088 631.748C347.905 630.956 350.702 630.995 351.677 631.779C360.345 638.696 368.698 646.012 377.381 652.92C382.207 656.755 387.472 660.041 393.059 663.93H393.051Z" fill="url(#paint23_radial_3639_3573)"/>
<path d="M383.197 590.524C382.655 591.535 382.49 592.029 382.175 592.39C372.054 604.239 361.979 616.119 351.669 627.803C350.931 628.642 347.724 628.713 346.978 627.921C339.591 619.985 332.424 611.837 325.328 603.635C322.546 600.42 320.338 596.703 317.462 593.59C315.293 591.237 316.102 589.779 317.933 588.061C323.018 583.301 328.251 578.69 333.1 573.703C337.87 568.794 342.404 563.634 346.687 558.294C348.777 555.69 349.956 556.216 351.858 558.247C360.353 567.343 368.926 576.377 377.523 585.372C379.291 587.222 381.311 588.83 383.181 590.524H383.197Z" fill="url(#paint24_radial_3639_3573)"/>
<path d="M349.32 74.7324C350.404 75.4303 351.465 75.8538 352.157 76.6066C360.046 85.2482 367.952 93.8741 375.692 102.649C378.136 105.417 380.242 108.53 382.152 111.698C382.568 112.389 381.814 114.318 381.02 115.11C375.865 120.246 370.404 125.076 365.343 130.291C360.699 135.075 356.377 140.172 352.039 145.245C350.294 147.284 349.438 148.617 346.876 145.598C340.526 138.102 333.689 131.005 326.868 123.924C323.937 120.873 320.448 118.372 317.486 115.353C316.668 114.521 316.11 112.122 316.652 111.471C326.523 99.7162 336.581 88.1105 346.64 76.5047C347.253 75.7989 348.251 75.4303 349.32 74.7403V74.7324Z" fill="url(#paint25_radial_3639_3573)"/>
<path d="M535.267 267.702C528.124 280.241 520.462 292.427 510.883 303.288C510.168 304.104 508.344 304.48 507.181 304.276C502.05 303.367 497.005 301.916 491.85 301.14C485.65 300.206 479.379 299.783 473.147 299.101C471.387 298.905 469.642 298.568 468.495 298.387C475.339 287.009 482.05 275.748 488.927 264.581C489.571 263.531 491.284 262.393 492.408 262.48C504.235 263.421 516.046 264.519 527.849 265.773C530.395 266.048 532.863 267.091 535.369 267.789L535.267 267.695V267.702Z" fill="url(#paint26_radial_3639_3573)"/>
<defs>
<radialGradient id="paint0_radial_3639_3573" cx="0" cy="0" r="1" gradientUnits="userSpaceOnUse" gradientTransform="translate(350.159 332.319) rotate(89.9941) scale(462.388 459.415)">
<stop stop-color="#AADCDB" stop-opacity="0.41"/>
<stop offset="1" stop-opacity="0"/>
</radialGradient>
<radialGradient id="paint1_radial_3639_3573" cx="0" cy="0" r="1" gradientUnits="userSpaceOnUse" gradientTransform="translate(350.159 332.319) rotate(89.9941) scale(462.388 459.415)">
<stop stop-color="#AADCDB" stop-opacity="0.41"/>
<stop offset="1" stop-opacity="0"/>
</radialGradient>
<radialGradient id="paint2_radial_3639_3573" cx="0" cy="0" r="1" gradientUnits="userSpaceOnUse" gradientTransform="translate(350.159 332.319) rotate(89.9941) scale(462.388 459.415)">
<stop stop-color="#AADCDB" stop-opacity="0.41"/>
<stop offset="1" stop-opacity="0"/>
</radialGradient>
<radialGradient id="paint3_radial_3639_3573" cx="0" cy="0" r="1" gradientUnits="userSpaceOnUse" gradientTransform="translate(350.159 332.319) rotate(89.9941) scale(462.388 459.415)">
<stop stop-color="#AADCDB" stop-opacity="0.41"/>
<stop offset="1" stop-opacity="0"/>
</radialGradient>
<radialGradient id="paint4_radial_3639_3573" cx="0" cy="0" r="1" gradientUnits="userSpaceOnUse" gradientTransform="translate(350.159 332.319) rotate(89.9941) scale(462.388 459.415)">
<stop stop-color="#AADCDB" stop-opacity="0.41"/>
<stop offset="1" stop-opacity="0"/>
</radialGradient>
<radialGradient id="paint5_radial_3639_3573" cx="0" cy="0" r="1" gradientUnits="userSpaceOnUse" gradientTransform="translate(350.159 332.319) rotate(89.9941) scale(462.388 459.415)">
<stop stop-color="#AADCDB" stop-opacity="0.41"/>
<stop offset="1" stop-opacity="0"/>
</radialGradient>
<radialGradient id="paint6_radial_3639_3573" cx="0" cy="0" r="1" gradientUnits="userSpaceOnUse" gradientTransform="translate(350.159 332.319) rotate(89.9941) scale(462.388 459.415)">
<stop stop-color="#AADCDB" stop-opacity="0.41"/>
<stop offset="1" stop-opacity="0"/>
</radialGradient>
<radialGradient id="paint7_radial_3639_3573" cx="0" cy="0" r="1" gradientUnits="userSpaceOnUse" gradientTransform="translate(350.159 332.319) rotate(89.9941) scale(462.388 459.415)">
<stop stop-color="#AADCDB" stop-opacity="0.41"/>
<stop offset="1" stop-opacity="0"/>
</radialGradient>
<radialGradient id="paint8_radial_3639_3573" cx="0" cy="0" r="1" gradientUnits="userSpaceOnUse" gradientTransform="translate(350.159 332.319) rotate(89.9941) scale(462.388 459.415)">
<stop stop-color="#AADCDB" stop-opacity="0.41"/>
<stop offset="1" stop-opacity="0"/>
</radialGradient>
<radialGradient id="paint9_radial_3639_3573" cx="0" cy="0" r="1" gradientUnits="userSpaceOnUse" gradientTransform="translate(350.159 332.319) rotate(89.9941) scale(462.388 459.415)">
<stop stop-color="#AADCDB" stop-opacity="0.41"/>
<stop offset="1" stop-opacity="0"/>
</radialGradient>
<radialGradient id="paint10_radial_3639_3573" cx="0" cy="0" r="1" gradientUnits="userSpaceOnUse" gradientTransform="translate(350.159 332.319) rotate(89.9941) scale(462.388 459.415)">
<stop stop-color="#AADCDB" stop-opacity="0.41"/>
<stop offset="1" stop-opacity="0"/>
</radialGradient>
<radialGradient id="paint11_radial_3639_3573" cx="0" cy="0" r="1" gradientUnits="userSpaceOnUse" gradientTransform="translate(350.159 332.319) rotate(89.9941) scale(462.388 459.415)">
<stop stop-color="#AADCDB" stop-opacity="0.41"/>
<stop offset="1" stop-opacity="0"/>
</radialGradient>
<radialGradient id="paint12_radial_3639_3573" cx="0" cy="0" r="1" gradientUnits="userSpaceOnUse" gradientTransform="translate(350.159 332.319) rotate(89.9941) scale(462.388 459.415)">
<stop stop-color="#AADCDB" stop-opacity="0.41"/>
<stop offset="1" stop-opacity="0"/>
</radialGradient>
<radialGradient id="paint13_radial_3639_3573" cx="0" cy="0" r="1" gradientUnits="userSpaceOnUse" gradientTransform="translate(350.159 332.319) rotate(89.9941) scale(462.388 459.415)">
<stop stop-color="#AADCDB" stop-opacity="0.41"/>
<stop offset="1" stop-opacity="0"/>
</radialGradient>
<radialGradient id="paint14_radial_3639_3573" cx="0" cy="0" r="1" gradientUnits="userSpaceOnUse" gradientTransform="translate(350.159 332.319) rotate(89.9941) scale(462.388 459.415)">
<stop stop-color="#AADCDB" stop-opacity="0.41"/>
<stop offset="1" stop-opacity="0"/>
</radialGradient>
<radialGradient id="paint15_radial_3639_3573" cx="0" cy="0" r="1" gradientUnits="userSpaceOnUse" gradientTransform="translate(350.159 332.319) rotate(89.9941) scale(462.388 459.415)">
<stop stop-color="#AADCDB" stop-opacity="0.41"/>
<stop offset="1" stop-opacity="0"/>
</radialGradient>
<radialGradient id="paint16_radial_3639_3573" cx="0" cy="0" r="1" gradientUnits="userSpaceOnUse" gradientTransform="translate(350.159 332.319) rotate(89.9941) scale(462.388 459.415)">
<stop stop-color="#AADCDB" stop-opacity="0.41"/>
<stop offset="1" stop-opacity="0"/>
</radialGradient>
<radialGradient id="paint17_radial_3639_3573" cx="0" cy="0" r="1" gradientUnits="userSpaceOnUse" gradientTransform="translate(350.159 332.319) rotate(89.9941) scale(462.388 459.415)">
<stop stop-color="#AADCDB" stop-opacity="0.41"/>
<stop offset="1" stop-opacity="0"/>
</radialGradient>
<radialGradient id="paint18_radial_3639_3573" cx="0" cy="0" r="1" gradientUnits="userSpaceOnUse" gradientTransform="translate(350.159 332.319) rotate(89.9941) scale(462.388 459.415)">
<stop stop-color="#AADCDB" stop-opacity="0.41"/>
<stop offset="1" stop-opacity="0"/>
</radialGradient>
<radialGradient id="paint19_radial_3639_3573" cx="0" cy="0" r="1" gradientUnits="userSpaceOnUse" gradientTransform="translate(350.159 332.319) rotate(89.9941) scale(462.388 459.415)">
<stop stop-color="#AADCDB" stop-opacity="0.41"/>
<stop offset="1" stop-opacity="0"/>
</radialGradient>
<radialGradient id="paint20_radial_3639_3573" cx="0" cy="0" r="1" gradientUnits="userSpaceOnUse" gradientTransform="translate(350.159 332.319) rotate(89.9941) scale(462.388 459.415)">
<stop stop-color="#AADCDB" stop-opacity="0.41"/>
<stop offset="1" stop-opacity="0"/>
</radialGradient>
<radialGradient id="paint21_radial_3639_3573" cx="0" cy="0" r="1" gradientUnits="userSpaceOnUse" gradientTransform="translate(350.159 332.319) rotate(89.9941) scale(462.388 459.415)">
<stop stop-color="#AADCDB" stop-opacity="0.41"/>
<stop offset="1" stop-opacity="0"/>
</radialGradient>
<radialGradient id="paint22_radial_3639_3573" cx="0" cy="0" r="1" gradientUnits="userSpaceOnUse" gradientTransform="translate(350.159 332.319) rotate(89.9941) scale(462.388 459.415)">
<stop stop-color="#AADCDB" stop-opacity="0.41"/>
<stop offset="1" stop-opacity="0"/>
</radialGradient>
<radialGradient id="paint23_radial_3639_3573" cx="0" cy="0" r="1" gradientUnits="userSpaceOnUse" gradientTransform="translate(350.159 332.319) rotate(89.9941) scale(462.388 459.415)">
<stop stop-color="#AADCDB" stop-opacity="0.41"/>
<stop offset="1" stop-opacity="0"/>
</radialGradient>
<radialGradient id="paint24_radial_3639_3573" cx="0" cy="0" r="1" gradientUnits="userSpaceOnUse" gradientTransform="translate(350.159 332.319) rotate(89.9941) scale(462.388 459.415)">
<stop stop-color="#AADCDB" stop-opacity="0.41"/>
<stop offset="1" stop-opacity="0"/>
</radialGradient>
<radialGradient id="paint25_radial_3639_3573" cx="0" cy="0" r="1" gradientUnits="userSpaceOnUse" gradientTransform="translate(350.159 332.319) rotate(89.9941) scale(462.388 459.415)">
<stop stop-color="#AADCDB" stop-opacity="0.41"/>
<stop offset="1" stop-opacity="0"/>
</radialGradient>
<radialGradient id="paint26_radial_3639_3573" cx="0" cy="0" r="1" gradientUnits="userSpaceOnUse" gradientTransform="translate(350.159 332.319) rotate(89.9941) scale(462.388 459.415)">
<stop stop-color="#AADCDB" stop-opacity="0.41"/>
<stop offset="1" stop-opacity="0"/>
</radialGradient>
</defs>
</svg>
