<svg width="868" height="488" viewBox="0 0 868 488" fill="none" xmlns="http://www.w3.org/2000/svg">
<g opacity="0.6">
<path fill-rule="evenodd" clip-rule="evenodd" d="M148.879 39.892C231.103 17.8602 297.758 69.0627 297.758 154.256V402.614L0.000244496 482.398V234.04C0.000244496 148.847 66.6556 61.9237 148.879 39.892Z" fill="#7266F8"/>
<path fill-rule="evenodd" clip-rule="evenodd" d="M148.87 75.4375C216.614 57.2856 271.531 99.4392 271.531 169.59V374.097L26.209 439.831V235.324C26.209 165.173 81.1262 93.5894 148.87 75.4375Z" fill="#0E0E0E"/>
<mask id="mask0_3114_2540" style="mask-type:alpha" maskUnits="userSpaceOnUse" x="26" y="71" width="246" height="369">
<path fill-rule="evenodd" clip-rule="evenodd" d="M148.882 75.4364C216.626 57.2845 271.543 99.4381 271.543 169.589V374.096L26.2207 439.83V235.323C26.2207 165.172 81.1379 93.5883 148.882 75.4364Z" fill="#646464"/>
</mask>
<g mask="url(#mask0_3114_2540)">
<path fill-rule="evenodd" clip-rule="evenodd" d="M107.679 86.4767C175.423 68.3248 230.34 110.478 230.34 180.629V385.136L-14.9825 450.87V246.363C-14.9825 176.212 39.9348 104.629 107.679 86.4767Z" fill="black"/>
</g>
<mask id="mask1_3114_2540" style="mask-type:alpha" maskUnits="userSpaceOnUse" x="4" y="76" width="247" height="371">
<path fill-rule="evenodd" clip-rule="evenodd" d="M127.132 80.9668C59.2295 99.1613 4.18359 170.945 4.18359 241.3V446.402L250.08 380.514V175.412C250.08 105.057 195.034 62.7724 127.132 80.9668Z" fill="#646464"/>
</mask>
<g mask="url(#mask1_3114_2540)">
<path fill-rule="evenodd" clip-rule="evenodd" d="M168.425 69.9024C100.522 88.0968 45.4766 159.881 45.4766 230.236V435.338L291.373 369.45V164.348C291.373 93.9927 236.327 51.708 168.425 69.9024Z" fill="#39A27A"/>
<mask id="mask2_3114_2540" style="mask-type:alpha" maskUnits="userSpaceOnUse" x="45" y="65" width="247" height="371">
<path fill-rule="evenodd" clip-rule="evenodd" d="M168.175 69.9983C100.272 88.1928 45.2266 159.976 45.2266 230.332V435.434L291.123 369.546V164.444C291.123 94.0886 236.077 51.8039 168.175 69.9983Z" fill="#E8EDD9"/>
</mask>
<g mask="url(#mask2_3114_2540)">
<path d="M359.976 196.581V160.298C350.167 168.091 339.641 172.934 328.765 176.559C325.691 177.583 323.856 177.133 322.222 174.699C313.8 162.111 300.47 160.194 284.647 165.715C265.737 172.318 253.518 186.855 246.991 206.676C245.357 211.63 242.776 215.996 239.307 219.859C228.863 231.465 213.444 232.648 206.29 222.568C198.159 211.091 182.426 213.246 173.198 227.081C171.095 230.239 169.983 233.725 168.245 237.001C166.694 239.933 165.112 242.842 162.233 244.919C165.075 239.942 166.097 234.751 167.85 229.665C169.789 224.043 172.937 219.254 178.085 215.86C187.193 209.853 194.974 209.745 201.74 215.397C207.357 220.09 213.906 222.234 222.575 218.151C233.72 212.903 239.695 203.93 241.873 192.222C245.223 174.241 254.331 159.488 270.466 149.606C281.984 142.552 293.719 139.207 304.468 143.56C308.317 145.115 311.794 147.41 314.464 150.608C316.016 152.462 317.575 152.384 320.096 151.114C333.83 144.192 345.952 134.537 356.552 122.124C357.514 121.002 358.238 119.271 359.961 119.389C359.976 74.9277 359.939 30.4806 360.051 -14.0064C360.051 -16.8241 359.447 -17.1794 356.791 -16.4678C307.124 -3.05919 257.457 10.2182 207.789 23.5265C209.05 23.9838 210.453 23.2761 211.795 22.924C219.994 20.7736 228.199 18.6598 236.398 16.3473C239.001 15.6111 240.068 16.2361 239.777 18.9928C239.531 21.3592 239.307 23.7273 239.217 26.0595C238.673 40.1624 233.287 53.7716 226.215 67.2073C225.074 69.3812 223.738 70.704 221.329 71.0099C206.7 72.8762 195.443 82.3461 186.454 96.0252C175.011 113.442 174.825 135.964 185.843 149.887C187.618 152.128 189.036 154.589 189.782 157.493C193.952 173.605 180.434 191.061 166.059 193.253C149.879 195.72 139.167 213.999 145.761 227.609C146.918 230.001 148.052 232.415 149.006 234.938C149.797 237.026 150.29 239.311 149.663 242.034C147.955 237.597 145.426 233.967 142.539 230.565C137.951 225.171 137.548 218.115 140.898 209.853C144.18 201.755 150.036 196.658 157.391 193.954C169.342 189.563 177.503 178.939 178.301 166.328C178.808 158.271 175.407 153.061 170.491 148.72C160.301 139.724 155.959 127.17 159.361 110.727C163.105 92.6553 175.392 74.2174 194.578 68.8139C198.114 67.8201 199.517 66.132 200.725 62.7204C205.417 49.4746 207.588 36.4953 207.043 23.7341C196.1 26.6664 185.164 29.5967 174.22 32.529C174.444 33.0557 174.847 33.5267 174.877 34.1131C175.325 43.8048 174.705 53.6665 172.147 63.8781C171.408 66.8318 170.185 68.6958 167.283 70.091C160.629 73.2866 154.489 77.5949 149.641 84.1203C131.394 108.694 133.43 139.035 154.213 150.31C157.115 151.887 159.502 153.965 161.405 156.62C168.879 167.053 164.157 186.491 147.589 194.852C133.565 201.929 126.597 219.165 133.975 229.548C135.556 231.772 137.705 233.35 139.764 235.029C142.136 236.956 143.867 239.403 144.65 242.698C142.024 240.452 139.48 238.201 136.228 236.857C129.238 233.959 125.516 228.356 126.552 219.224C127.537 210.561 132.17 203.885 139.562 198.369C146.455 193.225 151.035 186.44 152.14 178.031C153.639 166.582 148.991 158.935 138.727 155.564C129.432 152.511 122.382 146.781 118.235 137.425C111.245 121.643 115.676 91.0904 140.323 76.1723C142.375 74.9278 142.778 73.5153 143.001 71.4791C144.202 60.7822 142.71 51.0616 140.644 41.5258L106.329 50.7204C111.26 59.5504 113.334 69.9102 114.341 80.8415C114.594 83.6144 113.61 85.7849 111.148 87.9962C107.344 91.4087 103.524 94.9101 100.898 99.5429C83.7931 129.693 95.4154 159.828 123.524 162.586C132.423 163.459 137.929 168.654 139.197 178.118C140.495 187.844 136.556 196.611 128.261 204.114C114.9 216.186 115.139 235.614 128.761 239.861C130.708 240.466 132.714 240.978 134.587 241.727C137.213 242.784 139.57 244.236 140.98 246.869C137.13 245.484 133.363 243.916 128.977 244.087C112.655 244.724 107.731 224.884 120.794 209.373C125.374 203.931 128 197.669 127.97 191.077C127.91 178.996 119.69 171.341 107.836 172.34C87.3962 174.065 73.4091 162.991 70.6117 142.79C68.896 130.397 71.3726 118.285 81.2195 106.73C82.152 105.639 82.9278 104.358 83.9423 103.376C85.8968 101.494 86.1578 99.8104 85.6208 97.6384C82.4802 84.9707 76.6019 74.5573 67.6949 66.5147C66.2701 65.2291 64.1068 64.5967 63.8009 62.1235L2.63082 78.514C3.08586 81.3332 4.96572 81.7636 7.61394 81.8105C32.4848 82.2407 49.0977 94.4558 59.1311 115.991C60.3321 118.564 60.2053 120.829 57.9898 123.909C50.0376 134.956 48.2473 146.305 49.9108 157.376C53.1111 178.612 71.4248 189.499 93.6027 183.75C104.263 180.986 113.789 185.953 116.124 196.065C117.757 203.107 116.228 210.565 111.581 217.955C102.599 232.234 105.568 246.284 118.227 249.276C121.525 250.052 125.172 249.291 128.686 249.106C131.595 248.952 134.363 249.129 136.519 251.067C130.954 250.644 125.232 252.725 119.563 253.982C117.317 254.476 115.199 254.225 113.2 253.649C102.95 250.683 99.5407 238.682 105.389 226.106C113.192 209.333 106.12 194.623 90.4771 195.101C86.7919 195.217 83.077 196.428 79.3545 197.935C61.4586 205.17 41.3545 200.467 33.9842 182.502C31.2092 175.727 28.2402 168.865 30.9929 159.798C32.3133 155.43 33.2457 150.88 35.7746 146.852C38.5943 142.368 37.4605 139.877 35.2374 137.146C18.3411 116.361 -4.60517 109.579 -34.6308 118.589C-47.1109 122.335 -56.1969 136.819 -53.4742 148.796C-52.7282 152.093 -51.3332 152.661 -47.9688 151.567C-21.7701 143.103 -1.00956 148.572 15.5959 164.564C17.3265 166.231 17.7368 168.028 16.5358 170.897C7.68854 191.964 18.8483 213.715 35.6627 218.018C47.3297 221.006 59.2579 217.578 71.574 211.043C80.66 206.223 88.5301 206.778 94.7515 212.46C100.652 217.85 101.421 225.803 98.7052 234.899C96.1689 243.399 95.8332 250.853 100.764 256.34C105.993 262.165 113.013 262.553 121.562 258.341C125.814 256.244 130.2 255.092 134.333 255.876C132.602 256.872 130.894 257.561 129.178 258.168C125.031 259.627 121.413 262.951 117.37 264.705C103.949 270.525 92.1406 260.558 94.6769 245.659C95.6169 240.142 95.8257 234.829 93.543 230.462C87.896 219.631 73.9686 218.276 61.9211 228.035C43.1299 243.252 20.676 244.498 7.30062 230.751C-0.994648 222.236 -3.11321 211.44 0.251139 197.709C0.847916 195.272 0.295886 194.254 -1.31542 193.281C-13.3928 185.964 -27.1561 182.99 -42.829 184.959C-48.8192 185.707 -54.8915 186.153 -60.7847 190.457V216.704C-59.2405 216.282 -58.7258 217.873 -58.8377 218.521C-59.2629 220.935 -58.1738 220.659 -56.5476 220.254C-42.9409 216.878 -30.5055 217.931 -18.6445 221.438C-14.467 222.673 -12.5051 224.803 -13.0123 230.18C-14.2507 243.242 -8.65582 251.84 0.348121 257.317C16.7745 267.305 36.2072 262.592 54.6254 244.773C62.6969 236.967 71.0145 234.229 79.5112 236.962C87.8438 239.639 91.0962 246.541 90.6785 256.233C89.9325 273.748 104.994 280.064 119.966 268.433C121.86 266.961 123.77 265.499 125.739 264.207C127.97 262.737 130.297 261.627 132.781 261.471C129.275 264.179 125.918 266.869 122.957 270.218C116.303 277.744 109.022 280.729 101.107 278.983C93.8862 277.39 90.4696 272.214 89.567 264.49C88.9926 259.564 87.3216 255.303 83.9348 252.397C74.8861 244.608 60.541 248.375 50.4405 261.217C41.3172 272.817 30.493 280.635 17.7816 283.138C1.67594 286.311 -10.8938 282.06 -18.182 268.759C-20.39 264.726 -21.5165 259.702 -21.4046 254.322C-21.3673 252.513 -21.9342 251.716 -23.5903 251.465C-32.8703 250.076 -42.3516 249.722 -52.4596 252.368C-54.5632 252.916 -57.025 252.997 -58.6885 254.362C-60.8444 256.12 -59.0391 258.408 -59.33 260.555C-59.5688 262.325 -60.0089 261.956 -60.7922 261.487V264.575C-59.2778 264.13 -59.4942 265.346 -59.3375 266.315C-58.42 271.937 -59.0839 277.981 -59.2853 283.902C-59.3673 286.402 -58.6736 287.289 -55.8762 286.215C-47.7599 283.107 -39.8078 282.551 -31.8632 282.004C-28.1407 281.748 -26.0893 283.144 -25.3583 286.947C-22.1133 303.902 -3.4489 310.627 11.493 306.939C27.0989 303.09 39.3552 293.368 48.583 277.972C57.296 263.441 74.1476 258.339 83.7931 267.11C87.0531 270.073 88.2839 274.375 89.8057 278.583C94.3189 291.076 110.283 291.153 120.726 278.797C122.584 276.594 124.27 274.227 126.194 272.098C128.507 269.533 130.909 266.983 134.154 265.89C130.141 270.169 127.336 275.104 124.337 279.991C117.153 291.689 104.203 296.063 95.3707 290.177C92.5136 288.271 90.9843 285.2 89.1492 282.349C84.7032 275.442 78.2729 272.395 68.881 275.343C60.168 278.08 53.7302 284.135 49.687 293.031C44.1519 305.213 36.4683 315.362 25.4503 322.884C8.46434 334.476 -19.1144 335.883 -26.4623 313.458C-27.0516 311.663 -28.0065 311.093 -29.8267 311.496C-37.8907 313.286 -45.9621 315.063 -53.9143 319.216C-56.2492 320.436 -58.3304 322.453 -60.7996 323.245V357.984C-50.5797 350.312 -39.9272 344.308 -28.6032 340.641C-25.679 339.696 -23.7842 339.89 -22.2997 342.31C-13.2883 357.033 9.16555 357.038 25.5397 345.934C38.572 337.1 47.009 325.013 51.4923 310.071C54.6851 299.427 61.466 291.75 71.5069 288.265C80.757 285.061 87.5305 287.723 92.4838 294.494C96.4225 299.892 102.353 302.024 109.858 300.136C117.81 298.145 123.554 292.591 127.246 284.376C128.231 282.183 129.104 279.942 130.185 277.784C131.446 275.269 132.878 272.809 135.154 270.995C133.58 274.991 131.827 278.834 130.857 282.838C128.731 291.644 124.009 298.537 115.728 302.647C107.702 306.627 101.503 304.807 96.0346 300.59C92.3942 297.783 88.2988 295.754 83.0173 296.351C70.2163 297.797 59.6384 308.444 57.2587 322.992C53.2752 347.311 37.6992 364.692 20.9893 371.246C12.5747 374.543 4.04816 377.175 -3.49365 373.893C-7.82779 372.005 -11.7143 369.418 -15.0265 366.122C-16.2499 364.905 -17.3091 364.726 -19.107 365.656C-31.3484 372.016 -42.5903 380.231 -52.1761 391.399C-55.6971 395.508 -60.3147 399.292 -59.8671 405.217C-60.1804 404.652 -60.4937 404.096 -60.7996 403.529V462.198C-58.6288 460.813 -55.9359 461.636 -54.9213 456.941C-48.8416 428.772 -32.6987 406.853 -8.44697 390.312C-5.82858 388.522 -3.9487 388.319 -1.84505 389.863C7.2335 396.516 18.3336 395.727 30.3066 390.156C50.2987 380.847 63.8531 359.576 64.2709 337.247C64.4648 326.835 68.7617 317.879 77.8626 311.11C86.5756 304.622 94.565 304.96 101.808 308.932C106.143 311.306 110.917 312.188 116.594 310.127C127.112 306.305 132.774 298.828 134.587 286.146C135.243 281.562 136.258 277.098 139.249 272.823C137.973 278.7 137.832 284.327 137.586 290.013C136.959 304.786 120.324 318.051 108.239 313.639C100.294 310.743 92.1033 311.957 84.0467 319.566C75.6993 327.453 72.8123 336.633 73.9611 346.33C74.4609 350.566 74.6325 354.866 74.3565 359.317C72.5736 388.118 38.4601 421.575 12.1942 408.272C10.7545 407.538 9.65792 408.025 8.20325 409.372C-18.1596 433.782 -30.8337 461.965 -30.0579 494.095C-29.6924 509.089 -14.6236 512.547 -4.82896 507.043C-2.70294 505.848 -1.81519 504.823 -2.01661 502.345C-4.17995 475.52 6.1593 450.872 25.8382 427.867C28.0463 425.284 30.0604 424.142 32.8429 424.84C42.3914 427.245 52.0593 423.798 61.7346 417.346C80.854 404.611 91.9466 378.38 86.2324 359.107C85.1732 355.531 84.2929 351.945 84.2258 347.934C84.0617 337.572 91.2081 325.752 100.846 321.132C106.247 318.542 111.491 317.708 116.87 318.375C129.939 319.975 142.584 307.98 143.173 293.757C143.292 290.815 142.561 288.062 142.255 285.21C141.905 281.977 141.793 278.695 143.27 275.135C143.703 279.326 144.605 283.207 146.045 286.789C148.932 293.959 147.955 301.515 142.442 309.323C137.041 316.976 130.208 320.382 122.42 320.724C111.402 321.214 102.346 328.38 97.6683 340.217C94.4904 348.256 95.2066 355.289 98.4366 361.271C102.07 368.009 103.576 375.611 103.397 384.189C102.935 406.283 80.936 438.463 53.3498 436.46C51.3729 436.318 50.4107 437.216 49.2917 438.929C34.9913 460.739 27.994 482.994 30.2394 505.837C30.3812 507.296 30.9481 508.688 30.217 510.39L61.5481 501.994C60.8692 501.188 60.7499 500.085 60.7126 498.922C60.1979 482.1 64.6215 465.391 73.3047 448.736C74.8787 445.713 76.6839 444.342 79.7052 443.849C95.7064 441.244 107.642 430.604 115.445 414.803C125.098 395.257 123.061 378.781 112.819 365.345C107.381 358.211 106.441 349.569 111.417 339.204C116.161 329.31 123.904 324.233 133.14 322.159C141.241 320.344 147.664 315.643 151.983 307.16C156.041 299.187 155.168 292.581 151.931 286.601C149.887 282.834 147.738 279.125 148.26 273.867C150.14 277.539 152.154 281.022 154.907 283.912C160.047 289.313 161.061 296.413 157.369 305.269C153.952 313.456 148.059 318.44 140.495 321.3C135.154 323.326 130.394 326.631 126.657 331.763C118.302 343.211 118.69 357.728 127.507 365.099C139.249 374.93 144.232 388.825 139.122 407.363C135.146 421.776 128.104 435.226 113.237 442.336C110.328 443.726 107.351 444.886 104.382 445.867C101.808 446.719 100.548 448.269 99.5482 450.999C94.2219 465.534 92.9388 479.565 93.6251 493.399L126.448 484.605C125.225 483.805 125.008 482.342 124.919 480.807C124.329 471.146 125.15 461.246 127.373 451.07C128.089 447.798 129.551 445.731 132.692 444.272C143.993 439.028 151.938 429.913 157.16 418.17C166.694 396.733 161.994 374.71 145.955 365.383C142.375 363.3 138.988 361.074 136.705 357.447C129.447 345.922 136.832 326.875 151.364 319.499C155.288 317.506 158.861 314.789 161.695 310.918C169.446 300.311 169.327 288.633 161.315 282.311C158.324 279.955 155.377 277.595 154.049 273.566C156.869 275.922 159.957 277.796 163.292 279.342C169.625 282.277 172.505 287.997 171.707 296.093C170.871 304.546 166.224 311.334 159.04 316.702C154.437 320.135 150.513 324.266 148.163 329.705C142.531 342.748 146.619 355.416 157.921 359.475C163.15 361.354 167.999 363.652 172.266 367.156C189.073 380.987 187.775 420.712 158.271 439.062C156.101 440.416 155.564 441.88 155.362 444.064C154.325 455.497 155.511 466.079 158.54 475.982L192.855 466.788C187.156 457.214 184.657 445.918 183.851 433.698C183.694 431.37 184.522 429.627 186.484 427.982C189.975 425.048 193.385 421.973 195.928 418.033C205.857 402.666 207.737 387.812 202.747 374.081C197.98 360.976 187.767 354.596 174.056 353.005C159.711 351.337 153.937 334.527 162.568 320.233C165.209 315.859 168.678 312.683 171.945 309.114C183.254 296.743 181.971 279.81 169.454 275.807C167.507 275.187 165.53 274.643 163.613 273.96C161.136 273.08 159.077 271.64 157.622 269.359C161.912 271.058 166.626 271.308 171.296 271.786C177.115 272.38 181.031 275.592 182.919 281.316C185.552 289.334 183.806 297.274 177.339 305.283C171.266 312.8 167.932 320.649 169.566 329.081C171.624 339.754 178.569 344.107 188.931 343.708C210.684 342.882 224.44 354.311 226.133 375.565C226.767 383.454 226.901 391.693 221.836 400.06C218.942 404.842 216.047 409.694 211.945 413.641C210.46 415.074 209.833 416.353 210.266 418.26C213.556 432.817 220.404 444.461 230.751 453.291C231.661 454.074 232.877 454.551 233.138 456.009L293.562 439.819C293.353 437.929 292.219 437.531 290.451 437.449C285.826 437.237 281.052 437.235 276.77 436.135C257.807 431.274 244.223 419.845 236.957 400.887C236.151 398.795 236.204 397.144 237.897 394.761C244.044 386.112 247.155 377.158 247.49 367.387C248.289 343.798 230.534 327.234 205.656 332.271C201.74 333.066 198.054 333.405 194.444 332.867C180.33 330.759 175.906 312.684 185.902 298.094C191.005 290.652 192.765 283.263 190.334 276.11C187.835 268.752 182.314 265.854 174.459 266.445C172.505 266.591 170.535 266.779 168.618 266.775C166.074 266.77 163.56 266.602 161.643 264.931C166.85 265.258 172.176 263.568 177.473 262.396C180.226 261.789 182.792 262.136 185.149 263.072C194.608 266.844 197.256 278.123 191.624 290.162C187.036 299.967 186.827 308.638 192.191 315.538C197.473 322.329 205.358 323.466 214.414 320.106C225.85 315.853 236.338 314.849 246.17 318.513C263.409 324.933 271.391 347.103 261.992 367.5C258.203 375.726 259.478 379.568 263.506 384.101C281.089 403.876 304.498 409.183 333.912 400.398C345.952 396.802 353.404 381.172 351.48 371.668C350.816 368.364 349.801 366.791 345.534 368.143C319.522 376.356 298.851 370.848 282.439 354.796C280.134 352.542 279.082 350.176 280.91 345.904C284.066 338.543 284.715 331.39 283.215 324.605C277.516 298.759 252.578 290.287 226.357 305.318C212.422 313.306 198.412 307.109 196.973 292.588C196.51 287.895 197.674 283.33 199.151 278.511C203.567 264.111 195.235 253.036 181.867 255.575C178.816 256.154 175.683 257.642 172.617 258.903C169.685 260.106 166.947 260.476 164.254 259.662C168.924 258.241 173.198 255.42 177.585 253.087C189.073 246.983 200.113 251.273 202.635 262.609C203.455 266.295 202.635 270.275 202.135 274.222C200.904 284.07 203.821 291.008 211.557 294.455C218.972 297.756 226.961 296.078 234.928 290.091C245.901 281.848 256.942 277.963 268.624 278.175C282.544 278.429 301.663 293.33 298.097 313.029C297.545 316.08 297.269 319.11 296.613 322.158C296.158 324.279 296.583 325.423 298.112 326.411C314.83 337.147 334.21 339.465 356.522 332.56C358.499 331.945 359.573 332.144 359.924 334.049V298.539C358.566 299.745 357.082 300.057 355.582 300.397C340.26 303.885 326.452 302.359 313.696 297.154C311.353 296.199 310.287 294.779 310.652 291.686C311.577 283.865 310.667 276.814 306.825 271.12C292.793 250.331 266.102 251.099 242.97 272.853C235.077 280.271 226.648 283.463 218.3 280.837C209.699 278.131 205.999 271.071 206.521 260.819C207.148 248.485 199.74 240.596 188.961 242.141C183.724 242.888 179.271 246.274 174.78 249.739C171.624 252.175 168.379 254.357 164.694 254.626C168.723 251.795 172.452 248.657 175.906 244.991C182.344 238.156 189.341 235.686 196.57 237.424C203.5 239.087 207.066 244.13 207.842 251.796C208.371 257.05 210.259 261.431 213.645 264.599C221.754 272.176 236.36 269.042 246.118 257.62C250.541 252.451 255.122 247.711 260.47 243.592C283.163 226.11 319.656 231.786 319.552 264.282C319.544 266.554 320.499 267.217 322.252 267.488C327.429 268.293 332.666 268.866 338.112 268.804C345.28 268.721 352.636 266.557 359.909 265.341V231.375C350.271 235.147 340.879 236.065 331.487 236.551C327.608 236.749 325.743 235.327 324.811 231.462C320.977 215.599 309.6 209.168 294.039 209.833C275.852 210.614 260.828 221.179 249.504 239.575C240.612 254.008 222.94 258.874 214.003 249.404C211.586 246.84 210.072 243.695 209.035 240.074C204.567 224.474 187.655 223.949 175.295 238.979C174.012 240.535 172.833 242.194 171.498 243.694C169.364 246.096 167.111 248.351 164.172 249.424C167.902 245.484 170.647 240.958 173.437 236.435C180.815 224.5 193.556 220.067 202.545 226.104C205.417 228.036 206.767 231.264 208.573 234.123C212.504 240.349 218.054 243.671 226.416 242.141C237.628 240.086 244.969 232.16 250.422 221.381C252.026 218.211 253.436 214.977 255.562 212.006C269.139 193.03 287.601 184.076 306.109 187.315C311.48 188.253 316.344 189.776 319.559 194.148C321.76 197.133 324.222 199.939 325.408 203.72C326.355 206.732 328.384 207.13 331.443 206.503C341.043 204.525 350.54 201.464 359.917 196.635L359.976 196.581ZM158.779 242.015C160.532 236.443 159.808 231.349 160.144 226.048C161.121 210.795 176.921 198.301 189.811 202.451C195.481 204.275 201.389 204.783 207.961 201.216C220.165 194.588 226.364 182.282 224.775 167.948C223.582 157.143 225.708 146.307 231.541 135.202C241.246 116.715 267.08 96.7854 287.661 108.03C289.332 108.941 290.362 108.163 291.854 106.822C319.559 81.9285 332.86 53.0366 332.017 19.5511C331.689 6.56203 316.478 1.92226 306.281 7.51092C303.991 8.76529 302.931 9.95231 303.118 12.8512C304.811 39.7402 294.472 64.4111 274.547 87.258C271.876 90.3203 269.541 91.579 266.252 90.6695C251.645 86.6244 232.727 99.5365 224.835 109.849C211.691 127.035 208.729 143.878 213.742 160.783C216.331 169.508 214.071 178.667 206.887 187.146C199.919 195.366 191.863 198.559 183.254 197.291C175.988 196.212 168.976 198.029 162.441 204.86C155.735 211.867 153.848 219.398 155.131 227.345C155.504 229.646 155.698 232.049 155.705 234.478C155.713 236.414 156.034 238.443 154.266 240.638C154.609 234.919 152.214 230.659 150.931 225.83C150.312 223.495 150.088 221.038 150.662 218.275C153.318 205.498 164.09 195.571 175.757 195.093C180.412 194.903 185.134 193.924 189.662 190.68C201.598 182.14 206.626 166.473 200.956 155.154C198.614 150.471 196.965 145.463 196.063 139.946C192.012 115.286 215.861 80.1329 240.59 79.4431C242.641 79.3875 244.723 79.2158 246.767 79.2162C248.341 79.219 249.519 78.7642 250.713 77.024C265.215 55.8619 272.555 34.0016 271.235 11.3434C271.056 8.30351 271.548 6.94417 274.853 6.08184C301.581 -0.925606 328.309 -8.05657 355.038 -15.2802C358.275 -16.1477 359.29 -15.3928 359.275 -11.9768C359.171 4.77184 359.484 21.4162 359.297 38.1868C359.223 44.8842 359.238 51.3338 357.238 58.7476C349.525 87.3466 333.449 109.394 308.772 125.941C306.176 127.679 304.267 128.075 302.118 126.551C297.165 123.038 291.428 121.101 284.543 121.772C257.859 124.375 234.734 150.975 234.443 179.175C234.339 189.3 229.811 198.256 220.777 204.892C211.937 211.383 203.716 211.517 196.488 207.239C189.409 203.045 181.203 203.963 173.295 210.204C166.701 215.406 164.284 222.191 163.15 229.465C162.486 233.704 161.666 237.891 158.771 241.994L158.779 242.015Z" fill="#0E0E0E"/>
</g>
</g>
</g>
<g opacity="0.6">
<path fill-rule="evenodd" clip-rule="evenodd" d="M718.637 44.8922C800.86 66.9239 867.516 153.847 867.516 239.04V487.398L569.758 407.614V159.256C569.758 74.063 636.413 22.8605 718.637 44.8922Z" fill="#7266F8"/>
<path fill-rule="evenodd" clip-rule="evenodd" d="M718.628 80.4326C786.372 98.5845 841.289 170.168 841.289 240.319V444.826L595.967 379.092V174.585C595.967 104.434 650.884 62.2807 718.628 80.4326Z" fill="#0E0E0E"/>
<mask id="mask3_3114_2540" style="mask-type:alpha" maskUnits="userSpaceOnUse" x="595" y="76" width="247" height="369">
<path fill-rule="evenodd" clip-rule="evenodd" d="M718.64 80.4376C786.384 98.5895 841.301 170.173 841.301 240.324V444.831L595.978 379.097V174.59C595.978 104.439 650.896 62.2857 718.64 80.4376Z" fill="#646464"/>
</mask>
<g mask="url(#mask3_3114_2540)">
<path fill-rule="evenodd" clip-rule="evenodd" d="M677.437 69.3973C745.18 87.5492 800.098 159.133 800.098 229.284V433.791L554.775 368.057V163.55C554.775 93.399 609.693 51.2454 677.437 69.3973Z" fill="black"/>
</g>
<mask id="mask4_3114_2540" style="mask-type:alpha" maskUnits="userSpaceOnUse" x="573" y="70" width="247" height="370">
<path fill-rule="evenodd" clip-rule="evenodd" d="M696.89 74.3134C628.987 56.119 573.941 98.4037 573.941 168.759V373.861L819.838 439.749V234.647C819.838 164.292 764.792 92.5079 696.89 74.3134Z" fill="#646464"/>
</mask>
<g mask="url(#mask4_3114_2540)">
<path fill-rule="evenodd" clip-rule="evenodd" d="M738.183 85.3779C670.28 67.1835 615.234 109.468 615.234 179.823V384.925L861.131 450.813V245.711C861.131 175.356 806.085 103.572 738.183 85.3779Z" fill="#39A27A"/>
<mask id="mask5_3114_2540" style="mask-type:alpha" maskUnits="userSpaceOnUse" x="614" y="81" width="247" height="370">
<path fill-rule="evenodd" clip-rule="evenodd" d="M737.933 85.3405C670.03 67.1461 614.984 109.431 614.984 179.786V384.888L860.881 450.776V245.674C860.881 175.319 805.835 103.535 737.933 85.3405Z" fill="#E8EDD9"/>
</mask>
<g mask="url(#mask5_3114_2540)">
<path d="M929.734 314.709V278.426C919.924 280.962 909.399 280.165 898.522 277.96C895.449 277.338 893.614 275.904 891.98 272.595C883.558 255.493 870.227 246.433 854.405 243.475C835.495 239.944 823.276 247.933 816.748 264.255C815.115 268.333 812.534 271.316 809.065 273.32C798.621 279.33 783.202 272.249 776.048 258.336C767.917 242.502 752.184 236.225 742.956 245.116C740.853 247.146 739.741 250.036 738.003 252.38C736.451 254.481 734.87 256.543 731.99 257.076C734.833 253.623 735.855 248.979 737.608 244.833C739.547 240.25 742.695 237.148 747.842 236.513C756.951 235.387 764.731 239.448 771.497 248.726C777.115 256.43 783.664 262.083 792.332 262.646C803.477 263.37 809.453 257.599 811.631 247.059C814.98 230.873 824.089 221.001 840.224 219.766C851.742 218.884 863.476 221.828 874.226 231.941C878.075 235.559 881.551 239.717 884.222 244.347C885.774 247.032 887.333 247.789 889.854 247.87C903.587 248.308 915.71 245.149 926.31 238.417C927.272 237.81 927.996 236.468 929.719 237.509C929.734 193.056 929.697 148.589 929.809 104.162C929.809 101.344 929.204 100.665 926.549 99.9532C876.882 86.7452 827.214 73.4061 777.547 60.0978C778.808 61.2307 780.21 61.2746 781.553 61.6421C789.751 63.8851 797.957 66.1688 806.155 68.2497C808.759 68.9087 809.826 70.1054 809.535 72.7062C809.289 74.9407 809.065 77.1889 808.975 79.473C808.431 93.2841 803.045 104.007 795.973 113.653C794.832 115.215 793.496 115.822 791.087 114.837C776.458 108.864 765.201 112.301 756.212 121.163C744.769 132.448 744.583 154.869 755.601 174.697C757.376 177.89 758.793 181.11 759.539 184.413C763.709 202.761 750.192 212.973 735.817 207.461C719.637 201.257 708.925 213.795 715.519 230.94C716.675 233.951 717.809 236.973 718.764 240.007C719.555 242.52 720.047 245.068 719.421 247.455C717.712 242.103 715.184 237.118 712.297 232.168C707.709 224.316 707.306 217.044 710.655 210.577C713.938 204.239 719.794 202.28 727.149 203.517C739.1 205.531 747.261 199.28 748.059 187.096C748.566 179.312 745.164 172.279 740.248 165.303C730.058 150.846 725.717 135.965 729.118 121.345C732.863 105.281 745.149 93.4268 764.336 98.3054C767.872 99.2065 769.274 98.27 770.483 95.5059C775.175 84.7747 777.346 72.9587 776.801 59.9057C765.858 56.9734 754.922 54.0431 743.978 51.1108C744.202 51.7574 744.605 52.4443 744.635 53.0467C745.082 62.9782 744.463 72.5081 741.904 81.3485C741.166 83.9065 739.943 85.1149 737.041 84.9549C730.387 84.5846 724.247 85.6028 719.398 89.5297C701.152 104.326 703.188 135.757 723.971 158.17C726.873 161.302 729.26 164.659 731.162 168.334C738.637 182.773 733.915 199.679 717.347 199.162C703.323 198.723 696.355 212.226 703.733 226.562C705.314 229.633 707.463 232.363 709.522 235.146C711.894 238.344 713.624 241.718 714.408 245.433C711.782 241.78 709.238 238.165 705.986 235.078C698.996 228.435 695.273 220.837 696.31 212.26C697.295 204.125 701.928 199.932 709.32 198.377C716.213 196.928 720.793 192.597 721.897 184.78C723.397 174.135 718.749 163.996 708.485 155.124C699.19 147.091 692.14 137.583 687.993 126.004C681.003 106.476 685.434 78.2984 710.081 76.5886C712.133 76.4435 712.535 75.2469 712.759 73.3306C713.96 63.2773 712.468 52.7572 710.402 42.114L676.087 32.9193C681.018 44.3918 683.092 55.863 684.099 67.3339C684.352 70.2427 683.368 71.8856 680.906 72.7776C677.101 74.1513 673.282 75.6058 670.656 78.8315C653.551 99.8154 665.173 136.178 693.282 154C702.181 159.642 707.686 167.787 708.955 177.93C710.253 188.352 706.314 195.009 698.019 198.066C684.658 202.978 684.897 222.534 698.518 234.081C700.465 235.73 702.472 237.317 704.345 239.069C706.97 241.533 709.328 244.249 710.738 247.637C706.888 244.19 703.121 240.602 698.735 238.423C682.413 230.313 677.489 207.835 690.551 199.323C695.132 196.336 697.758 191.481 697.728 184.873C697.668 172.76 689.447 160.7 677.594 155.346C657.154 146.118 643.167 127.549 640.37 105.848C638.654 92.5352 641.13 81.7507 650.977 75.473C651.91 74.8815 652.686 74.0163 653.7 73.578C655.655 72.743 655.916 71.1996 655.379 68.7398C652.238 54.389 646.36 40.8254 637.453 28.0096C636.028 25.9604 633.865 24.1688 633.559 21.5317L572.389 5.14118C572.844 8.20427 574.724 9.64205 577.372 11.1082C602.243 24.8666 618.856 45.9846 628.889 72.897C630.09 76.1137 629.963 78.3107 627.748 80.2027C619.795 86.9881 618.005 97.3775 619.669 109.341C622.869 132.292 641.183 152.993 663.361 159.129C674.021 162.078 683.547 172.149 685.882 183.513C687.515 191.431 685.986 198.069 681.339 202.968C672.357 212.435 675.326 228.075 687.985 237.851C691.282 240.394 694.93 241.588 698.444 243.286C701.353 244.691 704.121 246.351 706.277 249.445C700.712 246.039 694.99 245.054 689.321 243.273C687.075 242.563 684.957 241.177 682.957 239.53C672.708 231.071 669.298 217.243 675.147 207.802C682.95 195.21 675.878 176.71 660.235 168.805C656.55 166.946 652.835 166.166 649.112 165.678C631.216 163.323 611.112 147.846 603.742 125.932C600.967 117.669 597.998 109.216 600.751 101.624C602.071 97.9636 603.004 93.9137 605.532 91.241C608.352 88.268 607.218 85.1697 604.995 81.2469C588.099 51.407 565.153 32.3283 535.127 25.2479C522.647 22.3053 513.561 31.9209 516.284 45.3569C517.03 49.0538 518.425 50.3694 521.789 51.0779C547.988 56.6542 568.748 73.2483 585.354 98.1391C587.084 100.733 587.495 102.75 586.294 104.976C577.446 121.302 588.606 149.033 605.42 162.347C617.088 171.587 629.016 174.552 641.332 174.617C650.418 174.666 658.288 179.438 664.509 188.455C670.41 197.006 671.178 205.372 668.463 213.012C665.927 220.153 665.591 227.427 670.522 235.557C675.751 244.184 682.771 248.334 691.32 248.703C695.572 248.885 699.958 250.083 704.091 253.082C702.36 253.151 700.652 252.925 698.936 252.612C694.789 251.848 691.171 253.233 687.127 252.821C673.707 251.448 661.898 235.153 664.435 221.613C665.375 216.6 665.584 211.399 663.301 205.809C657.654 191.952 643.726 183.133 631.679 186.435C612.888 191.582 590.434 180.795 577.058 159.881C568.763 146.92 566.645 134.989 570.009 123.061C570.606 120.943 570.054 119.63 568.442 117.793C556.365 104.004 542.602 93.6546 526.929 87.224C520.939 84.7621 514.866 81.9539 508.973 83.0999V109.346C510.517 109.752 511.032 111.62 510.92 112.207C510.495 114.394 511.584 114.701 513.21 115.168C526.817 119.084 539.252 126.8 551.113 136.664C555.291 140.138 557.253 143.319 556.745 148.424C555.507 160.822 561.102 172.419 570.106 182.721C586.532 201.511 605.965 207.212 624.383 199.264C632.455 195.783 640.772 197.502 649.269 204.789C657.602 211.932 660.854 220.577 660.436 230.045C659.69 247.16 674.752 261.547 689.723 257.94C691.618 257.483 693.528 257.045 695.497 256.808C697.728 256.534 700.055 256.671 702.539 257.846C699.033 258.674 695.676 259.566 692.715 261.327C686.061 265.288 678.78 264.371 670.865 258.383C663.644 252.92 660.227 245.914 659.325 237.706C658.75 232.472 657.079 227.316 653.693 222.595C644.644 209.957 630.299 206.036 620.198 213.466C611.075 220.176 600.251 222.193 587.539 217.884C571.434 212.426 558.864 201.439 551.576 184.232C549.368 179.017 548.241 173.388 548.353 168.069C548.391 166.28 547.824 165.178 546.168 164.04C536.888 157.678 527.406 152.243 517.298 149.473C515.195 148.893 512.733 147.655 511.069 148.128C508.913 148.731 510.719 151.986 510.428 153.977C510.189 155.619 509.749 155.015 508.966 154.126V157.214C510.48 157.581 510.264 158.681 510.42 159.734C511.338 165.847 510.674 171.536 510.473 177.349C510.39 179.805 511.084 181.063 513.882 181.489C521.998 182.73 529.95 186.435 537.895 190.146C541.617 191.885 543.668 194.38 544.4 198.574C547.645 217.268 566.309 233.996 581.251 238.316C596.857 242.829 609.113 239.675 618.341 229.225C627.054 219.363 643.905 223.292 653.551 237.232C656.811 241.942 658.042 246.903 659.563 251.927C664.077 266.839 680.041 275.47 690.484 268.712C692.342 267.504 694.028 266.041 695.952 264.943C698.265 263.617 700.667 262.354 703.912 263C699.898 265.128 697.094 268.561 694.095 271.841C686.911 279.689 673.961 277.122 665.128 266.503C662.271 263.067 660.742 259.175 658.907 255.341C654.461 246.052 648.031 239.558 638.639 237.474C629.926 235.541 623.488 238.146 619.445 244.875C613.91 254.092 606.226 260.123 595.208 261.741C578.222 264.229 550.643 250.857 543.296 224.494C542.706 222.383 541.751 221.302 539.931 220.729C531.867 218.198 523.796 215.649 515.844 215.541C513.509 215.509 511.427 216.411 508.958 215.88V250.618C519.178 248.424 529.831 248.129 541.155 250.53C544.079 251.152 545.974 252.362 547.458 255.577C556.469 275.129 578.923 287.167 595.298 284.838C608.33 282.988 616.767 275.422 621.25 262.883C624.443 253.95 631.224 249.907 641.265 251.803C650.515 253.556 657.288 259.848 662.242 269.273C666.18 276.782 672.111 282.092 679.615 284.226C687.567 286.496 693.312 284.021 697.004 277.785C697.989 276.119 698.862 274.345 699.943 272.767C701.204 270.928 702.636 269.235 704.911 268.641C703.337 271.793 701.584 274.697 700.615 278.181C698.489 285.848 693.767 290.21 685.486 289.883C677.46 289.562 671.26 284.419 665.792 277.272C662.152 272.514 658.057 268.291 652.775 266.057C639.974 260.643 629.396 265.621 627.017 278.894C623.033 301.078 607.457 310.113 590.747 307.712C582.332 306.499 573.806 304.562 566.264 297.238C561.93 293.027 558.044 288.358 554.731 283.286C553.508 281.414 552.449 280.667 550.651 280.634C538.409 280.434 527.168 282.624 517.582 288.655C514.061 290.877 509.443 292.187 509.891 298.351C509.577 297.619 509.264 296.894 508.958 296.164V354.833C511.129 354.612 513.822 356.877 514.836 352.726C520.916 327.815 537.059 314.547 561.311 311.002C563.929 310.616 565.809 311.42 567.913 314.091C576.991 325.61 588.091 330.769 600.064 331.615C620.057 333.019 633.611 319.012 634.029 296.907C634.223 286.599 638.519 279.946 647.62 278.054C656.333 276.235 664.323 280.854 671.566 288.708C675.9 293.405 680.675 296.846 686.352 297.827C696.87 299.641 702.532 295.199 704.345 283.488C705.001 279.256 706.015 275.336 709.007 272.664C707.731 277.857 707.59 283.408 707.343 288.962C706.717 303.399 690.081 307.75 677.997 296.862C670.052 289.707 661.861 286.532 653.805 289.824C645.457 293.238 642.57 300.871 643.719 311.183C644.219 315.686 644.39 320.078 644.114 324.381C642.331 352.227 608.218 367.403 581.952 340.024C580.512 338.519 579.416 338.418 577.961 338.985C551.598 349.267 538.924 370.659 539.7 403.204C540.065 418.394 555.134 429.927 564.929 429.672C567.055 429.617 567.943 429.067 567.741 426.481C565.578 398.497 575.917 379.39 595.596 366.931C597.804 365.531 599.818 365.469 602.601 367.658C612.149 375.18 621.817 376.914 631.492 375.646C650.612 373.158 661.704 352.871 655.99 330.536C654.931 326.392 654.051 322.335 653.984 318.287C653.819 307.837 660.966 299.848 670.604 300.393C676.005 300.697 681.249 302.674 686.628 306.222C699.697 314.827 712.341 309.608 712.931 295.7C713.05 292.822 712.319 289.677 712.013 286.662C711.663 283.241 711.551 279.899 713.028 277.13C713.46 281.553 714.363 285.918 715.803 290.271C718.69 298.988 717.712 306.021 712.2 310.874C706.799 315.634 699.966 315.378 692.178 311.546C681.16 306.131 672.103 308.444 667.426 317.775C664.248 324.11 664.964 331.528 668.194 339.24C671.827 347.926 673.334 356.335 673.155 364.817C672.693 386.663 650.694 407.053 623.108 390.267C621.131 389.066 620.168 389.449 619.049 390.561C604.749 404.709 597.752 423.213 599.997 447.259C600.139 448.795 600.706 450.491 599.975 451.8L631.306 460.195C630.627 459.025 630.508 457.859 630.47 456.675C629.956 439.577 634.379 425.239 643.062 413.238C644.636 411.058 646.442 410.654 649.463 411.78C665.464 417.75 677.4 413.507 685.203 401.888C694.856 387.514 692.819 369.947 682.577 351.022C677.139 340.973 676.199 331.828 681.174 324.13C685.919 316.778 693.662 315.85 702.897 318.726C710.999 321.252 717.421 319.993 721.741 313.825C725.799 308.026 724.926 300.953 721.688 293.238C719.644 288.375 717.496 283.515 718.018 278.537C719.898 283.217 721.912 287.778 724.665 292.144C729.805 300.299 730.819 307.943 727.127 314.82C723.71 321.176 717.817 323.002 710.253 321.808C704.911 320.972 700.152 321.727 696.415 324.855C688.06 331.826 688.448 346.551 697.265 358.648C709.007 374.771 713.99 391.337 708.88 407.136C704.904 419.417 697.862 429.095 682.995 428.237C680.085 428.068 677.109 427.633 674.14 427.023C671.566 426.495 670.306 427.369 669.306 429.564C663.98 441.245 662.697 454.588 663.383 468.79L696.206 477.585C694.982 476.13 694.766 474.552 694.677 472.968C694.087 462.991 694.908 453.531 697.131 444.546C697.847 441.658 699.309 440.375 702.45 440.599C713.751 441.411 721.696 436.554 726.918 427.609C736.451 411.281 731.752 386.74 715.713 368.817C712.133 364.816 708.746 360.775 706.463 355.925C699.205 340.509 706.59 325.42 721.122 325.832C725.045 325.942 728.619 325.139 731.453 322.788C739.204 316.335 739.085 304.592 731.073 293.977C728.081 290.018 725.135 286.079 723.807 281.338C726.627 285.205 729.715 288.734 733.05 292.067C739.383 298.396 742.263 305.66 741.464 313.327C740.629 321.333 735.981 325.63 728.798 327.148C724.195 328.115 720.271 330.144 717.921 334.323C712.289 344.347 716.377 359.207 727.679 369.321C732.908 374.003 737.757 378.9 742.024 384.69C758.831 407.528 757.533 446.558 728.029 449.097C725.858 449.287 725.321 450.463 725.12 452.54C724.083 463.417 725.269 474.635 728.298 486.161L762.613 495.356C756.913 482.728 754.414 470.093 753.609 457.441C753.452 455.029 754.28 453.73 756.242 453.136C759.733 452.072 763.142 450.824 765.686 448.248C775.615 438.202 777.495 424.355 772.504 407.95C767.738 392.291 757.525 380.437 743.814 371.499C729.469 362.143 723.695 342.239 732.326 332.571C734.967 329.612 738.436 328.295 741.703 326.476C753.012 320.166 751.729 302.545 739.211 291.835C737.264 290.17 735.288 288.568 733.37 286.857C730.894 284.65 728.835 282.107 727.38 279.046C731.67 283.044 736.384 285.82 741.054 288.8C746.873 292.513 750.789 297.824 752.676 304.559C755.31 313.988 753.564 320.993 747.096 325.536C741.024 329.799 737.69 335.861 739.323 345.168C741.382 356.944 748.327 365.019 758.689 370.173C780.442 381.004 794.197 399.805 795.891 421.966C796.525 430.195 796.659 438.507 791.594 444.159C788.7 447.39 785.805 450.69 781.702 452.439C780.218 453.076 779.591 454.02 780.024 456.158C783.314 472.479 790.162 487.792 800.508 502.167C801.418 503.438 802.634 504.566 802.896 506.165L863.32 522.355C863.111 520.354 861.977 519.348 860.209 518.318C855.584 515.628 850.81 513.067 846.528 509.673C827.565 494.649 813.981 475.941 806.715 453.089C805.909 450.565 805.961 448.943 807.655 447.467C813.802 442.112 816.912 434.825 817.248 425.234C818.046 402.073 800.292 375.994 775.414 367.7C771.497 366.395 767.812 364.759 764.202 362.287C750.088 352.615 745.664 332.169 755.66 322.936C760.763 318.228 762.523 311.783 760.091 303.327C757.592 294.629 752.072 288.773 744.217 285.155C742.263 284.253 740.293 283.386 738.376 282.355C735.832 280.986 733.318 279.471 731.401 276.773C736.608 279.89 741.934 281.054 747.231 282.721C749.983 283.589 752.55 285.311 754.907 287.51C764.366 296.351 767.014 309.05 761.382 318.07C756.794 325.417 756.585 333.976 761.949 343.751C767.23 353.372 775.115 358.734 784.172 360.227C795.607 362.102 806.096 366.719 815.928 375.653C833.167 391.311 841.149 417.759 831.75 433.119C827.96 439.313 829.236 443.839 833.264 450.531C850.847 479.728 874.256 497.58 903.67 504.558C915.71 507.414 923.162 495.778 921.237 485.242C920.573 481.583 919.559 479.466 915.292 478.531C889.28 472.804 868.609 456.219 852.197 431.372C849.892 427.883 848.84 424.953 850.668 421.66C853.823 415.99 854.472 409.186 852.973 401.597C847.274 372.696 822.336 350.861 796.115 351.84C782.18 352.36 768.17 338.655 766.731 323.363C766.268 318.422 767.432 314.48 768.909 310.453C773.325 298.42 764.992 282.879 751.625 278.255C748.573 277.198 745.44 277.007 742.374 276.625C739.443 276.257 736.705 275.16 734.012 272.903C738.682 273.984 742.956 273.454 747.343 273.472C758.831 273.524 769.871 283.731 772.393 296.418C773.213 300.544 772.393 304.083 771.893 307.763C770.662 316.951 773.579 325.453 781.314 333.045C788.729 340.32 796.719 342.924 804.686 341.206C815.659 338.843 826.7 340.875 838.382 347.348C852.302 355.061 871.421 380.209 867.855 397.996C867.303 400.751 867.027 403.634 866.371 406.329C865.916 408.207 866.341 409.579 867.87 411.386C884.587 431.081 903.968 443.785 926.28 448.837C928.257 449.282 929.331 450.056 929.682 452.149V416.639C928.324 417.117 926.84 416.634 925.34 416.171C910.018 411.448 896.21 402.522 883.454 390.481C881.111 388.271 880.044 386.279 880.41 383.382C881.335 376.056 880.425 368.518 876.583 360.764C862.551 332.456 835.86 318.92 812.728 328.277C804.835 331.466 796.406 330.141 788.058 323.041C779.457 315.726 775.757 306.683 776.279 296.711C776.906 284.712 769.498 272.854 758.719 268.623C753.482 266.563 749.029 267.562 744.538 268.621C741.382 269.366 738.137 269.808 734.452 268.103C738.48 267.43 742.21 266.291 745.664 264.476C752.102 261.091 759.099 262.371 766.328 267.983C773.258 273.36 776.824 280.313 777.599 288.395C778.129 293.933 780.016 299.325 783.403 304.309C791.512 316.231 806.118 320.925 815.876 314.731C820.299 311.933 824.879 309.648 830.228 308.395C852.921 303.073 889.414 328.306 889.31 360.747C889.302 363.015 890.257 364.189 892.01 365.4C897.187 368.979 902.424 372.359 907.869 375.215C915.038 378.973 922.394 380.751 929.667 383.433V349.467C920.029 348.074 910.637 343.959 901.245 339.412C897.366 337.531 895.501 335.11 894.569 330.745C890.734 312.827 879.358 300.299 863.797 292.625C845.61 283.661 830.586 286.173 819.262 298.501C810.37 308.169 792.698 303.565 783.761 289.305C781.344 285.446 779.83 281.489 778.793 277.313C774.325 259.318 757.413 249.73 745.052 258.137C743.769 259.005 742.591 260.032 741.255 260.817C739.122 262.075 736.869 263.123 733.93 262.621C737.66 260.679 740.405 257.625 743.195 254.597C750.573 246.616 763.314 249.011 772.303 259.865C775.175 263.336 776.525 267.288 778.33 271.114C782.262 279.447 787.812 285.743 796.174 288.694C807.386 292.648 814.727 288.655 820.18 280.799C821.784 278.488 823.194 276.01 825.32 274.179C838.896 262.478 857.359 263.418 875.867 276.576C881.238 280.393 886.102 284.521 889.317 290.617C891.518 294.78 893.979 298.906 895.165 303.323C896.113 306.842 898.142 308.328 901.2 309.34C910.801 312.507 920.297 314.534 929.674 314.731L929.734 314.709ZM728.537 252.322C730.29 247.689 729.566 242.207 729.902 237.086C730.879 222.357 746.679 218.33 759.569 229.388C765.239 234.25 771.147 237.925 777.719 237.879C789.923 237.791 796.122 228.807 794.533 213.622C793.34 202.178 795.466 192.481 801.299 184.502C811.004 171.216 836.837 165.13 857.419 187.404C859.09 189.211 860.119 188.985 861.611 188.443C889.317 178.397 902.618 156.633 901.775 122.696C901.447 109.531 886.236 96.7398 876.039 96.8636C873.748 96.8907 872.689 97.5101 872.876 100.509C874.569 128.305 864.23 147.435 844.305 159.605C841.634 161.236 839.299 161.243 836.009 158.571C821.403 146.698 802.485 149.472 794.593 155.556C781.449 165.697 778.487 180.953 783.5 200.545C786.089 210.656 783.828 218.604 776.645 223.233C769.677 227.719 761.621 226.595 753.012 220.714C745.746 215.741 738.734 213.801 732.199 217.129C725.493 220.543 723.606 227.062 724.889 235.697C725.262 238.197 725.456 240.704 725.463 243.138C725.471 245.078 725.791 247.279 724.023 248.526C724.367 242.991 721.972 237.447 720.689 231.931C720.07 229.264 719.846 226.688 720.42 224.232C723.076 212.878 733.848 208.724 745.515 214.498C750.17 216.803 754.892 218.354 759.42 217.537C771.356 215.393 776.383 202.421 770.714 188.064C768.372 182.125 766.723 176.233 765.82 170.233C761.77 143.403 785.619 121.03 810.348 133.592C812.399 134.636 814.481 135.58 816.525 136.675C818.099 137.522 819.277 137.699 820.471 136.598C834.973 123.207 842.313 105.281 840.993 81.915C840.814 78.7792 841.306 77.6837 844.611 78.5923C871.339 85.9086 898.067 93.1013 924.796 100.201C928.033 101.069 929.048 102.367 929.033 105.775C928.928 122.468 929.242 139.28 929.055 155.951C928.981 162.608 928.995 169.066 926.996 175.408C919.283 199.874 903.207 213.306 878.53 216.629C875.934 216.975 874.024 216.348 871.876 213.673C866.923 207.505 861.186 202.494 854.301 199.476C827.617 187.779 804.492 201.986 804.201 230.03C804.097 240.099 799.568 246.629 790.535 248.423C781.695 250.177 773.474 245.905 766.246 237.754C759.166 229.766 750.961 226.286 743.053 228.29C736.459 229.958 734.042 235.447 732.908 242.114C732.244 245.997 731.423 249.745 728.529 252.297L728.537 252.322Z" fill="#0E0E0E"/>
</g>
</g>
</g>
</svg>
