<svg width="245" height="568" viewBox="0 0 245 568" fill="none" xmlns="http://www.w3.org/2000/svg">
<path d="M0.020874 171.622V541.643L198.031 485.56V134.304C198.031 79.4861 176.986 30.3608 143.72 1.26514C139.646 0.632629 135.573 0.210876 131.273 6.10352e-05C130.368 6.10352e-05 129.463 6.10352e-05 128.558 6.10352e-05C59.9897 6.10352e-05 0.020874 76.1127 0.020874 171.622Z" fill="#7266F8"/>
<path d="M0.0211639 541.544V567.442L244.988 494.591L198.49 485.327L0.0211639 541.544Z" fill="#7266F8"/>
<path d="M143.599 1.58316C176.677 30.6729 197.973 79.7881 197.973 134.595V485.569L244.418 494.844V154.199C244.418 76.4154 201.825 11.2797 143.599 1.58316Z" fill="#7266F8"/>
<path d="M0 171.622V541.643L198.01 485.56V134.304C198.01 79.486 176.965 30.3608 143.699 1.26511C139.626 0.632592 135.552 0.210838 131.253 0C130.347 0 129.442 0 128.537 0C59.9689 0 0 76.1126 0 171.622Z" fill="#1F1D37"/>
<path fill-rule="evenodd" clip-rule="evenodd" d="M98.8357 497.58C135.215 497.58 164.707 470.141 164.707 436.286C164.707 428.359 163.089 420.785 160.148 413.827C160.929 417.074 161.344 420.452 161.344 423.914C161.344 449.305 139.218 469.885 111.928 469.885C84.6384 469.885 62.5194 449.305 62.5194 423.914C62.5194 398.523 84.6384 377.943 111.928 377.943C115.39 377.943 118.767 378.271 122.024 378.905C114.813 376.379 106.997 374.998 98.8357 374.998C62.4491 374.998 32.957 402.431 32.957 436.286C32.957 470.141 62.4561 497.58 98.8357 497.58Z" fill="#1F1D37"/>
<mask id="mask0_3114_2586" style="mask-type:alpha" maskUnits="userSpaceOnUse" x="0" y="0" width="199" height="542">
<path d="M0.00134277 171.622V541.643L198.012 485.56V134.304C198.012 79.4861 176.966 30.3608 143.7 1.26514C139.627 0.632629 135.554 0.210876 131.254 6.10352e-05C130.349 6.10352e-05 129.444 6.10352e-05 128.538 6.10352e-05C59.9702 6.10352e-05 0.00134277 76.1127 0.00134277 171.622Z" fill="#686FAB"/>
</mask>
<g mask="url(#mask0_3114_2586)">
<path d="M-286.091 -19.3044L-230.643 -63.2865C-225.513 -42.8135 -214.63 -25.1115 -201.276 -8.49245C-197.502 -3.7962 -193.627 -2.2791 -187.069 -3.39326C-153.202 -9.18618 -127.117 3.47439 -108.07 27.9517C-85.3124 57.2124 -86.303 88.5692 -105.255 119.933C-109.988 127.774 -112.177 135.968 -112.054 144.55C-111.65 170.359 -86.6735 189.124 -58.843 184.947C-27.1788 180.174 -3.14255 200.469 -8.2577 227.614C-9.42883 233.806 -12.8255 239.281 -14.8123 245.206C-16.5983 250.505 -18.2975 255.809 -16.4685 261.562C-13.8004 252.335 -7.64226 244.894 -2.91473 236.758C2.30842 227.762 4.15761 218.419 0.403358 208.519C-6.23834 190.999 -19.5877 182.122 -39.9782 181.368C-56.9088 180.744 -71.5617 175.98 -80.3796 161.288C-91.7187 142.398 -88.3849 124.804 -74.2767 108.164C-52.6158 82.6019 -45.8912 54.4794 -58.8182 24.3638C-68.0452 2.86624 -83.3166 -14.3782 -108.642 -21.1843C-117.704 -23.6263 -127.25 -24.7513 -136.777 -23.8761C-142.305 -23.373 -144.894 -25.2201 -147.333 -29.5938C-160.61 -53.4218 -166.912 -78.752 -166.356 -105.714C-166.312 -108.156 -164.925 -111.067 -168.097 -112.862C-100.176 -166.775 -32.1857 -220.614 35.6067 -274.668C39.9127 -278.083 41.5053 -277.835 45.0309 -273.987C110.815 -201.905 176.799 -129.983 242.736 -58.0226C239.847 -58.8853 238.493 -61.3196 236.698 -63.2557C225.743 -75.0776 214.72 -86.8636 204.013 -98.8821C200.616 -102.701 197.807 -103.142 194.1 -99.4735C190.911 -96.3282 187.681 -93.2059 184.272 -90.2782C163.666 -72.5701 152.223 -50.0187 143.975 -25.7826C142.635 -21.8643 142.933 -18.7599 146.651 -15.6807C169.21 3.02478 174.291 27.1573 169.001 53.8436C162.261 87.8195 128.167 115.331 87.7505 119.823C81.2408 120.545 75.0177 121.935 69.2849 124.616C37.4171 139.461 34.2213 175.815 55.8416 194.63C80.1771 215.808 70.851 250.007 38.596 259.094C32.9319 260.694 27.2739 262.345 21.7592 264.33C17.1938 265.973 12.8476 268.189 9.77459 272.194C19.522 268.736 29.4622 267.179 39.6772 266.299C55.8899 264.917 67.3727 256.816 74.1807 243.036C80.8537 229.531 78.4709 216.77 69.8269 205.224C55.7784 186.468 57.8385 164.416 75.7254 148.231C87.1561 137.895 101.027 135.402 116.201 135.666C147.649 136.215 174.377 125.876 193.597 102.12C214.71 76.0036 221.545 39.8425 196.475 11.726C191.851 6.54679 191.995 2.92402 195.11 -2.57004C207.202 -23.9011 223.266 -42.0751 243.714 -56.9325C258.243 -41.077 272.761 -25.2324 287.29 -9.37695C286.096 -8.99 284.676 -8.87179 283.728 -8.19446C268.14 3.05092 254.144 15.7015 242.983 30.9563C239.752 35.3671 239.028 39.0018 241.937 43.9548C248.612 55.3081 252.692 67.4316 251.143 80.7922C245.283 131.091 195.378 165.582 142.046 155.889C134.595 154.539 127.273 154.375 119.911 155.455C90.9822 159.701 69.4801 188.571 85.4826 217.33C99.0282 241.673 84.7895 270.399 56.1074 274.692C49.9614 275.61 43.8177 275.108 37.6749 274.83C30.6089 274.5 23.8637 275.52 17.4679 278.634C25.4605 278.863 33.3205 278.993 41.0243 281.02C57.5946 285.364 72.6231 282.756 84.7781 270.52C96.3064 258.912 98.4617 245.612 94.0506 230.615C89.9373 216.633 92.3506 203.259 103.284 191.824C118.175 176.261 137.936 172.214 160.918 179.665C181.728 186.413 202.731 187.39 224.235 180.71C260.495 169.436 299.489 127.419 279.474 81.6302C277.812 77.8158 279.271 75.6507 281.994 72.9308C296.255 58.6137 313.702 48.5071 331.865 39.2702L377.421 88.9873C355.361 94.1488 335.926 104.376 317.471 116.495C312.793 119.572 311.187 123.31 312.083 128.757C313.477 137.17 314.761 145.708 312.242 154.276C295.878 210.052 229.637 233.517 176.595 205.267C159.802 196.322 142.3 196.43 125.634 206.478C108.515 216.809 101.958 231.864 104.902 250.284C109.662 279.935 79.5563 303.217 49.4039 293.055C45.0967 291.6 40.8283 289.966 36.4313 288.769C30.2555 287.098 23.9408 286.209 17.4681 287.816C26.2708 290.464 35.2123 292.797 42.5692 297.935C69.9478 317.054 108.821 298.537 109.836 265.052C110.197 253.306 115.205 242.764 125.332 234.806C143.897 220.229 169.876 220.189 188.939 234.724C221.808 259.791 263.028 262.088 298.76 240.744C320.68 227.649 334.888 210.183 335.441 185.108C335.489 182.737 336.099 180.312 335.838 177.981C335.319 173.503 337.438 171.169 341.691 169.139C366.505 157.313 392.631 151.297 420.393 151.56C424.833 151.603 429.557 153.268 433.868 150.613L515.077 239.24C509.978 242.146 506.054 240.554 501.383 237.635C457.523 210.2 409.997 206.335 359.657 221.163C353.639 222.932 350.398 225.82 349.54 232.043C346.471 254.373 332.237 270.143 312.427 281.695C274.415 303.84 225.964 296.453 196.227 264.554C181.933 249.222 157.796 244.535 138.286 254.168C124.685 260.869 115.945 271.629 112.724 285.811C106.503 313.216 79.8752 326.91 53.3127 316.308C46.3989 313.542 41.2258 308.519 35.4051 304.346C30.5872 300.889 25.5092 297.992 18.8011 297.92C29.1149 303.662 35.8732 312.616 43.8009 320.512C46.947 323.634 51.0101 325.712 55.363 327.261C77.7004 335.186 101.963 324.47 111.022 302.652C123.102 273.548 157.866 263.665 184.308 281.828C190.533 286.11 195.135 291.755 199.298 297.765C219.329 326.651 261.438 343.548 301.695 330.055C316.869 324.961 332.514 319.98 341.589 305.894C345.971 299.115 351.304 292.552 353.067 284.826C355.021 276.221 360.797 274.476 368.833 273.664C429.948 267.46 480.171 285.031 518.558 329.703C534.513 348.272 528.16 376.044 505.127 387.502C498.792 390.66 495.501 389.781 491.329 384.672C458.755 344.964 414.335 328.258 361.05 328.979C355.497 329.054 352.038 330.771 349.739 335.599C332.912 371.082 280.286 384.906 244.503 371.222C219.67 361.729 204.188 344.166 192.781 322.401C184.364 306.345 169.846 298.171 150.355 298.066C131.869 297.967 118.379 306.745 109.195 320.823C100.612 333.978 89.8026 343.391 72.8512 344.501C54.8666 345.683 42.079 338.264 33.6673 323.548C29.4852 316.227 23.6265 309.9 15.2497 306.205C16.7333 309.358 18.6472 312.114 20.7009 314.778C25.6763 321.208 26.8813 329.304 31.2226 335.976C45.6412 358.115 81.3856 359.306 99.7492 338.394C106.547 330.651 114.304 323.975 124.944 321.247C151.304 314.465 177.569 328.477 183.582 353.849C192.968 393.417 230.068 420.166 274.31 418.537C301.733 417.539 321.911 406.833 337.052 386.406C339.74 382.781 342.254 382.168 346.54 382.799C378.701 387.505 407.154 399.37 431.371 419.373C440.632 427.013 450.499 434.38 454.158 446.221L414.047 478.038C412.009 475.791 408.683 477.142 407.888 478.053C404.937 481.457 403.467 479.898 401.261 477.579C382.784 458.193 359.574 445.491 333.611 436.41C324.467 433.212 317.804 433.588 310.467 440.677C292.657 457.903 269.799 462.037 245.789 458.555C201.991 452.199 175.438 424.643 170.676 382.339C168.584 363.804 158.32 351.136 139.384 344.899C120.819 338.778 104.621 343.489 90.5349 355.707C65.0637 377.778 29.2485 368.505 21.0163 337.577C19.9755 333.662 18.8913 329.744 17.4447 325.965C15.8167 321.675 13.47 317.714 9.39357 314.732C11.3466 321.955 13.0661 328.99 13.0929 336.378C13.1495 352.981 21.2344 364.784 37.6524 371.563C52.6303 377.748 66.4742 375.315 79.8474 366.966C88.3726 361.64 97.7874 358.353 108.111 358.637C135.732 359.367 154.894 380.057 152.814 406.978C150.934 431.295 157.789 452.938 176.045 470.26C199.172 492.21 227.504 501.185 260.491 493.254C270.489 490.848 280.124 486.023 288.151 479.376C290.851 477.141 293.054 476.812 296.315 478.369C314.557 487.116 331.568 497.344 345.082 511.914C347.898 514.943 352.051 517.808 352.856 521.332C353.913 525.887 347.281 526.631 344.505 529.561C342.215 531.974 343.543 532.023 345.621 532.334L340.902 536.077C338.95 533.836 337.468 535.553 335.714 536.552C325.53 542.335 317.446 550.409 308.747 557.813C305.069 560.935 302.508 561.231 299.29 556.785C289.942 543.894 276.979 534.281 264.013 524.689C257.939 520.194 252.242 519.58 245.161 523.368C213.613 540.274 170.914 527.447 150.594 506.182C129.369 483.974 122.936 458.412 130.435 429.377C137.507 401.968 116.032 376.841 85.8729 376.632C75.6818 376.56 66.9693 380.391 57.8942 383.782C30.9623 393.853 3.11524 376.002 3.85558 349.286C3.99683 344.526 4.68439 339.763 4.59495 335.019C4.4978 329.31 4.22286 323.518 0.257015 318.546C0.68915 328.244 -1.98133 337.38 -4.24097 346.675C-9.63943 368.93 6.17265 388.788 30.5097 391.581C38.3846 392.483 45.7354 390.478 53.2799 389.085C71.5578 385.71 87.3853 389.243 99.1931 403.375C110.147 416.485 112.075 431.062 105.504 446.39C96.5011 467.38 94.338 488.319 101.981 509.823C113.772 542.967 159.528 575.672 206.563 556.747C210.33 555.233 212.86 555.616 215.406 558.15C226.678 569.384 237.983 580.611 245.449 594.584C247.641 598.687 248.174 603.471 251.252 607.208L198.164 649.318C192.134 628.532 182.806 609.28 168.74 592.106C165.105 587.673 161.516 585.779 155.239 587.044C117.086 594.762 78.0745 569.529 66.6002 537.664C57.4627 512.306 61.2799 488.17 76.3273 465.017C87.0477 448.526 86.9996 431.598 74.8847 416.087C63.7134 401.805 47.8786 397.419 28.9273 400.059C13.8357 402.175 0.27618 398.094 -9.87543 387.37C-20.6448 376.017 -22.1359 362.829 -15.9958 348.72C-14.3537 344.954 -12.445 341.256 -11.026 337.425C-9.37288 332.959 -8.10089 328.367 -9.28102 323.61C-12.6536 330.224 -15.4817 336.853 -19.916 342.796C-29.6813 355.862 -32.0127 369.525 -23.9102 383.815C-16.0501 397.662 -2.49974 402.423 13.4423 403.458C24.0559 404.147 34.2708 406.291 42.5329 412.951C62.5592 429.093 64.6633 453.889 46.5637 474.199C16.3185 508.157 16.8115 546.735 35.8218 573.463C45.4001 586.918 56.1889 599.692 74.3061 604.19C84.7199 606.773 95.4244 608.006 106.216 607.733C110.199 607.634 112.313 608.607 114.016 611.755C125.56 633.225 132.533 655.82 132.117 680.133C131.955 689.071 134.192 698.849 124.36 705.528C125.767 705.196 127.162 704.873 128.559 704.53L38.8992 775.65C37.2443 771.532 31.3097 769.502 36.7227 762.67C69.2107 721.689 74.6658 676.973 57.8181 629.662C56.0055 624.548 53.0497 622.19 47.0363 621.697C21.0983 619.557 3.0233 606.123 -9.26171 585.913C-29.7627 552.156 -20.8002 511.135 12.5979 483.598C28.1725 470.758 34.3953 455.072 28.9314 436.636C23.7112 418.978 9.31767 410.406 -9.33535 407.08C-20.4924 405.086 -30.1339 400.789 -36.8446 391.909C-49.2748 375.454 -47.6839 360.026 -31.4506 342.614C-25.5859 336.32 -20.5268 329.768 -19.1892 321.223C-25.9544 329.781 -34.3076 336.762 -42.5692 343.931C-64.0579 362.544 -55.4341 397.323 -27.6993 405.559C-9.47208 410.977 2.90014 421.656 5.26694 439.935C7.71318 458.88 -1.30147 473.253 -18.1159 483.716C-25.4568 488.289 -32.3265 493.309 -38.6491 499.015C-79.5667 535.932 -71.44 614.835 -5.484 628.232C-1.86204 628.961 -0.701172 630.784 -0.232874 634.051C8.25718 693.274 -12.7981 741.686 -63.2472 779.762C-86.7963 797.527 -118.256 784.781 -126.859 767.1C-128.726 763.261 -128.701 761.021 -124.564 758.243C-79.8119 728.157 -60.1043 686.656 -59.131 636.65C-59.0188 631.036 -60.7724 627.388 -66.6726 625.107C-86.9346 617.289 -98.4599 602.243 -105.406 583.546C-119.156 546.618 -98.3373 502.352 -58.9574 485.411C-51.6525 482.267 -44.6442 478.91 -38.3968 474.122C-22.2761 461.746 -16.6275 439.385 -26.3083 422.951C-31.7324 413.741 -39.5675 406.835 -49.9286 401.597C-75.0775 388.847 -78.7097 360.094 -57.9973 342.19C-53.7081 338.489 -48.231 335.973 -43.342 332.86C-37.7919 329.335 -32.5822 325.483 -29.7062 319.506C-36.8635 324.101 -44.3616 327.79 -52.3368 330.514C-68.3089 335.961 -78.1601 346.22 -80.5153 361.88C-82.8303 377.229 -76.1654 389.038 -63.16 398.207C-44.7693 411.185 -39.99 430.052 -49.9548 449.658C-56.7193 462.975 -68.7123 470.696 -83.4647 474.317C-100.073 478.402 -114.308 485.923 -127.106 496.523C-160.067 523.825 -171.032 587.562 -120.052 616.142C-116.401 618.192 -116.103 620.363 -116.776 623.696C-125.267 666.21 -147.123 701.053 -185.932 726.219C-188.409 727.83 -191.521 728.88 -192.851 731.764L-234.446 686.37C-232.034 686.156 -230.142 684.953 -228.299 683.584C-201.697 663.771 -183.845 638.543 -173.477 608.594C-171.591 603.16 -172.631 599.468 -177.125 595.475C-200.94 574.331 -205.413 548.018 -194.82 520.093C-181.716 485.548 -152.999 467.864 -114.675 463.09C-94.3244 460.553 -79.486 451.135 -72.2887 432.977C-65.4097 415.65 -71.1003 400.791 -83.9742 387.898C-95.272 376.59 -99.245 363.673 -93.7834 348.534C-88.6477 334.307 -77.0365 327.281 -62.2742 323.671C-52.9659 321.401 -43.5662 319.32 -36.4378 312.36C-45.3158 314.699 -54.1362 316.656 -63.3353 317.066C-80.5168 317.835 -93.1302 325.302 -100.249 340.188C-106.827 353.953 -104.206 366.618 -95.4378 378.588C-89.2553 387.048 -86.0396 396.404 -87.3896 406.825C-90.372 430.094 -113.231 447.256 -139.813 446.282C-175.233 445 -205.124 456.244 -224.578 484.459C-239.697 506.4 -248.021 530.62 -233.061 555.951C-230.131 560.905 -226.734 565.658 -223.075 570.184C-219.906 574.109 -220.085 577.405 -222.521 581.838C-235.482 605.445 -254.695 623.896 -277.03 639.895L-320.606 592.34C-317.259 592.746 -314.648 591.216 -312.146 589.455C-296.357 578.406 -282.653 565.482 -270.963 550.648C-267.207 545.877 -266.588 541.728 -269.814 536.429C-281.431 517.369 -281.302 497.389 -272.426 477.284C-256.226 440.582 -214.406 419.168 -172.291 425.888C-162.89 427.389 -153.604 428.497 -144.097 426.667C-113.874 420.853 -97.5946 389.463 -111.566 364.189C-115.336 357.362 -117.39 350.051 -116.399 342.173C-113.652 320.603 -95.5973 306.58 -72.0193 307.922C-63.2229 308.429 -54.4977 308.88 -46.034 305.488C-54.5319 305.174 -62.7609 303.975 -70.9157 302.101C-86.4021 298.54 -100.146 302.238 -111.132 312.948C-122.599 324.134 -124.899 337.587 -120.624 352.169C-117.876 361.504 -117.374 370.923 -121.604 380.158C-131.752 402.298 -158.214 413.061 -184.048 405.277C-196.004 401.678 -207.938 399.013 -220.705 398.464C-271.036 396.339 -329.492 445.954 -306.285 501.361C-304.583 505.442 -305.887 507.821 -308.876 510.695C-324.547 525.72 -342.779 537.214 -363.175 545.815L-408.73 496.098C-384.2 490.899 -362.596 480.015 -342.521 466.106C-338.691 463.461 -337.466 460.417 -338.36 456.218C-339.94 448.736 -341.162 441.177 -339.561 433.542C-333.324 403.753 -313.888 383.633 -284.234 372.597C-255.928 362.07 -228.437 365.815 -202.189 379.298C-174.721 393.4 -139.002 379.512 -132.151 352.484C-130.053 344.213 -131.225 336.464 -131.445 328.464C-132.184 300.756 -104.078 281.672 -76.2174 290.89C-71.8866 292.326 -67.6224 293.889 -63.2486 295.217C-57.6012 296.933 -51.8241 297.502 -45.8111 296.372C-55.8588 293.61 -64.43 288.614 -73.2722 283.944C-84.2883 278.124 -95.9998 277.616 -108.026 282.433C-124.853 289.192 -133.955 300.78 -134.96 317.758C-135.9 333.696 -142.103 346.959 -157.827 355.344C-177.713 365.968 -196.43 363.438 -213.82 351.308C-250.343 325.856 -291.704 324.248 -327.126 348.109C-340.284 356.96 -353.11 366.797 -357.097 382.633C-359.377 391.683 -361.764 400.818 -360.67 410.215C-360.28 413.62 -361.147 415.876 -364.813 417.7C-392.775 431.65 -422.464 438.067 -453.932 437.141C-456.709 437.067 -459.55 436.279 -462.233 437.753L-542.45 350.208C-539.2 348.152 -536.621 348.943 -533.425 350.831C-525.067 355.773 -516.77 361.137 -507.653 364.617C-467.283 380.039 -426.221 381.453 -384.627 366.639C-380.03 365.009 -377.599 362.949 -376.897 358.156C-374.358 340.763 -366.077 326.411 -351.728 314.19C-317.066 284.698 -260.911 284.575 -225.394 318.645C-219.805 324.01 -213.922 328.564 -206.828 331.97C-179.09 345.279 -143.782 328.34 -138.85 299.418C-136.339 284.66 -128.106 273.725 -112.95 267.788C-97.3634 261.676 -83.3458 264.368 -70.6052 273.915C-67.4324 276.288 -64.2988 278.73 -60.9632 280.88C-56.5362 283.733 -51.9128 286.355 -46.029 286.485C-55.5724 281.028 -62.2423 272.992 -69.6513 265.618C-73.5062 261.789 -78.4938 259.325 -84.0182 257.809C-106.214 251.75 -128.051 262.446 -136.666 283.37C-143.682 300.414 -156.57 311.16 -176.432 313.496C-195.984 315.791 -211.419 308.306 -222.014 294.053C-235.379 276.043 -252.064 263.037 -274.744 256.428C-314.501 244.832 -362.247 262.735 -377.092 298.027C-383.079 312.257 -391.167 315.481 -405.092 316.448C-465.855 320.657 -514.628 300.778 -552.297 257.067C-567.715 239.173 -556.774 211.85 -538.906 202.492C-532.704 199.233 -528.538 198.467 -523.192 204.902C-490.558 244.096 -446.233 260.654 -393.195 259.643C-385.746 259.501 -380.303 257.815 -376.949 250.582C-371.181 238.112 -361.378 228.712 -348.404 222.173C-299.004 197.247 -242.739 215.009 -220.162 262.703C-208.163 288.049 -174.357 296.284 -149.665 280.3C-141.69 275.131 -136.734 268.288 -131.935 260.786C-117.601 238.367 -86.2001 234.307 -66.8605 252.412C-62.4443 256.542 -59.2759 261.867 -55.878 266.843C-52.623 271.596 -48.4339 275.123 -42.5111 277.162C-48.4511 270.19 -51.5658 261.967 -55.6194 254.208C-66.2461 233.895 -91.9809 226.686 -113.685 237.594C-120.744 241.14 -125.4 246.886 -130.564 252.233C-143.476 265.555 -159.146 270.687 -177.851 266.17C-195.776 261.837 -207.09 250.823 -211.78 234.61C-218.244 212.283 -231.485 195.164 -252.102 182.29C-276.669 166.951 -332.654 163.524 -356.564 191.412C-360.267 195.73 -364.419 199.714 -367.936 204.146C-370.388 207.229 -372.875 208.138 -377.041 207.617C-422.487 201.84 -459.695 182.866 -487.9 149.416C-490.395 146.449 -492.564 145.482 -496.085 147.398L-441.817 104.352C-441.301 107.339 -439.2 109.387 -437.115 111.484C-415.83 132.935 -389.512 146.606 -359.399 154.635C-353.871 156.11 -349.848 155.588 -345.756 151.427C-335.41 140.907 -323.054 133.382 -307.678 130.798C-251.534 121.369 -206.343 152.302 -199.404 204.674C-197.031 222.538 -187.268 235.883 -168.753 242.082C-149.678 248.47 -132.462 244.071 -117.7 231.055C-99.9396 215.399 -75.0166 214.163 -58.6534 228.152C-50.6985 234.944 -48.1366 244.054 -45.6313 253.303C-43.8724 259.802 -41.57 266.095 -35.5805 270.563C-38.2504 262.603 -39.9342 254.607 -40.3315 246.281C-41.0683 230.758 -49.4493 219.9 -64.6613 213.881C-79.2412 208.108 -93.1415 210.212 -106.205 218.633C-115.154 224.407 -125.128 227.596 -135.853 227.63C-161.518 227.701 -182.1 207.484 -181.593 182.67C-181.378 171.432 -182.091 160.538 -185.087 149.532C-197.788 102.832 -269.854 68.6935 -319.335 108.204C-322.794 110.966 -325.465 110.696 -328.925 109.055C-339.148 104.212 -349.121 99.02 -358.486 92.8239C-370.811 84.6644 -380.28 73.7738 -391.057 64.1249L-339.149 22.9502C-328.17 38.3553 -313.26 50.0256 -297.689 61.1718C-291.253 65.772 -285.84 66.1439 -278.314 62.5072C-247.411 47.5874 -217.821 52.5782 -191.806 70.8754C-161.409 92.2658 -151.456 121.959 -159.899 156.988C-166.51 184.479 -143.249 210.243 -113.252 208.808C-105.136 208.416 -97.6989 206.306 -90.3646 203.082C-58.7615 189.194 -28.5831 207.566 -30.0815 239.68C-30.2303 243.009 -30.7183 246.345 -30.6916 249.664C-30.6552 254.973 -30.1889 260.24 -26.7235 264.844C-27.1804 255.875 -25.0324 247.303 -22.9674 238.685C-17.5433 215.924 -32.9011 196.228 -57.741 193.442C-65.6829 192.556 -72.9612 194.952 -80.4661 196.388C-96.8102 199.517 -111.528 197.305 -123.715 186.05C-140.051 170.957 -140.688 153.097 -133.688 133.902C-131.63 128.256 -129.136 122.751 -128.29 116.76C-122.873 78.4954 -141.261 46.8887 -178.36 30.0119C-189.124 25.1123 -199.899 21.4905 -212.166 23.1768C-220.55 24.3212 -229.115 24.9562 -236.954 28.2067C-243.202 30.7925 -247.335 28.9944 -251.69 24.797C-265.344 11.6076 -277.161 -2.77806 -286.071 -19.1712L-286.091 -19.3044ZM-6.03175 261.925C-0.561012 253.2 8.48082 247.838 15.9984 241.035C37.6115 221.446 29.2592 188.542 0.525645 179.083C-12.1092 174.921 -23.1498 168.897 -29.1141 157.185C-40.1843 135.432 -32.1455 113.546 -7.47957 97.956C11.105 86.2006 23.973 70.6743 30.81 50.656C42.2046 17.3362 27.7876 -35.8602 -25.148 -45.3637C-29.4427 -46.1377 -30.0426 -48.2375 -30.584 -51.5408C-40.6679 -112.859 -19.6186 -162.833 33.0195 -202.478C53.44 -217.854 86.9523 -206.382 96.1252 -188.145C98.1864 -184.05 98.2124 -181.42 93.4582 -178.116C49.4239 -147.423 29.681 -105.895 29.3767 -55.8031C29.3357 -49.089 31.4681 -44.9387 38.5725 -42.3434C70.1265 -30.8292 83.2555 6.08774 81.2045 27.4608C77.773 63.0681 57.178 86.8139 22.6339 101.673C4.80469 109.339 -5.26603 122.983 -5.74497 141.336C-6.2044 159.132 2.91046 172.059 19.8012 180.198C34.0717 187.057 43.4753 197.142 44.388 212.767C45.328 228.8 37.098 240.05 22.7243 248.242C18.5601 250.612 14.5511 253.306 10.825 256.243C7.85394 258.581 4.19561 260.681 3.91189 265.329C12.0566 258.01 22.7269 255.537 32.3346 251.126C36.9789 248.991 41.122 246.265 44.3469 242.27C59.2605 223.796 55.7191 199.655 36.1837 185.96C28.3877 180.498 21.6823 174.003 18.7737 164.981C11.092 141.213 26.3011 116.569 53.4467 109.221C64.673 106.177 75.1906 101.959 85.1897 96.2854C129.911 70.9456 142.207 1.52469 100.305 -27.1079C96.8266 -29.4812 93.4737 -32.0287 89.9225 -34.3257C87.1841 -36.0916 85.8317 -37.9677 86.4178 -41.4188C93.568 -83.3727 114.225 -118.123 151.146 -144.106C156.102 -147.59 157.324 -149.791 152.902 -154.551C117.182 -193.089 81.6507 -231.777 46.2611 -270.577C41.963 -275.268 39.0471 -275.493 33.8524 -271.335C8.43803 -250.915 -17.5428 -231.09 -42.8483 -210.551C-52.9539 -202.348 -62.8363 -194.547 -70.6937 -183.312C-101.001 -139.973 -106.769 -95.1776 -89.1921 -47.3809C-87.3383 -42.3564 -84.6261 -39.7299 -78.565 -39.1625C-64.5922 -37.8533 -51.6677 -33.753 -40.7336 -25.1995C1.63963 7.94915 1.15987 66.1871 -41.4317 100.699C-56.7239 113.091 -62.5453 129.037 -56.9936 147.235C-51.5579 165.04 -37.4826 174.443 -18.3893 177.382C0.317194 180.256 13.1693 190.591 17.3672 207.045C20.872 220.764 14.7018 231.705 5.55413 241.798C0.230134 247.682 -4.74433 253.681 -5.98645 261.908L-6.03175 261.925Z" fill="url(#paint0_linear_3114_2586)"/>
</g>
<defs>
<linearGradient id="paint0_linear_3114_2586" x1="243.488" y1="221.5" x2="-49.2041" y2="246.862" gradientUnits="userSpaceOnUse">
<stop stop-color="#39A27A"/>
<stop offset="1" stop-color="#39A27A" stop-opacity="0"/>
</linearGradient>
</defs>
</svg>
