<svg width="201" height="383" viewBox="0 0 201 383" fill="none" xmlns="http://www.w3.org/2000/svg">
<path fill-rule="evenodd" clip-rule="evenodd" d="M-10 369.338C-5.45793 368.658 -1.72933 365.626 -2.41735 360.45C-2.99702 356.123 -5.7257 348.661 -10 345.217V369.338ZM-10 296.313C-7.93878 312.639 -2.447 328.508 6.62367 342.204C19.234 361.258 38.9439 375.814 61.2322 380.784C76.557 384.201 93.3345 382.929 106.844 374.942C123.231 365.247 132.909 346.992 137.475 328.493C141.987 310.184 141.987 289.83 132.455 273.566C128.442 266.724 122.931 260.936 116.966 255.757C113.089 252.383 109.047 249.548 104.957 246.679C102.966 245.282 100.964 243.878 98.9633 242.4C86.6616 233.322 76.1848 221.138 70.3926 206.917C67.354 199.471 65.2325 191.726 63.1107 183.98C61.2321 177.123 59.3534 170.264 56.8381 163.612C52.4894 152.1 44.8541 140.315 32.8612 137.589C21.1859 134.936 9.64689 141.714 -0.285226 148.402C-1.3202 143.931 0.822369 139.106 4.35399 136.18C7.88561 133.264 12.5975 132.055 17.1822 132.001C27.8951 131.873 37.9452 137.562 45.8437 144.812C57.1558 155.189 64.9544 168.582 71.591 182.266C73.5036 186.211 75.3817 190.163 77.2579 194.112L77.258 194.112C81.8475 203.771 86.4249 213.405 91.4643 222.828C97.5561 234.213 105.89 244.544 116.458 252.049C127.924 260.191 142.087 264.825 156.105 263.734C170.122 262.644 183.813 255.502 191.739 243.881C199.692 232.168 201.335 217.176 200.227 203.029C199.623 195.323 198.283 187.723 196.942 180.122L196.942 180.121L196.942 180.121L196.942 180.121L196.942 180.121L196.942 180.12L196.942 180.12L196.942 180.12L196.941 180.119C196.208 175.962 195.475 171.804 194.862 167.628C193.128 155.816 192.211 143.549 192.719 131.383C192.73 131.135 192.741 130.886 192.752 130.637V130.637C192.902 127.222 193.055 123.749 192.056 120.497C190.985 117.008 188.234 113.755 184.612 113.274C179.818 112.647 175.942 116.854 174.217 120.861C173.391 122.778 172.845 124.8 172.299 126.821C171.776 128.757 171.254 130.692 170.485 132.537C168.08 138.288 163.331 142.886 157.766 145.685C152.21 148.483 145.891 149.574 139.663 149.465C136.485 149.409 133.321 149.052 130.158 148.696C126.653 148.301 123.149 147.906 119.626 147.92C112.926 147.947 105.763 149.764 101.433 154.889C97.5289 159.514 96.6301 166.02 97.2111 172.035C97.2807 172.77 98.0439 176.474 98.8718 180.491C99.9875 185.905 101.221 191.89 101.033 191.952C93.8157 194.197 85.2454 188.718 84.2558 181.221C83.7861 177.672 84.7782 174.198 85.7751 170.707C86.2812 168.935 86.7886 167.159 87.1065 165.366C88.9949 154.671 84.0288 143.967 78.0732 134.899C77.0854 133.395 76.0666 131.911 75.0176 130.449C80.6627 135.299 87.112 139.18 94.0802 141.723C108.606 147.029 125.139 146.612 139.383 140.578C141.181 139.815 142.942 138.97 144.649 138.034C153.382 133.282 160.945 126.394 166.528 118.171C173.909 107.295 180.065 94.2833 179.929 80.8719C179.883 76.1288 179.012 71.2949 176.642 67.1879C174.273 63.0809 170.26 59.7734 165.593 58.9739C162.495 58.4474 159.435 59.0754 156.381 59.7022C153.161 60.3629 149.948 61.0225 146.7 60.3277C141.29 59.1738 136.387 54.0672 136.405 48.361C136.405 47.834 136.451 47.2979 136.714 46.8436C137.467 45.5079 139.565 45.6987 140.709 46.7073C141.487 47.3935 141.992 48.311 142.498 49.2309C142.736 49.6631 142.974 50.0959 143.241 50.5054C145.266 53.5947 149.106 55.2757 152.801 55.0667C156.496 54.8577 159.964 52.9224 162.434 50.1692C164.168 48.2338 165.475 45.7896 165.493 43.2C165.512 40.6104 164.005 37.9117 161.553 37.0758C158.866 36.1581 155.952 37.5937 153.736 39.3655C153.135 39.8464 152.553 40.3595 151.97 40.8724C150.407 42.2496 148.843 43.6265 146.918 44.3812C144.549 45.308 141.771 45.1535 139.519 43.9541C138.729 43.5346 137.962 42.9877 137.198 42.4424C135.378 41.1451 133.571 39.8563 131.494 40.3105C129.297 40.7921 128.016 43.0546 127.29 45.1808C124.957 51.9956 125.602 60.7548 129.215 67.0334C131.621 71.2132 136.097 74.4933 140.917 74.2662C145.781 74.0426 149.543 70.6175 153.309 67.1893C157.045 63.7889 160.783 60.3856 165.602 60.1006C164.867 68.3509 157.786 75.2656 149.687 76.9739C141.589 78.6821 132.937 75.7018 126.682 70.2773C123.379 67.4111 120.692 63.9467 118.004 60.4818C116.858 59.0036 115.711 57.5254 114.516 56.0935C110.522 51.305 105.637 46.8345 99.5729 45.3898C92.3099 43.6725 84.0301 47.1616 80.4803 53.731C76.9306 60.3005 78.7191 69.3868 84.6929 73.8664C86.8963 75.5151 89.4963 76.5298 92.0887 77.5414C95.1254 78.7265 98.1515 79.9075 100.517 82.0986C102.927 84.3334 104.357 87.2549 105.791 90.1824C106.927 92.5039 108.065 94.8291 109.696 96.8184C113.854 101.898 120.336 104.705 126.836 104.887C135.652 105.132 143.959 100.798 150.396 95.0466C156.088 89.9582 160.591 83.6978 164.894 77.3828C159.955 86.778 153.873 95.9007 145.221 102.061C136.578 108.222 124.939 110.975 115.107 106.968C106.409 103.417 100.508 95.4189 94.9117 87.8342L94.5614 87.3596C88.3243 78.9093 78.9097 66.7608 66.8895 69.0779C60.3256 70.3499 55.3595 76.3106 53.7617 82.8073C52.1638 89.304 53.4439 96.2006 55.6955 102.497C57.1639 106.596 59.0645 110.557 61.3388 114.304C56.9036 109.85 52.1506 105.714 47.1238 101.943C39.3161 96.0824 30.5189 90.994 20.8137 89.8764C11.1176 88.7679 0.386601 92.4297 -4.67024 100.789C-8.66079 107.379 -8.5309 115.366 -8.40325 123.215C-8.37408 125.009 -8.34502 126.796 -8.36529 128.557C-8.42945 133.767 -8.97941 138.971 -10 144.081V186.093C-7.56367 186.793 -4.89382 186.961 -2.36427 186.819C-0.617486 186.72 1.12707 186.504 2.87017 186.288H2.87032H2.87047H2.87062H2.87078H2.87093H2.87109H2.87125L2.87152 186.288C6.10168 185.888 9.32688 185.489 12.5521 185.837C24.3602 187.119 31.2529 196.283 38.0671 205.343C41.6892 210.159 45.2891 214.945 49.5933 218.503C53.1632 221.454 57.2684 223.716 61.3605 225.971C66.9049 229.026 72.4252 232.067 76.557 236.793C77.9279 238.365 79.1536 240.164 79.5076 242.218C79.8617 244.271 79.1717 246.616 77.4104 247.733C74.4417 249.614 70.6559 247.261 68.0866 244.871C61.5582 238.815 55.9392 231.882 50.3214 224.95C48.0409 222.136 45.7606 219.322 43.4197 216.567C35.3124 207.017 26.152 197.94 14.74 192.779C7.02171 189.292 -1.55359 187.85 -10 188.394V233.051C-9.52162 235.441 -9.20197 237.859 -9.02804 240.255C-8.47017 248.02 -9.1729 255.785 -9.87605 263.555L-9.87606 263.555C-9.91746 264.012 -9.95886 264.47 -10 264.927V296.313ZM144.293 37.0849C148.359 28.9907 155.557 25.6736 162.867 22.3054C166.101 20.815 169.357 19.3146 172.373 17.3857C190.095 -11.845 134.951 -3.51283 144.293 37.0849Z" fill="url(#paint0_linear_3114_2853)"/>
<defs>
<linearGradient id="paint0_linear_3114_2853" x1="95.2686" y1="0" x2="95.2686" y2="382.564" gradientUnits="userSpaceOnUse">
<stop stop-color="#7266F8"/>
<stop offset="1" stop-color="#39A27A" stop-opacity="0"/>
</linearGradient>
</defs>
</svg>
