<svg width="250" height="568" viewBox="0 0 250 568" fill="none" xmlns="http://www.w3.org/2000/svg">
<path d="M0.0214539 171.622V541.643L202.02 485.56V134.304C202.02 79.4861 180.55 30.3608 146.614 1.26514C142.459 0.632629 138.304 0.210876 133.917 6.10352e-05C132.994 6.10352e-05 132.07 6.10352e-05 131.147 6.10352e-05C61.198 6.10352e-05 0.0214539 76.1127 0.0214539 171.622Z" fill="#AADCDB"/>
<path d="M0.0213928 541.544V567.442L249.922 494.591L202.487 485.327L0.0213928 541.544Z" fill="#AADCDB"/>
<path d="M146.49 1.58316C180.234 30.6729 201.96 79.7881 201.96 134.595V485.569L249.34 494.844V154.199C249.34 76.4154 205.889 11.2797 146.49 1.58316Z" fill="#AADCDB"/>
<path d="M0.00195312 171.622V541.643L202 485.56V134.304C202 79.486 180.531 30.3608 146.595 1.26511C142.439 0.632592 138.284 0.210838 133.898 0C132.974 0 132.051 0 131.128 0C61.1785 0 0.00195312 76.1126 0.00195312 171.622Z" fill="#1F1D37"/>
<path fill-rule="evenodd" clip-rule="evenodd" d="M98.8357 497.58C135.215 497.58 164.707 470.14 164.707 436.286C164.707 428.359 163.089 420.785 160.148 413.827C160.929 417.074 161.344 420.451 161.344 423.914C161.344 449.305 139.218 469.885 111.928 469.885C84.6384 469.885 62.5194 449.305 62.5194 423.914C62.5194 398.523 84.6384 377.943 111.928 377.943C115.39 377.943 118.767 378.27 122.024 378.905C114.813 376.379 106.997 374.998 98.8357 374.998C62.4491 374.998 32.957 402.431 32.957 436.286C32.957 470.14 62.4561 497.58 98.8357 497.58Z" fill="#1F1D37"/>
<mask id="mask0_3500_28581" style="mask-type:alpha" maskUnits="userSpaceOnUse" x="0" y="0" width="202" height="542">
<path d="M0.00192261 171.622V541.643L202 485.56V134.304C202 79.4861 180.53 30.3608 146.595 1.26514C142.439 0.632629 138.284 0.210876 133.898 6.10352e-05C132.974 6.10352e-05 132.051 6.10352e-05 131.128 6.10352e-05C61.1785 6.10352e-05 0.00192261 76.1127 0.00192261 171.622Z" fill="#686FAB"/>
</mask>
<g mask="url(#mask0_3500_28581)">
<path d="M-291.852 -19.3045L-235.287 -63.2866C-230.054 -42.8135 -218.952 -25.1116 -205.329 -8.49247C-201.479 -3.79624 -197.526 -2.27912 -190.836 -3.39329C-156.287 -9.18621 -129.676 3.47437 -110.246 27.9517C-87.0299 57.2124 -88.0404 88.5692 -107.374 119.933C-112.202 127.774 -114.435 135.968 -114.311 144.55C-113.898 170.359 -88.4184 189.124 -60.0275 184.947C-27.7255 180.174 -3.20524 200.469 -8.42339 227.614C-9.61815 233.806 -13.0832 239.281 -15.11 245.206C-16.932 250.504 -18.6654 255.809 -16.7996 261.562C-14.0777 252.335 -7.79554 244.893 -2.97286 236.758C2.3555 227.762 4.24195 218.419 0.41209 208.519C-6.36338 190.999 -19.9816 182.122 -40.7827 181.368C-58.0542 180.744 -73.0022 175.98 -81.9978 161.288C-93.5653 142.398 -90.1643 124.804 -75.772 108.164C-53.6749 82.6019 -46.8147 54.4793 -60.0021 24.3638C-69.415 2.86619 -84.9939 -14.3782 -110.829 -21.1843C-120.074 -23.6264 -129.812 -24.7513 -139.531 -23.8762C-145.17 -23.373 -147.811 -25.2201 -150.3 -29.5938C-163.844 -53.4218 -170.272 -78.752 -169.705 -105.714C-169.661 -108.156 -168.246 -111.067 -171.482 -112.862C-102.193 -166.776 -32.8333 -220.614 36.3243 -274.668C40.7171 -278.083 42.3418 -277.835 45.9384 -273.987C113.047 -201.906 180.36 -129.983 247.625 -58.0227C244.678 -58.8854 243.296 -61.3197 241.466 -63.2558C230.29 -75.0777 219.045 -86.8637 208.122 -98.8821C204.656 -102.701 201.792 -103.142 198.01 -99.4735C194.757 -96.3282 191.461 -93.2059 187.984 -90.2782C166.962 -72.5702 155.289 -50.0187 146.875 -25.7826C145.508 -21.8643 145.812 -18.76 149.605 -15.6807C172.618 3.02473 177.802 27.1573 172.405 53.8436C165.53 87.8195 130.749 115.33 89.5183 119.823C82.8775 120.545 76.5291 121.935 70.6808 124.616C38.1713 139.461 34.9111 175.815 56.9668 194.63C81.7924 215.808 72.2785 250.007 39.3739 259.094C33.5957 260.694 27.8237 262.345 22.198 264.33C17.5407 265.973 13.107 268.189 9.97205 272.194C19.9157 268.736 30.0561 267.179 40.4768 266.299C57.0161 264.917 68.7301 256.816 75.6752 243.036C82.4826 229.531 80.0519 216.77 71.2337 205.224C56.9023 186.468 59.0039 164.416 77.251 148.231C88.9119 137.895 103.062 135.402 118.542 135.666C150.623 136.215 177.889 125.876 197.497 102.119C219.034 76.0035 226.008 39.8424 200.432 11.7259C195.716 6.54675 195.862 2.92399 199.04 -2.57009C211.375 -23.9012 227.763 -42.0751 248.623 -56.9325C263.444 -41.0771 278.255 -25.2324 293.076 -9.377C291.858 -8.99003 290.41 -8.87183 289.443 -8.19452C273.54 3.05089 259.263 15.7015 247.877 30.9563C244.581 35.3671 243.843 39.0018 246.81 43.9548C253.619 55.3081 257.782 67.4316 256.201 80.7921C250.224 131.091 199.314 165.582 144.907 155.889C137.306 154.539 129.837 154.374 122.326 155.455C92.8151 159.701 70.88 188.571 87.2047 217.33C101.023 241.673 86.4976 270.399 57.2379 274.692C50.9681 275.61 44.7008 275.108 38.4342 274.83C31.2259 274.5 24.3449 275.52 17.8202 278.634C25.9738 278.863 33.9922 278.993 41.8511 281.02C58.7551 285.364 74.0863 282.756 86.486 270.52C98.2465 258.912 100.445 245.612 95.9452 230.615C91.7491 216.633 94.2111 203.259 105.365 191.824C120.556 176.261 140.714 172.214 164.159 179.665C185.389 186.413 206.814 187.39 228.751 180.71C265.741 169.436 305.521 127.418 285.103 81.6302C283.408 77.8157 284.896 75.6506 287.674 72.9308C302.222 58.6136 320.021 48.5071 338.549 39.2701L385.022 88.9872C362.518 94.1488 342.692 104.376 323.866 116.495C319.093 119.572 317.454 123.31 318.369 128.757C319.791 137.17 321.1 145.708 318.531 154.276C301.837 210.052 234.262 233.517 180.152 205.267C163.02 196.322 145.166 196.43 128.164 206.478C110.701 216.809 104.012 231.864 107.015 250.284C111.871 279.935 81.1591 303.217 50.3995 293.055C46.0055 291.6 41.6511 289.966 37.1656 288.769C30.8654 287.098 24.4235 286.209 17.8204 287.816C26.8005 290.464 35.9221 292.797 43.4271 297.935C71.3571 317.054 111.013 298.537 112.049 265.052C112.417 253.306 117.526 242.764 127.856 234.806C146.796 220.229 173.298 220.189 192.745 234.724C226.276 259.79 268.326 262.088 304.777 240.744C327.139 227.649 341.633 210.183 342.197 185.108C342.246 182.737 342.868 180.312 342.602 177.981C342.073 173.503 344.235 171.169 348.572 169.139C373.887 157.313 400.538 151.297 428.86 151.56C433.389 151.603 438.209 153.268 442.607 150.613L525.45 239.24C520.249 242.146 516.246 240.554 511.48 237.635C466.737 210.2 418.255 206.335 366.901 221.163C360.761 222.932 357.455 225.82 356.58 232.043C353.449 254.373 338.929 270.143 318.72 281.695C279.942 303.84 230.516 296.453 200.179 264.554C185.598 249.222 160.974 244.534 141.071 254.168C127.197 260.869 118.28 271.629 114.994 285.811C108.649 313.216 81.4844 326.91 54.3869 316.308C47.3339 313.542 42.0566 308.519 36.1188 304.346C31.2038 300.889 26.0235 297.992 19.1804 297.919C29.7018 303.662 36.5962 312.616 44.6836 320.512C47.893 323.634 52.038 325.712 56.4786 327.261C79.2658 335.186 104.017 324.47 113.258 302.652C125.581 273.548 161.046 263.665 188.02 281.828C194.371 286.11 199.066 291.754 203.312 297.765C223.746 326.651 266.703 343.548 307.771 330.055C323.251 324.961 339.211 319.979 348.469 305.894C352.939 299.115 358.379 292.552 360.178 284.826C362.172 276.221 368.064 274.476 376.262 273.664C438.607 267.46 489.842 285.031 529.002 329.703C545.278 348.272 538.797 376.043 515.3 387.502C508.838 390.66 505.48 389.78 501.225 384.672C467.994 344.964 422.68 328.258 368.322 328.979C362.657 329.054 359.128 330.771 356.783 335.599C339.617 371.082 285.931 384.906 249.427 371.222C224.095 361.729 208.301 344.166 196.664 322.401C188.077 306.345 173.267 298.171 153.384 298.066C134.525 297.967 120.763 306.745 111.395 320.823C102.638 333.978 91.6117 343.391 74.3189 344.501C55.9721 345.683 42.9271 338.264 34.3459 323.548C30.0796 316.227 24.1029 309.9 15.5574 306.205C17.0709 309.358 19.0233 312.114 21.1183 314.778C26.194 321.208 27.4232 329.304 31.8519 335.976C46.561 358.115 83.0252 359.306 101.759 338.394C108.693 330.651 116.606 323.975 127.46 321.247C154.352 314.465 181.145 328.477 187.28 353.849C196.855 393.417 234.702 420.166 279.835 418.537C307.81 417.539 328.395 406.833 343.84 386.406C346.582 382.781 349.147 382.168 353.52 382.799C386.328 387.505 415.354 399.37 440.058 419.373C449.507 427.013 459.572 434.379 463.305 446.221L422.386 478.038C420.307 475.791 416.914 477.142 416.103 478.053C413.092 481.457 411.593 479.898 409.343 477.579C390.494 458.193 366.816 445.491 340.33 436.41C331.002 433.212 324.205 433.588 316.72 440.677C298.552 457.903 275.233 462.037 250.739 458.555C206.059 452.199 178.971 424.643 174.114 382.339C171.98 363.804 161.509 351.136 142.192 344.899C123.252 338.778 106.728 343.489 92.3587 355.707C66.3747 377.778 29.8381 368.505 21.4401 337.577C20.3784 333.662 19.2723 329.744 17.7966 325.964C16.1358 321.675 13.7419 317.714 9.58335 314.732C11.5757 321.955 13.3299 328.99 13.3571 336.378C13.4149 352.981 21.6626 364.784 38.4113 371.563C53.6909 377.748 67.8135 375.315 81.456 366.966C90.153 361.64 99.7574 358.353 110.289 358.637C138.466 359.367 158.014 380.057 155.892 406.978C153.974 431.295 160.967 452.938 179.591 470.26C203.184 492.21 232.086 501.185 265.737 493.254C275.937 490.847 285.766 486.023 293.955 479.375C296.709 477.141 298.957 476.811 302.283 478.369C320.892 487.116 338.246 497.344 352.032 511.914C354.905 514.943 359.142 517.808 359.962 521.332C361.041 525.887 354.275 526.631 351.444 529.561C349.107 531.974 350.462 532.023 352.582 532.334L347.768 536.077C345.777 533.836 344.265 535.553 342.476 536.552C332.087 542.335 323.839 550.409 314.966 557.813C311.213 560.935 308.601 561.231 305.318 556.785C295.782 543.893 282.557 534.281 269.331 524.689C263.134 520.194 257.323 519.58 250.099 523.368C217.915 540.274 174.357 527.447 153.627 506.182C131.975 483.974 125.413 458.412 133.062 429.377C140.277 401.968 118.369 376.841 87.6028 376.632C77.2065 376.559 68.3185 380.391 59.0607 383.782C31.5864 393.853 3.17858 376.002 3.93382 349.286C4.07792 344.526 4.77932 339.763 4.68807 335.019C4.589 329.31 4.30851 323.518 0.262789 318.545C0.703621 328.244 -2.02065 337.38 -4.32577 346.675C-9.83293 368.93 6.29756 388.788 31.1247 391.581C39.1582 392.483 46.657 390.478 54.3535 389.085C72.9995 385.71 89.1458 389.243 101.191 403.375C112.366 416.485 114.333 431.062 107.629 446.39C98.4451 467.38 96.2385 488.319 104.036 509.823C116.064 542.967 162.742 575.672 210.723 556.747C214.566 555.233 217.147 555.616 219.745 558.15C231.244 569.384 242.777 580.611 250.393 594.584C252.629 598.687 253.173 603.471 256.312 607.208L202.155 649.318C196.004 628.532 186.488 609.28 172.138 592.106C168.431 587.672 164.769 585.779 158.366 587.044C119.444 594.762 79.6475 569.529 67.942 537.664C58.6205 512.306 62.5147 488.17 77.865 465.017C88.8013 448.525 88.7523 431.598 76.3934 416.087C64.9971 401.805 48.8435 397.419 29.5105 400.059C14.115 402.175 0.282326 398.093 -10.0737 387.37C-21.06 376.017 -22.5811 362.829 -16.3173 348.72C-14.6421 344.954 -12.6951 341.256 -11.2475 337.424C-9.56104 332.959 -8.26342 328.367 -9.46735 323.61C-12.9078 330.224 -15.7929 336.853 -20.3165 342.796C-30.2784 355.862 -32.6568 369.525 -24.3912 383.815C-16.3727 397.662 -2.54946 402.423 13.7136 403.458C24.541 404.147 34.9616 406.291 43.3901 412.951C63.8196 429.092 65.9662 453.888 47.502 474.199C16.6477 508.157 17.1507 546.735 36.5437 573.463C46.3151 586.917 57.3211 599.692 75.8031 604.19C86.4267 606.773 97.3467 608.006 108.355 607.733C112.419 607.634 114.576 608.607 116.313 611.755C128.09 633.225 135.203 655.82 134.778 680.133C134.613 689.071 136.895 698.849 126.865 705.528C128.3 705.196 129.724 704.873 131.149 704.53L39.6832 775.65C37.9949 771.532 31.9408 769.502 37.4629 762.67C70.6052 721.689 76.1701 676.973 58.9832 629.662C57.134 624.548 54.1187 622.19 47.9841 621.697C21.5238 619.557 3.0848 606.123 -9.44763 585.913C-30.3615 552.156 -21.2185 511.135 12.8523 483.598C28.7405 470.758 35.0886 455.072 29.5146 436.636C24.1893 418.978 9.50592 410.406 -9.52276 407.08C-20.9045 405.086 -30.7402 400.789 -37.5861 391.909C-50.2666 375.454 -48.6436 360.026 -32.0834 342.614C-26.1005 336.32 -20.9395 329.768 -19.5751 321.223C-26.4765 329.781 -34.9978 336.762 -43.4259 343.931C-65.3474 362.544 -56.5498 397.323 -28.2565 405.559C-9.66222 410.977 2.95913 421.656 5.3736 439.935C7.86912 458.88 -1.32704 473.253 -18.4802 483.716C-25.9689 488.289 -32.9769 493.309 -39.4269 499.015C-81.1685 535.932 -72.8782 614.835 -5.59382 628.232C-1.89893 628.961 -0.714718 630.783 -0.236958 634.051C8.42409 693.274 -13.0553 741.685 -64.5203 779.762C-88.5436 797.527 -120.637 784.781 -129.414 767.099C-131.318 763.261 -131.293 761.021 -127.072 758.243C-81.4186 728.157 -61.3141 686.656 -60.3213 636.65C-60.2067 631.036 -61.9958 627.388 -68.0146 625.107C-88.6848 617.289 -100.442 602.243 -107.528 583.546C-121.555 546.618 -100.317 502.351 -60.1441 485.411C-52.6921 482.267 -45.5427 478.91 -39.1695 474.122C-22.7241 461.746 -16.9618 439.385 -26.8375 422.951C-32.3709 413.741 -40.3638 406.835 -50.9335 401.597C-76.5889 388.847 -80.2942 360.093 -59.1647 342.19C-54.7891 338.489 -49.2017 335.973 -44.2142 332.86C-38.5523 329.335 -33.2378 325.483 -30.3039 319.506C-37.6053 324.101 -45.2544 327.79 -53.3902 330.514C-69.684 335.961 -79.7335 346.22 -82.1362 361.88C-84.4978 377.229 -77.6987 389.038 -64.4314 398.207C-45.6703 411.185 -40.7948 430.052 -50.9602 449.658C-57.8609 462.975 -70.0955 470.696 -85.145 474.317C-102.088 478.402 -116.609 485.923 -129.665 496.523C-163.29 523.825 -174.476 587.562 -122.469 616.142C-118.745 618.192 -118.44 620.363 -119.127 623.696C-127.789 666.21 -150.085 701.053 -189.676 726.219C-192.203 727.829 -195.378 728.88 -196.734 731.764L-239.167 686.37C-236.707 686.155 -234.776 684.953 -232.896 683.584C-205.758 663.771 -187.547 638.543 -176.97 608.594C-175.046 603.16 -176.107 599.468 -180.692 595.475C-204.986 574.331 -209.549 548.017 -198.743 520.093C-185.375 485.548 -156.08 467.864 -116.983 463.09C-96.2234 460.553 -81.0862 451.135 -73.744 432.977C-66.7263 415.65 -72.5315 400.791 -85.6647 387.898C-97.19 376.59 -101.243 363.673 -95.6715 348.534C-90.4323 334.307 -78.5873 327.281 -63.5277 323.671C-54.032 321.401 -44.443 319.32 -37.171 312.36C-46.2278 314.698 -55.2258 316.656 -64.6102 317.066C-82.1378 317.835 -95.0051 325.302 -102.268 340.188C-108.978 353.953 -106.304 366.618 -97.3592 378.588C-91.0522 387.047 -87.7718 396.404 -89.1489 406.825C-92.1914 430.094 -115.511 447.256 -142.629 446.281C-178.761 445 -209.255 456.244 -229.1 484.459C-244.524 506.4 -253.015 530.62 -237.754 555.951C-234.765 560.905 -231.299 565.658 -227.567 570.184C-224.334 574.109 -224.517 577.405 -227.002 581.838C-240.224 605.445 -259.824 623.895 -282.609 639.895L-327.062 592.34C-323.648 592.746 -320.984 591.216 -318.431 589.455C-302.325 578.406 -288.344 565.482 -276.42 550.648C-272.588 545.877 -271.956 541.728 -275.247 536.429C-287.098 517.369 -286.966 497.389 -277.912 477.284C-261.386 440.582 -218.723 419.168 -175.761 425.888C-166.17 427.389 -156.697 428.497 -146.998 426.667C-116.167 420.853 -99.5594 389.463 -113.812 364.188C-117.658 357.362 -119.753 350.051 -118.742 342.173C-115.941 320.603 -97.5219 306.58 -73.4691 307.922C-64.4955 308.429 -55.5946 308.88 -46.9605 305.488C-55.6295 305.174 -64.0243 303.975 -72.3433 302.101C-88.1416 298.539 -102.163 302.238 -113.369 312.948C-125.067 324.134 -127.414 337.587 -123.053 352.169C-120.249 361.504 -119.737 370.923 -124.052 380.158C-134.405 402.298 -161.399 413.061 -187.753 405.277C-199.95 401.678 -212.126 399.013 -225.149 398.464C-276.494 396.339 -336.126 445.954 -312.453 501.361C-310.716 505.442 -312.047 507.82 -315.096 510.695C-331.082 525.72 -349.682 537.214 -370.488 545.815L-416.961 496.098C-391.936 490.899 -369.898 480.015 -349.418 466.106C-345.512 463.46 -344.262 460.417 -345.174 456.218C-346.785 448.736 -348.032 441.176 -346.399 433.542C-340.036 403.753 -320.209 383.633 -289.958 372.597C-261.081 362.07 -233.037 365.814 -206.26 379.298C-178.239 393.4 -141.801 379.512 -134.812 352.484C-132.671 344.213 -133.867 336.464 -134.092 328.464C-134.846 300.756 -106.174 281.672 -77.7518 290.89C-73.3337 292.326 -68.9837 293.889 -64.5218 295.217C-58.7606 296.933 -52.8672 297.502 -46.7331 296.372C-56.9831 293.61 -65.727 288.614 -74.7472 283.944C-85.9852 278.124 -97.9325 277.616 -110.201 282.433C-127.367 289.192 -136.652 300.78 -137.677 317.758C-138.636 333.696 -144.964 346.959 -161.005 355.344C-181.292 365.968 -200.386 363.438 -218.125 351.308C-255.384 325.856 -297.578 324.248 -333.714 348.109C-347.137 356.96 -360.22 366.797 -364.288 382.633C-366.614 391.683 -369.049 400.818 -367.933 410.215C-367.535 413.62 -368.42 415.875 -372.159 417.7C-400.684 431.65 -430.972 438.067 -463.073 437.141C-465.906 437.067 -468.804 436.279 -471.541 437.753L-553.374 350.208C-550.058 348.152 -547.428 348.943 -544.167 350.831C-535.64 355.773 -527.177 361.137 -517.876 364.617C-476.693 380.039 -434.803 381.453 -392.373 366.639C-387.683 365.009 -385.202 362.949 -384.487 358.156C-381.896 340.763 -373.448 326.411 -358.811 314.19C-323.45 284.698 -266.165 284.575 -229.932 318.645C-224.231 324.01 -218.23 328.564 -210.993 331.97C-182.696 345.279 -146.678 328.34 -141.645 299.418C-139.084 284.66 -130.685 273.725 -115.224 267.788C-99.3236 261.676 -85.0237 264.368 -72.0265 273.915C-68.7898 276.288 -65.5931 278.73 -62.1904 280.88C-57.6742 283.733 -52.9577 286.355 -46.9553 286.485C-56.6909 281.028 -63.4952 272.992 -71.0534 265.618C-74.9859 261.789 -80.074 259.325 -85.7096 257.809C-108.353 251.75 -130.629 262.446 -139.417 283.37C-146.575 300.414 -159.723 311.16 -179.985 313.495C-199.931 315.791 -215.676 308.306 -226.485 294.053C-240.119 276.043 -257.14 263.037 -280.276 256.428C-320.834 244.832 -369.542 262.735 -384.685 298.026C-390.794 312.257 -399.044 315.481 -413.249 316.448C-475.236 320.657 -524.992 300.778 -563.419 257.067C-579.148 239.173 -567.987 211.85 -549.759 202.492C-543.432 199.233 -539.181 198.467 -533.728 204.902C-500.436 244.096 -455.219 260.654 -401.112 259.643C-393.514 259.501 -387.961 257.815 -384.539 250.582C-378.655 238.112 -368.655 228.712 -355.419 222.173C-305.025 197.247 -247.626 215.009 -224.595 262.703C-212.354 288.049 -177.868 296.284 -152.679 280.3C-144.542 275.131 -139.487 268.288 -134.592 260.786C-119.969 238.367 -87.9355 234.307 -68.2064 252.412C-63.7013 256.542 -60.469 261.867 -57.0027 266.843C-53.6822 271.596 -49.4087 275.123 -43.3666 277.162C-49.4263 270.19 -52.6037 261.967 -56.7389 254.208C-67.5797 233.895 -93.8327 226.686 -115.974 237.594C-123.175 241.14 -127.925 246.886 -133.193 252.233C-146.365 265.555 -162.35 270.687 -181.432 266.17C-199.718 261.837 -211.26 250.823 -216.045 234.61C-222.638 212.283 -236.146 195.164 -257.178 182.29C-282.24 166.951 -339.353 163.524 -363.744 191.412C-367.522 195.73 -371.757 199.714 -375.345 204.146C-377.846 207.229 -380.384 208.138 -384.633 207.617C-430.995 201.84 -468.952 182.866 -497.725 149.416C-500.27 146.449 -502.483 145.482 -506.075 147.398L-450.714 104.352C-450.187 107.339 -448.045 109.387 -445.918 111.484C-424.204 132.935 -397.355 146.606 -366.637 154.635C-360.997 156.11 -356.893 155.588 -352.718 151.427C-342.165 140.907 -329.559 133.382 -313.874 130.798C-256.599 121.369 -210.498 152.302 -203.419 204.674C-200.999 222.538 -191.038 235.883 -172.151 242.082C-152.692 248.47 -135.129 244.071 -120.07 231.055C-101.952 215.399 -76.5268 214.163 -59.834 228.152C-51.7189 234.944 -49.1054 244.054 -46.5497 253.303C-44.7554 259.802 -42.4065 266.095 -36.2965 270.563C-39.0201 262.603 -40.7379 254.607 -41.1431 246.28C-41.8947 230.758 -50.4445 219.9 -65.9629 213.881C-80.8364 208.107 -95.0167 210.212 -108.343 218.633C-117.473 224.407 -127.647 227.596 -138.588 227.63C-164.77 227.701 -185.767 207.484 -185.25 182.67C-185.031 171.432 -185.758 160.538 -188.814 149.532C-201.771 102.832 -275.288 68.6935 -325.766 108.204C-329.294 110.966 -332.019 110.696 -335.549 109.055C-345.978 104.212 -356.151 99.0199 -365.705 92.8238C-378.278 84.6644 -387.938 73.7738 -398.932 64.1249L-345.978 22.9501C-334.779 38.3553 -319.568 50.0256 -303.683 61.1718C-297.118 65.772 -291.595 66.1439 -283.918 62.5071C-252.393 47.5874 -222.207 52.5782 -195.668 70.8754C-164.659 92.2658 -154.505 121.959 -163.119 156.988C-169.863 184.479 -146.134 210.243 -115.533 208.808C-107.253 208.416 -99.6658 206.306 -92.1839 203.082C-59.9442 189.194 -29.1581 207.566 -30.6867 239.68C-30.8385 243.009 -31.3363 246.345 -31.3091 249.664C-31.2719 254.973 -30.7963 260.24 -27.2611 264.844C-27.7272 255.875 -25.5359 247.303 -23.4293 238.685C-17.896 215.924 -33.5631 196.228 -58.9033 193.442C-67.0051 192.556 -74.43 194.951 -82.086 196.388C-98.7592 199.517 -113.773 197.305 -126.206 186.05C-142.871 170.957 -143.521 153.097 -136.38 133.902C-134.28 128.256 -131.736 122.751 -130.873 116.76C-125.347 78.4953 -144.105 46.8886 -181.952 30.0119C-192.932 25.1123 -203.924 21.4904 -216.438 23.1768C-224.991 24.3211 -233.728 24.9562 -241.725 28.2067C-248.099 30.7925 -252.315 28.9944 -256.758 24.797C-270.688 11.6076 -282.742 -2.77808 -291.831 -19.1712L-291.852 -19.3045ZM-6.15261 261.925C-0.571696 253.2 8.65221 247.838 16.3212 241.035C38.3695 221.446 29.849 188.542 0.536817 179.083C-12.3525 174.921 -23.6154 168.897 -29.6999 157.185C-40.993 135.432 -32.7923 113.546 -7.62958 97.956C11.3292 86.2005 24.4564 70.6743 31.4311 50.656C43.0552 17.3361 28.3478 -35.8603 -25.6539 -45.3637C-30.0351 -46.1378 -30.647 -48.2375 -31.1993 -51.5408C-41.4863 -112.859 -20.0131 -162.833 33.6851 -202.478C54.5168 -217.854 88.704 -206.382 98.0617 -188.145C100.164 -184.05 100.191 -181.42 95.341 -178.116C50.4199 -147.423 30.2793 -105.895 29.9689 -55.8031C29.9271 -49.089 32.1024 -44.9387 39.3499 -42.3434C71.5393 -30.8292 84.9327 6.0877 82.8405 27.4607C79.3399 63.068 58.3301 86.8139 23.0904 101.673C4.90206 109.339 -5.37147 122.983 -5.86007 141.336C-6.32874 159.132 2.96967 172.059 20.2006 180.198C34.7585 187.057 44.3514 197.142 45.2826 212.767C46.2415 228.8 37.8457 240.05 23.1825 248.242C18.9345 250.612 14.8447 253.306 11.0436 256.243C8.01271 258.581 4.28069 260.681 3.99127 265.329C12.3 258.01 23.1852 255.537 32.9863 251.126C37.7242 248.991 41.9507 246.265 45.2406 242.27C60.4546 223.796 56.8419 199.654 36.913 185.96C28.96 180.498 22.1196 174.003 19.1523 164.981C11.3159 141.213 26.8314 116.569 54.5237 109.221C65.9761 106.177 76.7054 101.959 86.9059 96.2854C132.528 70.9456 145.072 1.52464 102.326 -27.1079C98.7772 -29.4812 95.3567 -32.0288 91.7341 -34.3258C88.9404 -36.0916 87.5608 -37.9677 88.1588 -41.4188C95.453 -83.3727 116.526 -118.123 154.19 -144.106C159.247 -147.59 160.493 -149.791 155.982 -154.551C119.542 -193.089 83.2956 -231.777 47.1933 -270.577C42.8087 -275.268 39.834 -275.493 34.5348 -271.335C8.60856 -250.915 -17.8955 -231.09 -43.7106 -210.551C-54.0198 -202.348 -64.1012 -194.547 -72.1167 -183.312C-103.034 -139.973 -108.919 -95.1776 -90.9877 -47.3809C-89.0966 -42.3564 -86.3298 -39.7299 -80.1466 -39.1625C-65.8924 -37.8534 -52.7076 -33.753 -41.5533 -25.1996C1.67325 7.9491 1.18383 66.187 -42.2655 100.699C-57.8657 113.091 -63.8043 129.037 -58.1408 147.235C-52.5955 165.04 -38.2368 174.442 -18.759 177.382C0.324168 180.256 13.4351 190.591 17.7175 207.045C21.2929 220.764 14.9985 231.705 5.66659 241.798C0.235382 247.682 -4.83927 253.681 -6.10641 261.908L-6.15261 261.925Z" fill="url(#paint0_linear_3500_28581)"/>
</g>
<defs>
<linearGradient id="paint0_linear_3500_28581" x1="248.392" y1="221.5" x2="-50.1039" y2="247.885" gradientUnits="userSpaceOnUse">
<stop stop-color="#F22C5B"/>
<stop offset="1" stop-color="#F22C5B" stop-opacity="0"/>
</linearGradient>
</defs>
</svg>
