<svg width="388" height="196" viewBox="0 0 388 196" fill="none" xmlns="http://www.w3.org/2000/svg">
<path d="M377.468 53.5543C346.073 78.8587 313.414 100.327 275.849 114.731C238.107 129.204 198.508 130.273 158.777 131.497C158.644 132.687 158.493 133.876 158.358 135.082C161.276 136.017 164.167 137.683 167.12 137.787C204.795 139.165 241.199 133.354 276.619 120.378C302.679 110.835 327.126 98.5945 350.11 83.3016C355.446 79.7456 361.395 77.0058 367.286 74.3447C375.212 70.7634 382.012 72.694 387.959 79.3413C386.623 81.068 385.725 82.8466 384.3 84.0158C343.007 117.945 298.774 147.136 244.927 157.564C222.97 161.818 200.108 162.431 177.619 162.858C155.949 163.267 134.126 162.246 112.558 160.012C96.9803 158.41 81.7405 153.783 66.3533 150.512C62.3564 149.657 58.337 148.867 54.3374 148.046C53.9371 148.964 53.5199 149.881 53.1211 150.782C56.4979 152.538 59.747 154.6 63.2741 155.984C91.953 167.226 122.348 167.719 152.521 168.844C173.394 169.621 194.343 168.471 215.207 169.347C227.234 169.847 239.21 172.394 251.112 174.585C254.482 175.206 258.35 177.201 260.398 179.783C262.753 182.757 263.327 187.088 264.682 190.832C261.344 191.664 258.021 193.131 254.661 193.211C214.574 194.207 174.489 194.986 134.416 195.817C98.8094 196.572 62.8801 194.268 30.3427 180.514C-11.516 162.81 -48.2676 136.963 -62.9835 91.2782C-76.8616 48.1952 -47.0375 4.24009 -1.40951 0.288137C8.48412 -0.567233 19.3425 2.30647 28.8732 5.79039C44.946 11.651 60.5193 19.0054 75.9701 26.4C113.373 44.2628 152.884 48.7228 193.875 45.8654C225.02 43.7005 254.001 34.242 282.567 22.8325C292.2 18.9883 302.009 15.4751 311.919 12.3868C315.556 11.2452 319.795 11.2358 323.639 11.6782C325.781 11.9171 328.774 13.7916 329.373 15.5739C329.835 16.9782 327.716 20.126 325.924 21.1991C316.548 26.8481 307.309 32.9082 297.322 37.3242C267.54 50.4532 238.087 64.9426 204.845 67.9561C195.052 68.8362 185.116 68.1542 175.25 68.4783C171 68.6201 166.77 69.5306 162.517 70.1058L162.425 73.033C165.429 73.5578 168.405 74.3974 171.421 74.5731C210.417 76.8408 246.973 67.7911 281.879 51.4058C295.875 44.8444 309.714 37.9368 323.667 31.2886C333.4 26.6521 343.282 25.1288 355.535 31.0659C351.12 35.613 348.017 39.7487 344.052 42.7814C297.413 78.3485 244.034 96.4168 185.462 100.846C177.309 101.457 169.162 102.186 161.021 102.849C161.035 104.101 161.049 105.352 161.048 106.586C166.256 107.005 171.565 108.249 176.651 107.69C192.047 105.977 207.345 103.388 222.711 101.422C264.816 96.0366 301.754 77.9471 337.568 56.9996C343.599 53.4828 349.939 50.3409 356.424 47.7108C364.723 44.343 369.193 45.6527 377.504 53.5404L377.468 53.5543Z" fill="url(#paint0_linear_3500_29038)"/>
<defs>
<linearGradient id="paint0_linear_3500_29038" x1="150.207" y1="199.42" x2="-1.67415" y2="25.5372" gradientUnits="userSpaceOnUse">
<stop stop-color="#F22C5B"/>
<stop offset="1" stop-color="#F22C5B" stop-opacity="0"/>
</linearGradient>
</defs>
</svg>
