<svg width="222" height="568" viewBox="0 0 222 568" fill="none" xmlns="http://www.w3.org/2000/svg">
<path d="M250.531 171.622V541.643L48.5332 485.56V134.304C48.5332 79.4861 70.0027 30.3608 103.938 1.26514C108.094 0.632629 112.249 0.210876 116.635 6.10352e-05C117.559 6.10352e-05 118.482 6.10352e-05 119.406 6.10352e-05C189.355 6.10352e-05 250.531 76.1127 250.531 171.622Z" fill="#AADCDB"/>
<path d="M250.531 541.544V567.442L0.630859 494.591L48.0657 485.327L250.531 541.544Z" fill="#AADCDB"/>
<path d="M104.062 1.58316C70.3184 30.6729 48.5929 79.7881 48.5929 134.595V485.569L1.21289 494.844V154.199C1.21289 76.4154 44.6639 11.2797 104.062 1.58316Z" fill="#AADCDB"/>
<path d="M250.551 171.622V541.643L48.5527 485.56V134.304C48.5527 79.486 70.0222 30.3608 103.958 1.26511C108.113 0.632592 112.269 0.210838 116.655 0C117.578 0 118.502 0 119.425 0C189.374 0 250.551 76.1126 250.551 171.622Z" fill="#1F1D37"/>
<path fill-rule="evenodd" clip-rule="evenodd" d="M149.153 497.58C112.773 497.58 83.2809 470.14 83.2809 436.286C83.2809 428.359 84.8991 420.785 87.8398 413.827C87.0589 417.074 86.6438 420.451 86.6438 423.914C86.6438 449.305 108.77 469.885 136.06 469.885C163.35 469.885 185.469 449.305 185.469 423.914C185.469 398.523 163.35 377.943 136.06 377.943C132.598 377.943 129.222 378.27 125.964 378.905C133.175 376.379 140.992 374.998 149.153 374.998C185.539 374.998 215.031 402.431 215.031 436.286C215.031 470.14 185.532 497.58 149.153 497.58Z" fill="#1F1D37"/>
<mask id="mask0_3500_28565" style="mask-type:alpha" maskUnits="userSpaceOnUse" x="48" y="0" width="203" height="542">
<path d="M250.551 171.622V541.643L48.5527 485.56V134.304C48.5527 79.4861 70.0222 30.3608 103.958 1.26514C108.113 0.632629 112.269 0.210876 116.655 6.10352e-05C117.578 6.10352e-05 118.502 6.10352e-05 119.425 6.10352e-05C189.374 6.10352e-05 250.551 76.1127 250.551 171.622Z" fill="#686FAB"/>
</mask>
<g mask="url(#mask0_3500_28565)">
<path d="M542.404 -19.3045L485.84 -63.2866C480.606 -42.8135 469.504 -25.1116 455.882 -8.49247C452.032 -3.79624 448.078 -2.27912 441.389 -3.39329C406.84 -9.18621 380.229 3.47437 360.799 27.9517C337.583 57.2124 338.593 88.5692 357.927 119.933C362.755 127.774 364.988 135.968 364.863 144.55C364.451 170.359 338.971 189.124 310.58 184.947C278.278 180.174 253.758 200.469 258.976 227.614C260.171 233.806 263.636 239.281 265.663 245.206C267.485 250.504 269.218 255.809 267.352 261.562C264.63 252.335 258.348 244.893 253.526 236.758C248.197 227.762 246.311 218.419 250.141 208.519C256.916 190.999 270.534 182.122 291.335 181.368C308.607 180.744 323.555 175.98 332.551 161.288C344.118 142.398 340.717 124.804 326.325 108.164C304.228 82.6019 297.367 54.4793 310.555 24.3638C319.968 2.86619 335.547 -14.3782 361.382 -21.1843C370.626 -23.6264 380.365 -24.7513 390.084 -23.8761C395.723 -23.373 398.364 -25.2201 400.852 -29.5938C414.397 -53.4218 420.825 -78.752 420.258 -105.714C420.213 -108.156 418.798 -111.067 422.035 -112.862C352.746 -166.776 283.386 -220.614 214.228 -274.668C209.836 -278.083 208.211 -277.835 204.614 -273.987C137.506 -201.906 70.1928 -129.983 2.92779 -58.0227C5.87478 -58.8854 7.25664 -61.3197 9.08718 -63.2558C20.2625 -75.0777 31.508 -86.8637 42.4305 -98.8821C45.8963 -102.701 48.7611 -103.142 52.5432 -99.4735C55.7962 -96.3282 59.0916 -93.2059 62.5688 -90.2782C83.5905 -72.5702 95.2633 -50.0187 103.678 -25.7826C105.045 -21.8643 104.741 -18.76 100.948 -15.6807C77.9348 3.02473 72.7508 27.1573 78.1479 53.8435C85.023 87.8194 119.804 115.33 161.034 119.823C167.675 120.545 174.024 121.935 179.872 124.616C212.381 139.461 215.642 175.815 193.586 194.63C168.76 215.808 178.274 250.007 211.179 259.094C216.957 260.694 222.729 262.345 228.355 264.33C233.012 265.973 237.446 268.189 240.581 272.194C230.637 268.736 220.497 267.179 210.076 266.299C193.537 264.917 181.823 256.816 174.878 243.036C168.07 229.531 170.501 216.77 179.319 205.224C193.65 186.468 191.549 164.416 173.302 148.231C161.641 137.895 147.49 135.402 132.011 135.666C99.9292 136.215 72.6633 125.876 53.0559 102.119C31.5183 76.0035 24.5452 39.8424 50.1206 11.7259C54.8371 6.54675 54.6905 2.92399 51.5132 -2.57009C39.1777 -23.9012 22.7895 -42.0751 1.92954 -56.9325C-12.8914 -41.0771 -27.7022 -25.2324 -42.5231 -9.37698C-41.3054 -8.99003 -39.8572 -8.87183 -38.8901 -8.1945C-22.9875 3.05089 -8.71016 15.7015 2.67566 30.9563C5.97196 35.3671 6.71004 39.0018 3.74281 43.9548C-3.06654 55.3081 -7.22918 67.4316 -5.64838 80.7921C0.329074 131.091 51.239 165.582 105.646 155.889C113.246 154.539 120.716 154.375 128.226 155.455C157.738 159.701 179.673 188.571 163.348 217.33C149.53 241.673 164.055 270.399 193.315 274.692C199.585 275.61 205.852 275.108 212.118 274.83C219.327 274.5 226.208 275.52 232.732 278.634C224.579 278.863 216.561 278.993 208.702 281.02C191.798 285.364 176.466 282.756 164.067 270.52C152.306 258.912 150.108 245.612 154.607 230.615C158.804 216.633 156.342 203.259 145.188 191.824C129.997 176.261 109.839 172.214 86.3932 179.665C65.164 186.413 43.7383 187.39 21.8017 180.71C-15.1886 169.436 -54.9684 127.418 -34.5501 81.6302C-32.855 77.8157 -34.3433 75.6506 -37.1212 72.9307C-51.6696 58.6136 -69.468 48.5071 -87.9961 39.2701L-134.469 88.9873C-111.965 94.1488 -92.1394 104.376 -73.3128 116.495C-68.5405 119.572 -66.9014 123.31 -67.8164 128.757C-69.238 137.17 -70.5474 145.708 -67.9779 154.276C-51.284 210.052 16.2907 233.517 70.4009 205.267C87.5324 196.322 105.386 196.43 122.388 206.478C139.852 216.809 146.54 231.864 143.538 250.284C138.682 279.935 169.394 303.217 200.153 293.055C204.547 291.6 208.902 289.966 213.387 288.769C219.687 287.098 226.129 286.209 232.732 287.816C223.752 290.464 214.631 292.797 207.126 297.935C179.196 317.054 139.54 298.537 138.504 265.052C138.136 253.306 133.027 242.764 122.697 234.806C103.757 220.229 77.255 220.189 57.8077 234.724C24.2768 259.79 -17.7731 262.088 -54.2246 240.744C-76.5864 227.649 -91.08 210.183 -91.6446 185.108C-91.6936 182.737 -92.3157 180.312 -92.0489 177.981C-91.5202 173.503 -93.6818 171.169 -98.0197 169.139C-123.334 157.313 -149.986 151.297 -178.308 151.56C-182.837 151.603 -187.656 153.268 -192.054 150.613L-274.897 239.24C-269.696 242.146 -265.694 240.554 -260.928 237.635C-216.185 210.2 -167.702 206.335 -116.348 221.163C-110.208 222.932 -106.902 225.82 -106.027 232.043C-102.897 254.373 -88.3762 270.143 -68.1671 281.695C-29.389 303.84 20.0371 296.453 50.3738 264.554C64.9552 249.222 89.5786 244.534 109.481 254.168C123.356 260.869 132.273 271.629 135.558 285.811C141.904 313.216 169.068 326.91 196.166 316.308C203.219 313.542 208.496 308.519 214.434 304.346C219.349 300.889 224.529 297.992 231.372 297.919C220.851 303.662 213.957 312.616 205.869 320.512C202.66 323.634 198.515 325.712 194.074 327.261C171.287 335.186 146.535 324.47 137.294 302.652C124.971 273.548 89.5068 263.665 62.5323 281.828C56.1815 286.11 51.4873 291.754 47.2402 297.765C26.8065 326.651 -16.1504 343.548 -57.2184 330.055C-72.6987 324.961 -88.6583 319.979 -97.916 305.894C-102.386 299.115 -107.827 292.552 -109.625 284.826C-111.619 276.221 -117.511 274.476 -125.709 273.664C-188.054 267.46 -239.289 285.031 -278.449 329.703C-294.725 348.272 -288.244 376.043 -264.747 387.502C-258.285 390.66 -254.927 389.78 -250.672 384.672C-217.441 344.964 -172.127 328.258 -117.769 328.979C-112.104 329.054 -108.576 330.771 -106.231 335.599C-89.0641 371.082 -35.3782 384.906 1.12557 371.222C26.4581 361.729 42.2516 344.166 53.8888 322.401C62.4753 306.345 77.2859 298.171 97.169 298.066C116.028 297.967 129.789 306.745 139.158 320.823C147.914 333.978 158.941 343.391 176.234 344.501C194.581 345.683 207.626 338.264 216.207 323.548C220.473 316.227 226.45 309.9 234.995 306.205C233.482 309.358 231.529 312.114 229.434 314.778C224.359 321.208 223.129 329.304 218.701 335.976C203.992 358.115 167.528 359.306 148.794 338.394C141.859 330.651 133.946 323.975 123.092 321.247C96.2005 314.465 69.4075 328.477 63.2729 353.849C53.6978 393.417 15.8506 420.166 -29.2823 418.537C-57.2573 417.538 -77.8419 406.833 -93.2876 386.406C-96.0297 382.781 -98.5946 382.168 -102.967 382.799C-135.776 387.505 -164.801 399.37 -189.506 419.373C-198.954 427.013 -209.019 434.379 -212.752 446.221L-171.833 478.038C-169.754 475.791 -166.361 477.142 -165.55 478.053C-162.539 481.457 -161.04 479.898 -158.79 477.579C-139.941 458.193 -116.264 445.491 -89.7777 436.41C-80.4495 433.212 -73.6524 433.588 -66.1677 440.677C-47.9991 457.903 -24.6803 462.037 -0.186401 458.555C44.4932 452.199 71.5815 424.643 76.4392 382.339C78.5729 363.804 89.0434 351.136 108.361 344.899C127.3 338.778 143.824 343.489 158.194 355.707C184.178 377.778 220.715 368.505 229.113 337.577C230.174 333.662 231.28 329.744 232.756 325.964C234.417 321.675 236.811 317.714 240.969 314.732C238.977 321.955 237.223 328.99 237.196 336.378C237.138 352.981 228.89 364.784 212.141 371.563C196.862 377.748 182.739 375.315 169.097 366.966C160.4 361.64 150.795 358.353 140.263 358.637C112.086 359.367 92.5383 380.057 94.6609 406.978C96.5784 431.295 89.5854 452.938 70.962 470.26C47.3687 492.21 18.467 501.185 -15.1846 493.254C-25.384 490.847 -35.2137 486.023 -43.4023 479.375C-46.156 477.141 -48.4041 476.811 -51.7301 478.369C-70.3396 487.116 -87.6934 497.344 -101.479 511.914C-104.352 514.943 -108.589 517.808 -109.41 521.332C-110.488 525.887 -103.723 526.631 -100.891 529.561C-98.5547 531.974 -99.909 532.023 -102.029 532.334L-97.2149 536.077C-95.2242 533.836 -93.7119 535.553 -91.9232 536.552C-81.534 542.335 -73.2866 550.409 -64.4128 557.813C-60.6607 560.935 -58.0483 561.231 -54.7651 556.785C-45.2295 543.893 -32.0046 534.281 -18.7779 524.689C-12.5812 520.194 -6.7702 519.58 0.453991 523.368C32.6374 540.274 76.1959 527.447 96.9254 506.182C118.578 483.974 125.14 458.412 117.491 429.377C110.276 401.968 132.183 376.841 162.95 376.632C173.346 376.559 182.234 380.391 191.492 383.782C218.966 393.853 247.374 376.002 246.619 349.286C246.475 344.526 245.773 339.763 245.865 335.019C245.964 329.31 246.244 323.518 250.29 318.545C249.849 328.244 252.573 337.38 254.879 346.675C260.386 368.93 244.255 388.788 219.428 391.581C211.395 392.483 203.896 390.478 196.199 389.085C177.553 385.71 161.407 389.243 149.361 403.375C138.187 416.485 136.22 431.062 142.923 446.39C152.108 467.38 154.314 488.319 146.517 509.823C134.489 542.967 87.8112 575.672 39.8294 556.747C35.9865 555.233 33.4056 555.616 30.8081 558.15C19.3092 569.384 7.77621 580.611 0.159671 594.584C-2.07585 598.687 -2.61994 603.471 -5.75938 607.208L48.3978 649.318C54.5484 628.532 64.065 609.28 78.4143 592.106C82.122 587.672 85.7833 585.779 92.1865 587.044C131.108 594.762 170.905 569.529 182.611 537.664C191.932 512.306 188.038 488.17 172.688 465.017C161.751 448.526 161.801 431.598 174.159 416.087C185.556 401.805 201.709 397.419 221.042 400.059C236.438 402.175 250.27 398.094 260.626 387.37C271.613 376.017 273.134 362.829 266.87 348.72C265.195 344.954 263.248 341.256 261.8 337.425C260.114 332.959 258.816 328.367 260.02 323.61C263.461 330.224 266.346 336.853 270.869 342.796C280.831 355.862 283.21 369.525 274.944 383.815C266.925 397.662 253.102 402.423 236.839 403.458C226.012 404.147 215.591 406.291 207.163 412.951C186.733 429.092 184.587 453.888 203.051 474.199C233.905 508.157 233.402 546.735 214.009 573.463C204.238 586.917 193.232 599.692 174.75 604.19C164.126 606.773 153.206 608.006 142.197 607.733C138.134 607.634 135.977 608.607 134.24 611.755C122.463 633.225 115.35 655.82 115.774 680.133C115.94 689.071 113.658 698.849 123.688 705.528C122.252 705.196 120.829 704.873 119.404 704.53L210.87 775.65C212.558 771.532 218.612 769.502 213.09 762.67C179.948 721.689 174.383 676.973 191.57 629.662C193.419 624.548 196.434 622.19 202.569 621.697C229.029 619.557 247.468 606.123 260 585.913C280.914 552.156 271.771 511.135 237.701 483.598C221.812 470.758 215.464 455.072 221.038 436.636C226.363 418.978 241.047 410.406 260.075 407.08C271.457 405.086 281.293 400.789 288.139 391.909C300.819 375.454 299.196 360.026 282.636 342.614C276.653 336.32 271.492 329.768 270.128 321.223C277.029 329.781 285.551 336.762 293.979 343.931C315.9 362.544 307.103 397.323 278.809 405.559C260.215 410.977 247.594 421.656 245.179 439.935C242.684 458.88 251.88 473.253 269.033 483.716C276.522 488.289 283.53 493.309 289.98 499.015C331.721 535.932 323.431 614.835 256.147 628.232C252.452 628.961 251.267 630.783 250.79 634.051C242.129 693.274 263.608 741.686 315.073 779.762C339.096 797.527 371.19 784.781 379.966 767.1C381.871 763.261 381.845 761.021 377.625 758.243C331.971 728.157 311.867 686.656 310.874 636.65C310.759 631.036 312.549 627.388 318.567 625.107C339.238 617.289 350.995 602.243 358.081 583.546C372.108 546.618 350.87 502.351 310.697 485.411C303.245 482.267 296.095 478.91 289.722 474.122C273.277 461.746 267.515 439.385 277.39 422.951C282.924 413.741 290.916 406.835 301.486 401.597C327.142 388.847 330.847 360.093 309.717 342.19C305.342 338.489 299.754 335.973 294.767 332.86C289.105 329.335 283.791 325.483 280.857 319.506C288.158 324.101 295.807 327.79 303.943 330.514C320.237 335.961 330.286 346.22 332.689 361.88C335.05 377.229 328.251 389.038 314.984 398.207C296.223 411.185 291.348 430.052 301.513 449.658C308.414 462.975 320.648 470.696 335.698 474.317C352.641 478.402 367.162 485.923 380.218 496.523C413.843 523.825 425.029 587.562 373.022 616.142C369.297 618.192 368.993 620.363 369.68 623.696C378.342 666.21 400.638 701.053 440.229 726.219C442.756 727.829 445.93 728.88 447.287 731.764L489.719 686.37C487.259 686.155 485.329 684.953 483.449 683.584C456.311 663.771 438.1 638.543 427.523 608.594C425.599 603.16 426.659 599.468 431.244 595.475C455.539 574.331 460.102 548.017 449.295 520.093C435.928 485.548 406.633 467.864 367.536 463.09C346.776 460.553 331.639 451.135 324.297 432.977C317.279 415.65 323.084 400.791 336.217 387.898C347.743 376.59 351.796 363.673 346.224 348.534C340.985 334.307 329.14 327.281 314.08 323.671C304.585 321.401 294.996 319.32 287.724 312.36C296.781 314.698 305.779 316.656 315.163 317.066C332.69 317.835 345.558 325.302 352.821 340.188C359.53 353.953 356.856 366.618 347.912 378.588C341.605 387.048 338.325 396.404 339.702 406.825C342.744 430.094 366.064 447.256 393.181 446.281C429.314 445 459.808 456.244 479.653 484.459C495.076 506.4 503.568 530.62 488.307 555.951C485.317 560.905 481.852 565.658 478.12 570.184C474.887 574.109 475.069 577.405 477.555 581.838C490.777 605.445 510.377 623.895 533.162 639.895L577.614 592.34C574.2 592.746 571.536 591.216 568.984 589.455C552.878 578.406 538.897 565.482 526.972 550.648C523.14 545.877 522.509 541.728 525.799 536.429C537.651 517.369 537.519 497.389 528.464 477.284C511.938 440.582 469.276 419.168 426.313 425.888C416.722 427.389 407.249 428.497 397.551 426.667C366.72 420.853 350.112 389.463 364.365 364.188C368.211 357.362 370.306 350.051 369.295 342.173C366.493 320.603 348.075 306.58 324.022 307.922C315.048 308.429 306.147 308.88 297.513 305.488C306.182 305.174 314.577 303.975 322.896 302.101C338.694 298.539 352.715 302.238 363.922 312.948C375.62 324.134 377.967 337.587 373.605 352.169C370.802 361.504 370.29 370.923 374.605 380.158C384.958 402.298 411.952 413.061 438.306 405.277C450.503 401.678 462.678 399.013 475.702 398.464C527.047 396.339 586.679 445.954 563.006 501.361C561.269 505.442 562.6 507.821 565.649 510.695C581.635 525.72 600.234 537.214 621.041 545.815L667.514 496.098C642.489 490.899 620.451 480.015 599.971 466.106C596.064 463.46 594.815 460.417 595.727 456.218C597.338 448.736 598.585 441.176 596.951 433.542C590.589 403.753 570.762 383.633 540.511 372.597C511.634 362.07 483.59 365.815 456.813 379.298C428.792 393.4 392.353 379.512 385.364 352.484C383.224 344.213 384.42 336.464 384.645 328.464C385.398 300.756 356.726 281.672 328.304 290.89C323.886 292.326 319.536 293.889 315.075 295.217C309.313 296.933 303.42 297.502 297.286 296.372C307.536 293.61 316.28 288.614 325.3 283.944C336.538 278.124 348.485 277.616 360.753 282.433C377.919 289.192 387.205 300.78 388.23 317.758C389.189 333.696 395.517 346.959 411.557 355.344C431.845 365.968 450.938 363.438 468.678 351.308C505.937 325.856 548.131 324.248 584.266 348.109C597.69 356.96 610.773 366.797 614.841 382.633C617.167 391.683 619.602 400.818 618.486 410.215C618.088 413.62 618.972 415.875 622.712 417.7C651.237 431.65 681.524 438.067 713.625 437.141C716.459 437.067 719.357 436.279 722.094 437.753L803.927 350.208C800.611 348.152 797.98 348.943 794.719 350.831C786.193 355.773 777.73 361.137 768.428 364.617C727.246 380.039 685.356 381.453 642.925 366.639C638.236 365.009 635.755 362.949 635.04 358.156C632.449 340.763 624.001 326.411 609.364 314.19C574.003 284.698 516.718 284.575 480.485 318.645C474.784 324.01 468.782 328.564 461.546 331.97C433.248 345.279 397.23 328.34 392.198 299.418C389.637 284.66 381.238 273.725 365.777 267.788C349.876 261.676 335.576 264.368 322.579 273.915C319.343 276.288 316.146 278.73 312.743 280.88C308.227 283.733 303.51 286.355 297.508 286.485C307.244 281.028 314.048 272.992 321.606 265.618C325.539 261.789 330.627 259.325 336.262 257.809C358.905 251.75 381.182 262.446 389.97 283.37C397.128 300.414 410.276 311.16 430.537 313.496C450.483 315.791 466.229 308.306 477.038 294.053C490.672 276.043 507.693 263.037 530.829 256.428C571.387 244.832 620.095 262.735 635.238 298.027C641.346 312.257 649.597 315.481 663.802 316.448C725.789 320.657 775.544 300.778 813.972 257.067C829.7 239.173 818.539 211.85 800.311 202.492C793.985 199.233 789.734 198.467 784.28 204.902C750.989 244.096 705.772 260.654 651.665 259.643C644.066 259.501 638.514 257.815 635.092 250.582C629.208 238.112 619.207 228.712 605.972 222.173C555.578 197.247 498.179 215.009 475.148 262.703C462.907 288.049 428.421 296.284 403.231 280.3C395.095 275.131 390.04 268.288 385.144 260.786C370.521 238.367 338.488 234.307 318.759 252.412C314.254 256.542 311.022 261.867 307.555 266.843C304.235 271.596 299.961 275.123 293.919 277.162C299.979 270.19 303.156 261.967 307.292 254.208C318.132 233.895 344.385 226.686 366.527 237.594C373.728 241.14 378.477 246.886 383.746 252.233C396.918 265.555 412.903 270.687 431.985 266.17C450.271 261.837 461.813 250.823 466.598 234.61C473.191 212.283 486.699 195.164 507.731 182.29C532.793 166.951 589.905 163.524 614.297 191.412C618.075 195.73 622.31 199.714 625.898 204.146C628.399 207.229 630.936 208.138 635.186 207.617C681.547 201.84 719.505 182.866 748.278 149.416C750.823 146.449 753.036 145.482 756.628 147.398L701.267 104.352C700.74 107.339 698.597 109.387 696.47 111.484C674.756 132.935 647.908 146.606 617.189 154.635C611.55 156.11 607.445 155.588 603.271 151.427C592.717 140.907 580.112 133.382 564.426 130.798C507.152 121.369 461.051 152.302 453.972 204.674C451.551 222.538 441.591 235.883 422.704 242.082C403.245 248.47 385.681 244.071 370.623 231.055C352.504 215.399 327.08 214.163 310.387 228.152C302.272 234.944 299.658 244.054 297.102 253.303C295.308 259.802 292.959 266.095 286.849 270.563C289.573 262.603 291.291 254.607 291.696 246.28C292.447 230.758 300.997 219.9 316.516 213.881C331.389 208.107 345.569 210.212 358.896 218.633C368.025 224.407 378.2 227.596 389.141 227.63C415.323 227.701 436.32 207.484 435.802 182.67C435.583 171.432 436.311 160.538 439.366 149.532C452.324 102.832 525.841 68.6935 576.318 108.204C579.847 110.966 582.572 110.696 586.101 109.055C596.531 104.212 606.704 99.02 616.257 92.8238C628.83 84.6644 638.491 73.7738 649.485 64.1249L596.531 22.9501C585.331 38.3553 570.121 50.0256 554.236 61.1718C547.671 65.772 542.148 66.1439 534.471 62.5071C502.945 47.5874 472.76 52.5782 446.221 70.8754C415.212 92.2657 405.058 121.959 413.672 156.988C420.415 184.479 396.686 210.243 366.085 208.808C357.806 208.416 350.219 206.306 342.737 203.082C310.497 189.194 279.711 207.566 281.239 239.68C281.391 243.009 281.889 246.345 281.862 249.664C281.825 254.973 281.349 260.24 277.814 264.844C278.28 255.875 276.089 247.303 273.982 238.685C268.449 215.924 284.116 196.228 309.456 193.442C317.558 192.556 324.983 194.951 332.639 196.388C349.312 199.517 364.326 197.305 376.759 186.05C393.424 170.957 394.074 153.097 386.933 133.902C384.833 128.256 382.289 122.751 381.426 116.76C375.899 78.4953 394.658 46.8886 432.504 30.0119C443.485 25.1123 454.477 21.4904 466.991 23.1768C475.544 24.3211 484.281 24.9562 492.278 28.2067C498.652 30.7925 502.868 28.9944 507.311 24.797C521.24 11.6076 533.295 -2.77808 542.384 -19.1712L542.404 -19.3045ZM256.705 261.925C251.124 253.2 241.901 247.838 234.232 241.035C212.183 221.446 220.704 188.542 250.016 179.083C262.905 174.921 274.168 168.897 280.253 157.185C291.546 135.432 283.345 113.546 258.182 97.956C239.224 86.2006 226.096 70.6743 219.122 50.656C207.498 17.3361 222.205 -35.8602 276.207 -45.3637C280.588 -46.1378 281.2 -48.2375 281.752 -51.5408C292.039 -112.859 270.566 -162.833 216.868 -202.478C196.036 -217.854 161.849 -206.382 152.491 -188.145C150.388 -184.05 150.362 -181.42 155.212 -178.116C200.133 -147.423 220.273 -105.895 220.584 -55.8031C220.626 -49.089 218.45 -44.9387 211.203 -42.3434C179.013 -30.8292 165.62 6.08771 167.712 27.4607C171.213 63.068 192.223 86.8139 227.462 101.673C245.651 109.339 255.924 122.983 256.413 141.336C256.881 159.132 247.583 172.059 230.352 180.198C215.794 187.057 206.201 197.142 205.27 212.767C204.311 228.8 212.707 240.05 227.37 248.242C231.618 250.612 235.708 253.306 239.509 256.243C242.54 258.581 246.272 260.681 246.561 265.329C238.253 258.01 227.368 255.537 217.566 251.126C212.829 248.991 208.602 246.265 205.312 242.27C190.098 223.796 193.711 199.654 213.64 185.96C221.593 180.498 228.433 174.003 231.4 164.981C239.237 141.213 223.721 116.569 196.029 109.221C184.577 106.177 173.847 101.959 163.647 96.2854C118.024 70.9456 105.481 1.52464 148.227 -27.1079C151.776 -29.4812 155.196 -32.0288 158.819 -34.3258C161.612 -36.0916 162.992 -37.9677 162.394 -41.4188C155.1 -83.3727 134.027 -118.123 96.3626 -144.106C91.3061 -147.59 90.0594 -149.791 94.571 -154.551C131.01 -193.089 167.257 -231.777 203.359 -270.577C207.744 -275.268 210.719 -275.493 216.018 -271.335C241.944 -250.915 268.448 -231.09 294.263 -210.551C304.573 -202.348 314.654 -194.547 322.669 -183.312C353.587 -139.973 359.472 -95.1776 341.54 -47.3809C339.649 -42.3564 336.882 -39.7299 330.699 -39.1625C316.445 -37.8534 303.26 -33.753 292.106 -25.1996C248.879 7.94912 249.369 66.1871 292.818 100.699C308.418 113.091 314.357 129.037 308.694 147.235C303.148 165.04 288.79 174.442 269.312 177.382C250.229 180.256 237.118 190.591 232.835 207.045C229.26 220.764 235.554 231.705 244.886 241.798C250.317 247.682 255.392 253.681 256.659 261.908L256.705 261.925Z" fill="url(#paint0_linear_3500_28565)"/>
</g>
<defs>
<linearGradient id="paint0_linear_3500_28565" x1="2.16027" y1="221.5" x2="300.657" y2="247.885" gradientUnits="userSpaceOnUse">
<stop stop-color="#F22C5B"/>
<stop offset="1" stop-color="#F22C5B" stop-opacity="0"/>
</linearGradient>
</defs>
</svg>
