<svg width="201" height="383" viewBox="0 0 201 383" fill="none" xmlns="http://www.w3.org/2000/svg">
<path fill-rule="evenodd" clip-rule="evenodd" d="M211.527 369.338C206.985 368.658 203.257 365.626 203.945 360.45C204.524 356.123 207.253 348.661 211.527 345.217V369.338ZM211.527 296.313C209.466 312.639 203.974 328.508 194.904 342.204C182.293 361.258 162.583 375.814 140.295 380.784C124.97 384.201 108.193 382.929 94.6837 374.942C78.2966 365.247 68.6187 346.992 64.0521 328.493C59.54 310.184 59.54 289.83 69.0726 273.566C73.0854 266.724 78.5962 260.936 84.5609 255.757C88.4386 252.383 92.4806 249.548 96.5709 246.679L96.5713 246.678L96.5717 246.678L96.5722 246.678L96.5726 246.677L96.573 246.677L96.5735 246.677L96.5739 246.676C98.5637 245.281 100.565 243.877 102.564 242.4C114.866 233.322 125.343 221.138 131.135 206.917C134.173 199.471 136.295 191.726 138.417 183.98C140.295 177.123 142.174 170.264 144.689 163.612C149.038 152.1 156.673 140.315 168.666 137.589C180.341 134.936 191.88 141.714 201.813 148.402C202.848 143.931 200.705 139.106 197.173 136.18C193.642 133.264 188.93 132.055 184.345 132.001C173.632 131.873 163.582 137.562 155.684 144.812C144.372 155.189 136.573 168.582 129.936 182.266C128.025 186.209 126.147 190.16 124.272 194.106L124.272 194.107L124.272 194.107L124.271 194.108L124.271 194.108L124.271 194.109L124.271 194.109L124.27 194.112L124.269 194.112L124.269 194.112L124.269 194.113L124.269 194.113L124.269 194.113L124.269 194.113L124.269 194.113C119.679 203.772 115.102 213.405 110.063 222.828C103.971 234.213 95.637 244.544 85.0694 252.049C73.603 260.191 59.4401 264.825 45.4226 263.734C31.4051 262.644 17.7143 255.502 9.7886 243.881C1.83565 232.168 0.192413 217.176 1.30002 203.029C1.90448 195.323 3.24484 187.723 4.58551 180.122L4.58556 180.121L4.5856 180.121L4.58565 180.121L4.58569 180.121L4.58574 180.12L4.58578 180.12L4.58583 180.12L4.58588 180.12C5.31914 175.962 6.05249 171.804 6.66553 167.628C8.39957 155.816 9.31651 143.549 8.80811 131.383C8.79761 131.135 8.78665 130.886 8.77568 130.637V130.637C8.62534 127.222 8.47241 123.749 9.47086 120.497C10.5421 117.008 13.293 113.755 16.9154 113.274C21.709 112.647 25.5856 116.854 27.3105 120.861C28.1361 122.778 28.6821 124.8 29.2282 126.821L29.2282 126.822C29.751 128.757 30.2737 130.692 31.0419 132.537C33.4478 138.288 38.1959 142.886 43.7612 145.685C49.3174 148.483 55.6362 149.574 61.8642 149.465C65.0422 149.409 68.2059 149.052 71.3689 148.696C74.8743 148.301 78.3788 147.906 81.9009 147.92C88.601 147.947 95.7641 149.764 100.095 154.889C103.998 159.514 104.897 166.02 104.316 172.035C104.247 172.77 103.484 176.473 102.656 180.491L102.656 180.491C101.54 185.905 100.307 191.89 100.494 191.952C107.712 194.197 116.282 188.718 117.272 181.221C117.741 177.672 116.749 174.198 115.752 170.707L115.752 170.707C115.246 168.935 114.739 167.159 114.421 165.366C112.532 154.671 117.499 143.967 123.454 134.899C124.442 133.395 125.461 131.911 126.51 130.449C120.865 135.299 114.415 139.18 107.447 141.723C92.9211 147.03 76.3888 146.612 62.1443 140.578C60.3467 139.815 58.5854 138.97 56.8786 138.034C48.1449 133.282 40.5823 126.394 34.9989 118.171C27.6179 107.295 21.4626 94.2833 21.5988 80.8719C21.6442 76.1288 22.5157 71.2949 24.8853 67.1879C27.2548 63.0809 31.2676 59.7735 35.9341 58.9739C39.0324 58.4474 42.092 59.0754 45.1464 59.7022C48.3659 60.3629 51.5797 61.0225 54.8269 60.3277C60.2378 59.1738 65.1403 54.0672 65.1221 48.361C65.1221 47.834 65.0767 47.2979 64.8134 46.8436C64.0599 45.5079 61.9627 45.6987 60.8188 46.7073C60.0405 47.3935 59.5354 48.311 59.029 49.231C58.791 49.6632 58.5528 50.0959 58.2859 50.5054C56.2613 53.5947 52.421 55.2757 48.726 55.0667C45.0309 54.8577 41.5629 52.9224 39.0934 50.1692C37.3594 48.2338 36.0521 45.7896 36.0339 43.2C36.0158 40.6104 37.5228 37.9117 39.9741 37.0758C42.6614 36.1581 45.5757 37.5937 47.7909 39.3655C48.3921 39.8464 48.9746 40.3595 49.5571 40.8725L49.5572 40.8726C51.1208 42.2496 52.6842 43.6265 54.609 44.3812C56.9785 45.308 59.7566 45.1535 62.0081 43.9541C62.7981 43.5346 63.565 42.9878 64.3298 42.4424C66.1491 41.1451 67.9564 39.8563 70.0337 40.3105C72.2308 40.7921 73.5108 43.0546 74.2372 45.1808C76.5704 51.9956 75.9258 60.7548 72.3125 67.0334C69.9066 71.2131 65.4308 74.4933 60.61 74.2662C55.7468 74.0426 51.9842 70.6175 48.2182 67.1893C44.4828 63.7889 40.7442 60.3856 35.925 60.1006C36.6603 68.3509 43.7418 75.2656 51.84 76.9739C59.9382 78.6821 68.5902 75.7018 74.8454 70.2773C78.1483 67.4111 80.8356 63.9467 83.5232 60.4818L83.5238 60.4811C84.6701 59.0032 85.8166 57.5252 87.0109 56.0935C91.0056 51.305 95.8899 46.8345 101.954 45.3898C109.217 43.6725 117.497 47.1616 121.047 53.731C124.597 60.3005 122.808 69.3868 116.834 73.8664C114.631 75.5151 112.031 76.5298 109.439 77.5414C106.402 78.7265 103.376 79.9075 101.01 82.0986C98.6001 84.3334 97.1699 87.2549 95.7368 90.1824C94.6003 92.5039 93.4619 94.8291 91.8317 96.8184C87.6736 101.898 81.1914 104.705 74.6911 104.887C65.8756 105.132 57.5686 100.798 51.1318 95.0466C45.4395 89.9582 40.9364 83.6978 36.6331 77.3828C41.5719 86.778 47.6547 95.9007 56.3067 102.061C64.9496 108.222 76.5886 110.975 86.4208 106.968C95.1181 103.417 101.019 95.419 106.616 87.8343L106.966 87.3596C113.203 78.9093 122.618 66.7608 134.638 69.0779C141.202 70.3499 146.168 76.3106 147.766 82.8073C149.364 89.304 148.083 96.2006 145.832 102.497C144.363 106.596 142.463 110.557 140.189 114.304C144.624 109.85 149.377 105.714 154.404 101.943C162.211 96.0824 171.008 90.994 180.714 89.8764C190.41 88.7679 201.141 92.4297 206.198 100.789C210.188 107.379 210.058 115.366 209.931 123.215C209.901 125.009 209.872 126.796 209.893 128.557C209.957 133.767 210.507 138.971 211.527 144.081V186.093C209.091 186.793 206.421 186.961 203.892 186.819C202.145 186.72 200.4 186.504 198.657 186.288H198.657H198.657H198.657H198.657H198.656H198.656H198.656L198.656 186.288C195.426 185.888 192.2 185.489 188.975 185.837C177.167 187.119 170.274 196.283 163.46 205.343C159.838 210.159 156.238 214.945 151.934 218.503C148.364 221.454 144.259 223.716 140.167 225.971C134.622 229.026 129.102 232.067 124.97 236.793C123.599 238.365 122.374 240.164 122.02 242.218C121.666 244.271 122.356 246.616 124.117 247.733C127.086 249.614 130.871 247.261 133.441 244.871C139.969 238.815 145.588 231.882 151.206 224.95C153.486 222.136 155.767 219.322 158.108 216.567C166.215 207.017 175.375 197.94 186.787 192.779C194.506 189.292 203.081 187.85 211.527 188.394V233.051C211.049 235.441 210.729 237.859 210.555 240.255C209.998 248.02 210.7 255.785 211.403 263.555C211.445 264.012 211.486 264.47 211.527 264.927V296.313ZM57.2345 37.0849C53.1687 28.9907 45.9703 25.6736 38.6608 22.3054C35.4263 20.815 32.1701 19.3146 29.154 17.3857C11.4323 -11.845 66.5765 -3.51284 57.2345 37.0849Z" fill="url(#paint0_linear_3114_2850)"/>
<defs>
<linearGradient id="paint0_linear_3114_2850" x1="106.259" y1="0" x2="106.259" y2="382.564" gradientUnits="userSpaceOnUse">
<stop stop-color="#7266F8"/>
<stop offset="1" stop-color="#39A27A" stop-opacity="0"/>
</linearGradient>
</defs>
</svg>
