<svg width="217" height="568" viewBox="0 0 217 568" fill="none" xmlns="http://www.w3.org/2000/svg">
<path d="M244.967 171.622V541.643L46.957 485.56V134.304C46.957 79.4861 68.0027 30.3608 101.268 1.26514C105.342 0.632629 109.415 0.210876 113.715 6.10352e-05C114.62 6.10352e-05 115.525 6.10352e-05 116.43 6.10352e-05C184.999 6.10352e-05 244.967 76.1127 244.967 171.622Z" fill="#7266F8"/>
<path d="M244.967 541.544V567.442L0 494.591L46.4984 485.327L244.967 541.544Z" fill="#7266F8"/>
<path d="M101.389 1.58316C68.3116 30.6729 47.015 79.7881 47.015 134.595V485.569L0.570312 494.844V154.199C0.570312 76.4154 43.1635 11.2797 101.389 1.58316Z" fill="#7266F8"/>
<path d="M244.988 171.622V541.643L46.9779 485.56V134.304C46.9779 79.486 68.0236 30.3608 101.289 1.26511C105.363 0.632592 109.436 0.210838 113.736 0C114.641 0 115.546 0 116.451 0C185.019 0 244.988 76.1126 244.988 171.622Z" fill="#1F1D37"/>
<path fill-rule="evenodd" clip-rule="evenodd" d="M146.153 497.58C109.773 497.58 80.2809 470.141 80.2809 436.286C80.2809 428.359 81.8991 420.785 84.8398 413.827C84.0589 417.074 83.6438 420.452 83.6438 423.914C83.6438 449.305 105.77 469.885 133.06 469.885C160.35 469.885 182.469 449.305 182.469 423.914C182.469 398.523 160.35 377.943 133.06 377.943C129.598 377.943 126.222 378.271 122.964 378.905C130.175 376.379 137.992 374.998 146.153 374.998C182.539 374.998 212.031 402.431 212.031 436.286C212.031 470.141 182.532 497.58 146.153 497.58Z" fill="#1F1D37"/>
<mask id="mask0_3114_2569" style="mask-type:alpha" maskUnits="userSpaceOnUse" x="46" y="0" width="199" height="542">
<path d="M244.987 171.622V541.643L46.9766 485.56V134.304C46.9766 79.4861 68.0222 30.3608 101.288 1.26514C105.361 0.632629 109.435 0.210876 113.734 6.10352e-05C114.64 6.10352e-05 115.545 6.10352e-05 116.45 6.10352e-05C185.018 6.10352e-05 244.987 76.1127 244.987 171.622Z" fill="#686FAB"/>
</mask>
<g mask="url(#mask0_3114_2569)">
<path d="M531.079 -19.3044L475.631 -63.2865C470.501 -42.8135 459.618 -25.1115 446.264 -8.49245C442.491 -3.79622 438.615 -2.27909 432.058 -3.39326C398.19 -9.18618 372.105 3.47439 353.058 27.9517C330.301 57.2124 331.291 88.5692 350.243 119.933C354.976 127.774 357.165 135.968 357.043 144.55C356.639 170.359 331.662 189.124 303.831 184.947C272.167 180.174 248.131 200.469 253.246 227.614C254.417 233.806 257.814 239.281 259.801 245.206C261.587 250.505 263.286 255.809 261.457 261.562C258.789 252.335 252.631 244.893 247.903 236.758C242.68 227.762 240.831 218.419 244.585 208.519C251.227 190.999 264.576 182.122 284.966 181.368C301.897 180.744 316.55 175.98 325.368 161.288C336.707 142.398 333.373 124.804 319.265 108.164C297.604 82.6019 290.879 54.4794 303.806 24.3638C313.033 2.8662 328.305 -14.3782 353.63 -21.1843C362.692 -23.6263 372.238 -24.7513 381.765 -23.8761C387.293 -23.373 389.882 -25.2201 392.321 -29.5938C405.599 -53.4218 411.9 -78.752 411.344 -105.714C411.3 -108.156 409.913 -111.067 413.086 -112.862C345.165 -166.775 277.174 -220.614 209.382 -274.668C205.076 -278.083 203.483 -277.835 199.957 -273.987C134.174 -201.905 68.1894 -129.983 2.25237 -58.0226C5.14118 -58.8853 6.49573 -61.3196 8.29016 -63.2557C19.2448 -75.0777 30.2684 -86.8636 40.9753 -98.8821C44.3726 -102.701 47.1809 -103.142 50.8883 -99.4735C54.0771 -96.3282 57.3074 -93.2059 60.716 -90.2782C81.3226 -72.5701 92.765 -50.0187 101.014 -25.7826C102.353 -21.8643 102.055 -18.7599 98.3374 -15.6807C75.7787 3.02476 70.697 27.1573 75.9875 53.8436C82.7269 87.8195 116.821 115.331 157.238 119.823C163.747 120.545 169.971 121.935 175.703 124.616C207.571 139.461 210.767 175.815 189.147 194.63C164.811 215.808 174.137 250.007 206.392 259.094C212.056 260.694 217.714 262.345 223.229 264.33C227.794 265.973 232.141 268.189 235.214 272.194C225.466 268.736 215.526 267.179 205.311 266.299C189.098 264.917 177.616 256.816 170.808 243.036C164.135 229.531 166.517 216.77 175.161 205.224C189.21 186.468 187.15 164.416 169.263 148.231C157.832 137.895 143.961 135.402 128.787 135.666C97.3389 136.215 70.6112 125.876 51.3908 102.12C30.2784 76.0036 23.443 39.8425 48.5135 11.726C53.1369 6.54679 52.9932 2.92402 49.8786 -2.57004C37.7866 -23.9011 21.722 -42.0751 1.27383 -56.9325C-13.2545 -41.077 -27.7729 -25.2324 -42.3013 -9.37695C-41.1076 -8.99 -39.688 -8.87179 -38.74 -8.19446C-23.1513 3.05094 -9.15584 15.7015 2.00522 30.9563C5.23644 35.3671 5.95994 39.0018 3.0513 43.9548C-3.62365 55.3081 -7.70409 67.4316 -6.15451 80.7922C-0.295044 131.091 49.6098 165.582 102.943 155.889C110.393 154.539 117.715 154.375 125.077 155.455C154.006 159.701 175.508 188.571 159.506 217.33C145.96 241.673 160.199 270.399 188.881 274.692C195.027 275.61 201.171 275.108 207.313 274.83C214.379 274.5 221.125 275.52 227.52 278.634C219.528 278.863 211.668 278.993 203.964 281.02C187.394 285.364 172.365 282.756 160.21 270.52C148.682 258.912 146.527 245.612 150.938 230.615C155.051 216.633 152.638 203.259 141.704 191.824C126.813 176.261 107.053 172.214 84.0701 179.665C63.2599 186.413 42.2572 187.39 20.7537 180.71C-15.5064 169.436 -54.5009 127.419 -34.4857 81.6302C-32.824 77.8158 -34.283 75.6507 -37.006 72.9308C-51.2672 58.6137 -68.7142 48.5071 -86.8766 39.2702L-132.432 88.9873C-110.373 94.1488 -90.9381 104.376 -72.4832 116.495C-67.805 119.572 -66.1984 123.31 -67.0952 128.757C-68.4888 137.17 -69.7724 145.708 -67.2535 154.276C-50.8893 210.052 15.3515 233.517 68.3935 205.267C85.1867 196.322 102.688 196.43 119.355 206.478C136.473 216.809 143.03 231.864 140.087 250.284C135.327 279.935 165.432 303.217 195.584 293.055C199.892 291.6 204.16 289.966 208.557 288.769C214.733 287.098 221.048 286.209 227.52 287.816C218.717 290.464 209.776 292.797 202.419 297.935C175.04 317.054 136.168 298.537 135.152 265.052C134.791 253.306 129.783 242.764 119.657 234.806C101.091 220.229 75.1123 220.189 56.0489 234.724C23.1799 259.791 -18.0399 262.088 -53.7717 240.744C-75.6921 227.649 -89.8996 210.183 -90.4531 185.108C-90.501 182.737 -91.1109 180.312 -90.8494 177.981C-90.3311 173.503 -92.4501 171.169 -96.7023 169.139C-121.517 157.313 -147.642 151.297 -175.405 151.56C-179.845 151.603 -184.569 153.268 -188.88 150.613L-270.088 239.24C-264.989 242.146 -261.066 240.554 -256.394 237.635C-212.535 210.2 -165.009 206.335 -114.669 221.163C-108.65 222.932 -105.409 225.82 -104.552 232.043C-101.483 254.373 -87.2492 270.143 -67.4391 281.695C-29.4264 303.84 19.0239 296.453 48.7617 264.554C63.0553 249.222 87.1926 244.535 106.703 254.168C120.303 260.869 129.044 271.629 132.265 285.811C138.485 313.216 165.113 326.91 191.676 316.308C198.589 313.542 203.762 308.519 209.583 304.346C214.401 300.889 219.479 297.992 226.187 297.92C215.873 303.662 209.115 312.616 201.187 320.512C198.041 323.634 193.978 325.712 189.625 327.261C167.288 335.186 143.025 324.47 133.966 302.652C121.887 273.548 87.1222 263.665 60.6802 281.828C54.4548 286.11 49.8532 291.755 45.69 297.765C25.6596 326.651 -16.4493 343.548 -56.7064 330.055C-71.8811 324.961 -87.5257 319.98 -96.6006 305.894C-100.982 299.115 -106.316 292.552 -108.078 284.826C-110.033 276.221 -115.809 274.476 -123.845 273.664C-184.96 267.46 -235.183 285.031 -273.57 329.703C-289.525 348.272 -283.171 376.044 -260.138 387.502C-253.804 390.66 -250.513 389.781 -246.341 384.672C-213.766 344.964 -169.347 328.258 -116.062 328.979C-110.508 329.054 -107.05 330.771 -104.751 335.599C-87.9234 371.082 -35.2974 384.906 0.485706 371.222C25.3182 361.729 40.7999 344.166 52.2073 322.401C60.6244 306.345 75.1426 298.171 94.6331 298.066C113.12 297.967 126.61 306.745 135.793 320.823C144.377 333.978 155.186 343.391 172.137 344.501C190.122 345.683 202.909 338.264 211.321 323.548C215.503 316.227 221.362 309.9 229.739 306.205C228.255 309.358 226.341 312.114 224.287 314.778C219.312 321.208 218.107 329.304 213.766 335.976C199.347 358.115 163.603 359.306 145.239 338.394C138.441 330.651 130.684 323.975 120.045 321.247C93.6838 314.465 67.4197 328.477 61.4062 353.849C52.0202 393.417 14.92 420.166 -29.3219 418.537C-56.7446 417.539 -76.9229 406.833 -92.0636 386.406C-94.7516 382.781 -97.2659 382.168 -101.552 382.799C-133.713 387.505 -162.166 399.37 -186.382 419.373C-195.644 427.014 -205.511 434.38 -209.17 446.221L-169.059 478.038C-167.021 475.791 -163.695 477.142 -162.899 478.053C-159.948 481.457 -158.479 479.898 -156.273 477.579C-137.796 458.193 -114.586 445.491 -88.623 436.41C-79.4789 433.212 -72.816 433.588 -65.4791 440.677C-47.6692 457.903 -24.8107 462.037 -0.800348 458.555C42.9973 452.199 69.5507 424.643 74.3125 382.339C76.4042 363.804 86.6679 351.136 105.604 344.899C124.17 338.778 140.368 343.489 154.453 355.707C179.925 377.778 215.74 368.505 223.972 337.577C225.013 333.662 226.097 329.744 227.544 325.965C229.172 321.675 231.518 317.714 235.595 314.732C233.642 321.955 231.922 328.99 231.895 336.378C231.839 352.981 223.754 364.784 207.336 371.563C192.358 377.748 178.514 375.315 165.141 366.966C156.616 361.64 147.201 358.353 136.877 358.637C109.256 359.367 90.0938 380.057 92.1745 406.978C94.0542 431.295 87.1993 452.938 68.9435 470.26C45.816 492.21 17.4847 501.185 -15.5025 493.254C-25.5005 490.848 -35.1361 486.023 -43.1631 479.376C-45.8624 477.141 -48.0662 476.811 -51.3265 478.369C-69.5686 487.116 -86.5799 497.344 -100.093 511.914C-102.91 514.943 -107.063 517.808 -107.867 521.332C-108.924 525.887 -102.293 526.631 -99.5171 529.561C-97.2268 531.975 -98.5543 532.023 -100.632 532.334L-95.9134 536.077C-93.962 533.836 -92.4796 535.553 -90.7261 536.552C-80.542 542.335 -72.4574 550.409 -63.7588 557.813C-60.0808 560.935 -57.5199 561.231 -54.3017 556.785C-44.9542 543.894 -31.9905 534.281 -19.0249 524.689C-12.9505 520.194 -7.25415 519.58 -0.172606 523.368C31.3755 540.274 74.0741 527.447 94.3944 506.182C115.62 483.974 122.052 458.412 114.554 429.377C107.481 401.968 128.956 376.841 159.115 376.632C169.306 376.559 178.019 380.391 187.094 383.782C214.026 393.853 241.873 376.002 241.133 349.286C240.991 344.526 240.304 339.763 240.393 335.019C240.49 329.31 240.765 323.518 244.731 318.546C244.299 328.244 246.97 337.38 249.229 346.675C254.628 368.93 238.816 388.788 214.479 391.581C206.604 392.483 199.253 390.478 191.708 389.085C173.431 385.71 157.603 389.243 145.795 403.375C134.841 416.485 132.913 431.062 139.484 446.39C148.487 467.38 150.65 488.319 143.007 509.823C131.216 542.967 85.4601 575.672 38.4255 556.747C34.6584 555.233 32.1285 555.616 29.5823 558.15C18.3104 569.384 7.00505 580.611 -0.461103 594.584C-2.65247 598.687 -3.18586 603.471 -6.26333 607.208L46.8248 649.318C52.854 628.532 62.1827 609.28 76.2487 592.106C79.8831 587.673 83.4722 585.779 89.749 587.044C127.902 594.762 166.914 569.529 178.388 537.664C187.526 512.306 183.708 488.17 168.661 465.017C157.941 448.526 157.989 431.598 170.104 416.087C181.275 401.805 197.11 397.419 216.061 400.059C231.153 402.175 244.712 398.094 254.864 387.37C265.633 376.017 267.124 362.829 260.984 348.72C259.342 344.954 257.433 341.256 256.014 337.425C254.361 332.959 253.089 328.367 254.269 323.61C257.642 330.224 260.47 336.853 264.904 342.796C274.67 355.862 277.001 369.525 268.899 383.815C261.038 397.662 247.488 402.423 231.546 403.458C220.932 404.147 210.718 406.291 202.455 412.951C182.429 429.093 180.325 453.889 198.425 474.199C228.67 508.157 228.177 546.735 209.167 573.463C199.588 586.917 188.799 599.692 170.682 604.19C160.268 606.774 149.564 608.006 138.773 607.733C134.789 607.634 132.675 608.607 130.972 611.755C119.428 633.225 112.455 655.82 112.871 680.133C113.034 689.071 110.797 698.849 120.628 705.528C119.221 705.196 117.826 704.873 116.429 704.53L206.089 775.65C207.744 771.532 213.679 769.502 208.266 762.67C175.778 721.689 170.322 676.973 187.17 629.662C188.983 624.549 191.939 622.19 197.952 621.697C223.89 619.557 241.965 606.123 254.25 585.913C274.751 552.156 265.789 511.135 232.39 483.598C216.816 470.758 210.593 455.072 216.057 436.636C221.277 418.978 235.671 410.406 254.324 407.08C265.481 405.086 275.122 400.79 281.833 391.909C294.263 375.454 292.672 360.026 276.439 342.614C270.574 336.32 265.515 329.768 264.178 321.223C270.943 329.781 279.296 336.762 287.557 343.931C309.046 362.544 300.422 397.323 272.688 405.559C254.46 410.977 242.088 421.656 239.721 439.935C237.275 458.88 246.29 473.253 263.104 483.716C270.445 488.289 277.315 493.309 283.637 499.015C324.555 535.932 316.428 614.835 250.472 628.232C246.85 628.961 245.689 630.784 245.221 634.051C236.731 693.274 257.786 741.686 308.235 779.762C331.785 797.527 363.245 784.781 371.848 767.1C373.714 763.261 373.69 761.021 369.553 758.243C324.8 728.157 305.093 686.657 304.119 636.65C304.007 631.036 305.761 627.388 311.661 625.107C331.923 617.289 343.448 602.243 350.394 583.546C364.145 546.618 343.326 502.352 303.946 485.411C296.641 482.267 289.632 478.91 283.385 474.122C267.264 461.746 261.616 439.385 271.297 422.951C276.721 413.741 284.556 406.835 294.917 401.597C320.066 388.847 323.698 360.093 302.986 342.19C298.696 338.489 293.219 335.973 288.33 332.86C282.78 329.335 277.571 325.483 274.694 319.506C281.852 324.101 289.35 327.79 297.325 330.514C313.297 335.961 323.148 346.22 325.504 361.88C327.819 377.229 321.154 389.038 308.148 398.207C289.758 411.185 284.978 430.052 294.943 449.658C301.708 462.975 313.701 470.696 328.453 474.317C345.062 478.402 359.296 485.923 372.094 496.523C405.056 523.825 416.02 587.562 365.04 616.142C361.389 618.192 361.091 620.363 361.764 623.696C370.256 666.21 392.111 701.053 430.921 726.219C433.397 727.83 436.51 728.88 437.84 731.764L479.434 686.37C477.023 686.156 475.13 684.953 473.287 683.584C446.685 663.771 428.833 638.543 418.465 608.594C416.579 603.16 417.619 599.468 422.114 595.475C445.928 574.331 450.401 548.018 439.808 520.093C426.704 485.548 397.987 467.864 359.663 463.09C339.313 460.553 324.474 451.135 317.277 432.977C310.398 415.65 316.089 400.791 328.962 387.898C340.26 376.59 344.233 363.673 338.772 348.534C333.636 334.307 322.025 327.281 307.262 323.671C297.954 321.401 288.554 319.32 281.426 312.36C290.304 314.699 299.124 316.656 308.324 317.066C325.505 317.835 338.118 325.302 345.238 340.188C351.815 353.953 349.194 366.618 340.426 378.588C334.244 387.048 331.028 396.404 332.378 406.825C335.36 430.094 358.219 447.256 384.802 446.282C420.221 445 450.113 456.244 469.566 484.459C484.685 506.4 493.009 530.62 478.049 555.951C475.119 560.905 471.722 565.658 468.064 570.184C464.895 574.109 465.073 577.405 467.509 581.838C480.47 605.445 499.684 623.895 522.019 639.895L565.594 592.34C562.247 592.746 559.636 591.216 557.134 589.455C541.345 578.406 527.641 565.482 515.952 550.648C512.195 545.877 511.576 541.728 514.802 536.429C526.42 517.369 526.29 497.389 517.414 477.284C501.214 440.582 459.394 419.168 417.28 425.888C407.878 427.389 398.592 428.497 389.085 426.667C358.862 420.853 342.583 389.463 356.554 364.189C360.324 357.362 362.378 350.051 361.387 342.173C358.641 320.603 340.586 306.58 317.008 307.922C308.211 308.429 299.486 308.88 291.022 305.488C299.52 305.174 307.749 303.975 315.904 302.101C331.39 298.54 345.135 302.238 356.12 312.948C367.587 324.134 369.888 337.587 365.612 352.169C362.864 361.504 362.362 370.923 366.592 380.158C376.74 402.298 403.202 413.061 429.036 405.277C440.992 401.678 452.927 399.013 465.694 398.464C516.025 396.339 574.48 445.954 551.274 501.361C549.571 505.442 550.876 507.821 553.864 510.695C569.535 525.72 587.767 537.214 608.163 545.815L653.719 496.098C629.188 490.899 607.584 480.015 587.509 466.106C583.68 463.46 582.455 460.417 583.349 456.218C584.928 448.736 586.151 441.177 584.549 433.542C578.312 403.753 558.877 383.633 529.223 372.597C500.916 362.07 473.426 365.815 447.177 379.298C419.71 393.4 383.99 379.512 377.139 352.484C375.041 344.213 376.213 336.464 376.434 328.464C377.172 300.756 349.067 281.672 321.206 290.89C316.875 292.326 312.611 293.889 308.237 295.217C302.59 296.933 296.812 297.502 290.799 296.372C300.847 293.61 309.418 288.614 318.26 283.944C329.277 278.124 340.988 277.616 353.014 282.433C369.841 289.192 378.943 300.78 379.948 317.758C380.888 333.696 387.091 346.959 402.815 355.344C422.702 365.968 441.419 363.438 458.808 351.308C495.331 325.856 536.692 324.248 572.115 348.109C585.273 356.96 598.098 366.797 602.085 382.633C604.366 391.683 606.752 400.818 605.659 410.215C605.269 413.62 606.135 415.875 609.801 417.7C637.763 431.65 667.452 438.067 698.92 437.141C701.697 437.067 704.538 436.279 707.221 437.753L787.439 350.208C784.188 348.152 781.61 348.943 778.413 350.831C770.055 355.773 761.759 361.137 752.641 364.617C712.271 380.039 671.209 381.453 629.616 366.639C625.019 365.009 622.587 362.949 621.886 358.156C619.346 340.763 611.065 326.411 596.717 314.19C562.054 284.698 505.899 284.575 470.382 318.645C464.794 324.01 458.91 328.564 451.817 331.97C424.078 345.279 388.771 328.34 383.838 299.418C381.327 284.66 373.094 273.725 357.939 267.788C342.352 261.676 328.334 264.368 315.593 273.915C312.421 276.288 309.287 278.73 305.951 280.88C301.524 283.733 296.901 286.355 291.017 286.485C300.561 281.028 307.231 272.992 314.64 265.618C318.494 261.789 323.482 259.325 329.006 257.809C351.202 251.75 373.039 262.446 381.654 283.37C388.67 300.414 401.559 311.16 421.42 313.496C440.973 315.791 456.407 308.306 467.003 294.053C480.368 276.043 497.053 263.037 519.732 256.428C559.489 244.832 607.236 262.735 622.08 298.027C628.068 312.257 636.155 315.481 650.08 316.448C710.843 320.657 759.616 300.778 797.285 257.067C812.703 239.173 801.763 211.85 783.895 202.492C777.693 199.233 773.526 198.467 768.18 204.902C735.546 244.096 691.222 260.654 638.183 259.643C630.734 259.501 625.291 257.815 621.937 250.582C616.169 238.112 606.366 228.712 593.392 222.173C543.992 197.247 487.727 215.009 465.15 262.703C453.151 288.049 419.345 296.284 394.653 280.3C386.678 275.131 381.722 268.288 376.923 260.786C362.589 238.367 331.188 234.307 311.849 252.412C307.433 256.542 304.264 261.867 300.866 266.843C297.611 271.596 293.422 275.123 287.499 277.162C293.439 270.19 296.554 261.967 300.608 254.208C311.234 233.895 336.969 226.686 358.673 237.594C365.732 241.14 370.388 246.886 375.552 252.233C388.464 265.555 404.134 270.687 422.839 266.17C440.764 261.837 452.079 250.823 456.769 234.61C463.232 212.283 476.473 195.164 497.09 182.29C521.657 166.951 577.642 163.524 601.552 191.412C605.255 195.73 609.407 199.714 612.924 204.146C615.376 207.229 617.863 208.138 622.029 207.617C667.475 201.84 704.683 182.866 732.888 149.416C735.383 146.449 737.552 145.482 741.073 147.398L686.806 104.352C686.289 107.339 684.188 109.387 682.103 111.484C660.818 132.935 634.5 146.606 604.388 154.635C598.859 156.11 594.836 155.588 590.744 151.427C580.399 140.907 568.042 133.382 552.666 130.798C496.522 121.369 451.331 152.302 444.392 204.674C442.019 222.538 432.256 235.883 413.742 242.082C394.667 248.47 377.45 244.071 362.689 231.055C344.928 215.399 320.005 214.163 303.642 228.152C295.687 234.944 293.125 244.054 290.62 253.303C288.861 259.802 286.558 266.095 280.569 270.563C283.239 262.603 284.923 254.607 285.32 246.281C286.057 230.758 294.438 219.9 309.65 213.881C324.229 208.108 338.13 210.212 351.193 218.633C360.143 224.407 370.116 227.596 380.841 227.63C406.506 227.701 427.089 207.484 426.581 182.67C426.367 171.432 427.08 160.538 430.075 149.532C442.777 102.832 514.842 68.6935 564.323 108.204C567.782 110.966 570.453 110.696 573.913 109.055C584.137 104.212 594.109 99.02 603.474 92.8239C615.799 84.6645 625.269 73.7738 636.045 64.1249L584.137 22.9502C573.159 38.3553 558.248 50.0256 542.677 61.1718C536.241 65.772 530.828 66.1439 523.302 62.5072C492.399 47.5874 462.809 52.5782 436.794 70.8754C406.397 92.2658 396.444 121.959 404.888 156.988C411.498 184.479 388.238 210.243 358.241 208.808C350.124 208.416 342.687 206.306 335.353 203.082C303.75 189.194 273.571 207.566 275.07 239.68C275.219 243.009 275.707 246.345 275.68 249.664C275.643 254.973 275.177 260.24 271.712 264.844C272.169 255.875 270.021 247.303 267.956 238.685C262.532 215.924 277.889 196.228 302.729 193.442C310.671 192.556 317.95 194.951 325.454 196.388C341.798 199.517 356.516 197.305 368.703 186.05C385.039 170.957 385.677 153.097 378.677 133.902C376.618 128.256 374.125 122.751 373.278 116.76C367.861 78.4954 386.249 46.8886 423.348 30.0119C434.113 25.1123 444.887 21.4905 457.154 23.1768C465.538 24.3212 474.103 24.9562 481.942 28.2067C488.19 30.7925 492.323 28.9944 496.679 24.797C510.333 11.6076 522.149 -2.77804 531.059 -19.1712L531.079 -19.3044ZM251.02 261.925C245.549 253.2 236.507 247.838 228.99 241.035C207.377 221.446 215.729 188.542 244.463 179.083C257.097 174.921 268.138 168.897 274.102 157.185C285.173 135.432 277.134 113.546 252.468 97.956C233.883 86.2006 221.015 70.6743 214.178 50.656C202.784 17.3362 217.201 -35.8602 270.136 -45.3637C274.431 -46.1377 275.031 -48.2375 275.572 -51.5408C285.656 -112.859 264.607 -162.833 211.969 -202.478C191.548 -217.854 158.036 -206.382 148.863 -188.145C146.802 -184.05 146.776 -181.42 151.53 -178.116C195.564 -147.423 215.307 -105.895 215.612 -55.8031C215.653 -49.089 213.52 -44.9387 206.416 -42.3434C174.862 -30.8292 161.733 6.08774 163.784 27.4608C167.215 63.0681 187.81 86.8139 222.354 101.673C240.184 109.339 250.254 122.983 250.733 141.336C251.193 159.132 242.078 172.059 225.187 180.198C210.917 187.057 201.513 197.142 200.6 212.767C199.66 228.8 207.89 240.05 222.264 248.242C226.428 250.612 230.437 253.306 234.163 256.243C237.134 258.581 240.793 260.681 241.076 265.329C232.932 258.01 222.261 255.537 212.654 251.126C208.009 248.991 203.866 246.265 200.641 242.27C185.728 223.796 189.269 199.655 208.805 185.96C216.601 180.498 223.306 174.003 226.215 164.981C233.896 141.213 218.687 116.569 191.542 109.221C180.315 106.177 169.798 101.959 159.799 96.2854C115.077 70.9456 102.781 1.52469 144.683 -27.1079C148.162 -29.4812 151.515 -32.0287 155.066 -34.3257C157.804 -36.0916 159.157 -37.9677 158.57 -41.4188C151.42 -83.3727 130.763 -118.123 93.8426 -144.106C88.886 -147.59 87.6638 -149.791 92.0864 -154.551C127.806 -193.089 163.338 -231.777 198.727 -270.577C203.025 -275.268 205.941 -275.493 211.136 -271.335C236.55 -250.915 262.531 -231.09 287.837 -210.551C297.942 -202.348 307.825 -194.547 315.682 -183.312C345.989 -139.973 351.758 -95.1776 334.18 -47.3809C332.327 -42.3564 329.614 -39.7299 323.553 -39.1625C309.58 -37.8533 296.656 -33.753 285.722 -25.1995C243.349 7.94915 243.828 66.1871 286.42 100.699C301.712 113.091 307.534 129.037 301.982 147.235C296.546 165.04 282.471 174.443 263.378 177.382C244.671 180.256 231.819 190.591 227.621 207.045C224.116 220.764 230.286 231.705 239.434 241.798C244.758 247.682 249.733 253.681 250.975 261.908L251.02 261.925Z" fill="url(#paint0_linear_3114_2569)"/>
</g>
<defs>
<linearGradient id="paint0_linear_3114_2569" x1="1.49998" y1="221.5" x2="294.192" y2="246.862" gradientUnits="userSpaceOnUse">
<stop stop-color="#39A27A"/>
<stop offset="1" stop-color="#39A27A" stop-opacity="0"/>
</linearGradient>
</defs>
</svg>
