<svg width="243" height="246" viewBox="0 0 243 246" fill="none" xmlns="http://www.w3.org/2000/svg">
<path d="M19.0122 54.1041C57.1327 -1.73857 133.292 -16.1027 189.123 22.0104C244.955 60.1235 259.33 136.29 221.21 192.132C183.089 247.975 106.938 262.328 51.0951 224.208C38.5705 215.658 28.1301 205.191 19.9081 193.469C24.1922 197.928 29.0063 202.006 34.3185 205.633C76.2004 234.223 133.32 223.45 161.91 181.568C190.5 139.686 179.727 82.5667 137.845 53.9764C95.9632 25.386 38.8333 36.1517 10.2429 78.0337C6.34392 83.7454 3.17775 89.7516 0.720437 95.925C4.04214 81.3668 10.0865 67.1793 19.0122 54.1041Z" fill="url(#paint0_linear_3114_2585)"/>
<defs>
<linearGradient id="paint0_linear_3114_2585" x1="51.1005" y1="224.211" x2="161.621" y2="-238.47" gradientUnits="userSpaceOnUse">
<stop offset="0.396487" stop-color="#7266F8"/>
<stop offset="1" stop-color="#39A27A" stop-opacity="0.93"/>
</linearGradient>
</defs>
</svg>
