<svg width="205" height="383" viewBox="0 0 205 383" fill="none" xmlns="http://www.w3.org/2000/svg">
<path fill-rule="evenodd" clip-rule="evenodd" d="M215.527 369.305C210.99 368.565 207.313 365.547 208.004 360.45C208.585 356.193 211.289 348.904 215.527 345.388V369.305ZM215.527 297.873C213.275 313.648 207.739 328.945 198.781 342.204C185.916 361.258 165.81 375.814 143.072 380.784C127.439 384.201 110.324 382.929 96.5424 374.942C79.8253 365.247 69.9525 346.992 65.2939 328.493C60.6909 310.184 60.6909 289.83 70.4155 273.566C74.5091 266.724 80.1309 260.936 86.2157 255.757C90.1715 252.383 94.2948 249.548 98.4674 246.679L98.4676 246.679L98.4684 246.678C100.499 245.282 102.541 243.878 104.581 242.4C117.131 233.322 127.819 221.138 133.727 206.917C136.827 199.471 138.992 191.726 141.156 183.98L141.156 183.98C143.072 177.122 144.989 170.264 147.555 163.612C151.991 152.1 159.78 140.315 172.015 137.589C183.925 134.936 195.697 141.714 205.829 148.402C206.884 143.931 204.699 139.106 201.096 136.18C197.493 133.264 192.687 132.055 188.009 132.001C177.081 131.873 166.828 137.562 158.771 144.812C147.231 155.189 139.275 168.582 132.505 182.266C130.555 186.208 128.64 190.159 126.727 194.105L126.727 194.106L126.726 194.107L126.726 194.108L126.725 194.109L126.725 194.111L126.724 194.112L126.724 194.112C122.042 203.771 117.372 213.405 112.231 222.828C106.017 234.213 97.5148 244.544 86.7344 252.049C75.037 260.191 60.589 264.825 46.2892 263.734C31.9893 262.644 18.0229 255.502 9.93756 243.881C1.82443 232.168 0.148102 217.176 1.27802 203.029C1.89456 195.323 3.26186 187.724 4.62944 180.124L4.62949 180.123L4.62953 180.123L4.62958 180.123L4.62962 180.122L4.62967 180.122L4.62971 180.122L4.62976 180.121L4.62981 180.121L4.62985 180.12L4.6299 180.12L4.62994 180.12L4.62999 180.119L4.63004 180.119L4.63008 180.119C5.3781 175.962 6.12621 171.804 6.75159 167.628C8.52054 155.816 9.45596 143.549 8.93732 131.383L8.92955 131.204L8.91808 130.945L8.90427 130.637C8.75084 127.222 8.5948 123.749 9.6134 120.497C10.7063 117.008 13.5125 113.755 17.2079 113.274C22.098 112.647 26.0526 116.854 27.8123 120.861C28.6546 122.778 29.2116 124.8 29.7686 126.821C30.3019 128.757 30.8352 130.692 31.6189 132.537C34.0732 138.288 38.917 142.886 44.5943 145.685C50.2624 148.483 56.7084 149.574 63.0618 149.465C66.3039 149.409 69.5313 149.052 72.758 148.696C76.334 148.301 79.9091 147.906 83.5021 147.92C90.3371 147.947 97.6445 149.764 102.062 154.889C106.045 159.514 106.962 166.02 106.369 172.035C106.298 172.77 105.52 176.473 104.675 180.49L104.675 180.491L104.675 180.491L104.674 180.492L104.674 180.494L104.674 180.495L104.674 180.496C103.536 185.908 102.278 191.89 102.47 191.952C109.833 194.197 118.576 188.718 119.585 181.221C120.064 177.672 119.052 174.198 118.035 170.707C117.519 168.935 117.001 167.159 116.677 165.366C114.751 154.671 119.817 143.967 125.892 134.899C126.9 133.395 127.939 131.911 129.009 130.449C123.251 135.299 116.671 139.18 109.563 141.723C94.7443 147.029 77.879 146.612 63.3477 140.578C61.5139 139.815 59.7171 138.97 57.9759 138.034C49.0663 133.282 41.3514 126.394 35.6556 118.171C28.1259 107.295 21.8466 94.2833 21.9856 80.8719C22.0319 76.1288 22.921 71.2949 25.3383 67.1879C27.7555 63.0809 31.8491 59.7734 36.6095 58.9739C39.7702 58.4474 42.8915 59.0754 46.0074 59.7022C49.2917 60.3629 52.5702 61.0225 55.8828 60.3277C61.4027 59.1738 66.4039 54.0672 66.3854 48.361C66.3854 47.834 66.3391 47.2979 66.0705 46.8436C65.3018 45.5079 63.1624 45.6987 61.9955 46.7073C61.2015 47.3935 60.6862 48.311 60.1696 49.231L60.1694 49.2312L60.1693 49.2314L60.1693 49.2316L60.1692 49.2317L60.1691 49.2319L60.169 49.2321L60.1689 49.2323C59.9264 49.664 59.6836 50.0963 59.4115 50.5054C57.3462 53.5947 53.4285 55.2757 49.6591 55.0667C45.8896 54.8577 42.3517 52.9224 39.8326 50.1692C38.0636 48.2338 36.7299 45.7896 36.7114 43.2C36.6929 40.6104 38.2303 37.9117 40.7309 37.0758C43.4724 36.1581 46.4453 37.5937 48.7051 39.3655C49.3185 39.8464 49.9127 40.3595 50.5069 40.8724C52.102 42.2496 53.6969 43.6265 55.6606 44.3812C58.0778 45.308 60.9118 45.1535 63.2087 43.9541C64.0146 43.5346 64.797 42.9877 65.5772 42.4424C67.4331 41.1451 69.2768 39.8563 71.3959 40.3105C73.6372 40.7921 74.9431 43.0546 75.684 45.1808C78.0642 51.9956 77.4066 60.7548 73.7206 67.0334C71.2662 71.2131 66.7003 74.4933 61.7824 74.2662C56.8213 74.0426 52.9829 70.6175 49.1411 67.1893C45.3305 63.7889 41.5165 60.3856 36.6003 60.1006C37.3505 68.3509 44.5745 75.2656 52.8358 76.9739C61.0971 78.6821 69.9233 75.7018 76.3045 70.2773C79.6739 67.4111 82.4153 63.9467 85.1571 60.4818L85.1575 60.4812C86.327 59.0032 87.4966 57.5252 88.715 56.0935C92.7901 51.305 97.7728 46.8345 103.96 45.3898C111.369 43.6725 119.815 47.1616 123.437 53.731C127.058 60.3005 125.233 69.3868 119.139 73.8664C116.891 75.5151 114.239 76.5297 111.595 77.5414L111.594 77.5414C108.497 78.7265 105.41 79.9075 102.996 82.0986C100.538 84.3334 99.0786 87.2549 97.6166 90.1823C96.4572 92.5039 95.296 94.8291 93.6329 96.8184C89.3911 101.898 82.7784 104.705 76.1471 104.887C67.1541 105.132 58.6798 100.798 52.1134 95.0466C46.3064 89.9582 41.7126 83.6978 37.3227 77.3828C42.361 86.778 48.5662 95.9007 57.3925 102.061C66.2094 108.222 78.0828 110.975 88.113 106.968C96.9855 103.417 103.005 95.419 108.714 87.8343L109.072 87.3596C115.435 78.9093 125.039 66.7608 137.301 69.0779C143.997 70.3499 149.063 76.3106 150.693 82.8073C152.323 89.304 151.017 96.2006 148.721 102.497C147.223 106.596 145.284 110.557 142.964 114.304C147.488 109.85 152.337 105.714 157.465 101.943C165.43 96.0824 174.404 90.994 184.305 89.8764C194.196 88.7679 205.143 92.4297 210.302 100.789C214.373 107.379 214.24 115.366 214.11 123.215C214.08 125.009 214.051 126.796 214.071 128.557C214.132 133.402 214.622 138.242 215.527 143.006V186.151C213.1 186.802 210.457 186.957 207.95 186.819C206.168 186.72 204.388 186.504 202.61 186.288H202.61H202.61H202.609H202.609H202.609H202.609H202.609L202.608 186.288C199.313 185.888 196.023 185.489 192.733 185.837C180.687 187.119 173.655 196.283 166.704 205.343C163.009 210.159 159.337 214.945 154.946 218.503C151.304 221.454 147.116 223.716 142.941 225.971C137.285 229.026 131.654 232.067 127.439 236.793C126.04 238.365 124.79 240.164 124.429 242.218C124.068 244.271 124.772 246.616 126.568 247.733C129.597 249.614 133.459 247.261 136.08 244.871C142.74 238.816 148.472 231.882 154.203 224.95L154.203 224.95C156.529 222.136 158.856 219.322 161.244 216.567C169.514 207.017 178.859 197.94 190.501 192.779C198.31 189.32 206.979 187.874 215.527 188.381V234.145C215.155 236.177 214.898 238.224 214.748 240.255C214.201 247.712 214.84 255.169 215.527 262.63V297.873ZM58.3389 37.0849C54.1913 28.9907 46.8479 25.6736 39.3912 22.3054C36.0916 20.815 32.7698 19.3146 29.6929 17.3857C11.6144 -11.845 67.869 -3.51283 58.3389 37.0849Z" fill="url(#paint0_linear_3500_32267)"/>
<defs>
<linearGradient id="paint0_linear_3500_32267" x1="108.244" y1="0" x2="108.244" y2="382.564" gradientUnits="userSpaceOnUse">
<stop stop-color="#AADCDB"/>
<stop offset="0.0001" stop-color="#AADCDB"/>
<stop offset="1" stop-color="#AADCDB" stop-opacity="0"/>
</linearGradient>
</defs>
</svg>
