<svg width="205" height="383" viewBox="0 0 205 383" fill="none" xmlns="http://www.w3.org/2000/svg">
<path fill-rule="evenodd" clip-rule="evenodd" d="M-10 369.307C-5.45856 368.569 -1.77496 365.551 -2.46661 360.449C-3.04878 356.19 -5.75569 348.892 -10 345.38V369.307ZM-10 297.804C-7.75442 313.604 -2.2149 328.925 6.75647 342.204C19.6208 361.258 39.7276 375.814 62.4647 380.784C78.0982 384.201 95.2136 382.929 108.995 374.942C125.712 365.247 135.585 346.992 140.243 328.492C144.846 310.183 144.846 289.83 135.122 273.565C131.028 266.723 125.406 260.935 119.321 255.756C115.366 252.383 111.242 249.548 107.07 246.679L107.07 246.678L107.069 246.678C105.038 245.282 102.996 243.878 100.956 242.399C88.4063 233.322 77.7185 221.137 71.8096 206.917C68.7099 199.471 66.5456 191.726 64.381 183.98L64.381 183.98C62.4646 177.122 60.5481 170.264 57.9821 163.612C53.5458 152.099 45.7569 140.314 33.5224 137.589C21.612 134.935 9.84058 141.714 -0.291565 148.401C-1.34738 143.931 0.838348 139.106 4.44109 136.18C8.04384 133.263 12.8506 132.055 17.5276 132C28.4563 131.873 38.7088 137.561 46.7664 144.812C58.3063 155.189 66.262 168.582 73.0322 182.266C74.9821 186.208 76.8969 190.158 78.8097 194.105L78.8102 194.106L78.8108 194.107L78.8114 194.108L78.812 194.109L78.8125 194.11L78.8131 194.112L78.8132 194.112C83.4951 203.771 88.1648 213.404 93.3057 222.827C99.5202 234.213 108.022 244.544 118.803 252.049C130.5 260.19 144.948 264.824 159.248 263.734C173.548 262.644 187.514 255.502 195.6 243.88C203.713 232.168 205.389 217.176 204.259 203.028C203.643 195.323 202.275 187.724 200.908 180.124L200.908 180.123L200.908 180.123L200.908 180.122L200.907 180.122L200.907 180.122L200.907 180.121L200.907 180.121L200.907 180.121L200.907 180.12L200.907 180.12L200.907 180.119L200.907 180.119L200.907 180.119L200.907 180.118C200.159 175.961 199.411 171.804 198.786 167.628C197.017 155.816 196.081 143.549 196.6 131.383C196.606 131.249 196.611 131.116 196.617 130.982L196.633 130.637C196.786 127.222 196.942 123.749 195.924 120.497C194.831 117.008 192.025 113.755 188.329 113.273C183.439 112.647 179.484 116.854 177.725 120.861C176.883 122.778 176.326 124.799 175.769 126.821C175.235 128.757 174.702 130.692 173.918 132.537C171.464 138.288 166.62 142.886 160.943 145.684C155.275 148.483 148.829 149.573 142.475 149.464C139.233 149.408 136.006 149.052 132.779 148.695C129.203 148.3 125.628 147.905 122.035 147.92C115.2 147.947 107.893 149.764 103.475 154.889C99.4924 159.514 98.5755 166.02 99.1682 172.035C99.2393 172.77 100.018 176.472 100.862 180.489L100.862 180.491L100.862 180.491L100.863 180.492L100.863 180.494L100.863 180.494L100.863 180.495C102.001 185.908 103.259 191.889 103.067 191.952C95.7044 194.196 86.9615 188.717 85.952 181.221C85.4729 177.671 86.4849 174.198 87.5019 170.707C88.0182 168.935 88.5358 167.158 88.8601 165.365C90.7865 154.671 85.7205 143.967 79.6449 134.899C78.6373 133.395 77.5979 131.911 76.5278 130.449C82.2866 135.298 88.8657 139.18 95.9743 141.723C110.793 147.029 127.658 146.611 142.189 140.578C144.023 139.815 145.82 138.97 147.561 138.034C156.471 133.282 164.186 126.394 169.882 118.171C177.411 107.295 183.69 94.2831 183.552 80.8717C183.505 76.1286 182.616 71.2947 180.199 67.1877C177.782 63.0806 173.688 59.7732 168.928 58.9736C165.767 58.4472 162.646 59.0751 159.53 59.702C156.245 60.3627 152.967 61.0222 149.654 60.3275C144.134 59.1735 139.133 54.067 139.152 48.3608C139.152 47.8338 139.198 47.2977 139.467 46.8434C140.235 45.5077 142.375 45.6985 143.542 46.7071C144.336 47.3933 144.851 48.3108 145.368 49.2307L145.368 49.231L145.368 49.2311L145.368 49.2313L145.368 49.2315L145.368 49.2317L145.368 49.2318L145.368 49.232C145.611 49.6638 145.854 50.0961 146.126 50.5051C148.191 53.5945 152.109 55.2755 155.878 55.0665C159.647 54.8575 163.185 52.9221 165.705 50.169C167.474 48.2336 168.807 45.7893 168.826 43.1997C168.844 40.6101 167.307 37.9115 164.806 37.0755C162.065 36.1578 159.092 37.5935 156.832 39.3653C156.219 39.8462 155.624 40.3592 155.03 40.8722C153.435 42.2493 151.84 43.6263 149.877 44.381C147.459 45.3078 144.625 45.1533 142.328 43.9539C141.523 43.5344 140.74 42.9875 139.96 42.4421C138.104 41.1448 136.26 39.8561 134.141 40.3103C131.9 40.7919 130.594 43.0544 129.853 45.1806C127.473 51.9953 128.13 60.7545 131.817 67.0332C134.271 71.2129 138.837 74.4931 143.755 74.2659C148.716 74.0424 152.554 70.6172 156.396 67.189C160.207 63.7887 164.021 60.3854 168.937 60.1003C168.187 68.3507 160.963 75.2654 152.701 76.9736C144.44 78.6819 135.614 75.7016 129.233 70.277C125.863 67.4109 123.122 63.9464 120.38 60.4815L120.38 60.4809C119.21 59.003 118.04 57.525 116.822 56.0932C112.747 51.3047 107.764 46.8343 101.578 45.3895C94.1683 43.6722 85.7218 47.1614 82.1005 53.7308C78.4793 60.3002 80.3038 69.3866 86.3979 73.8661C88.6457 75.5148 91.2981 76.5295 93.9426 77.5412L93.9427 77.5412C97.0405 78.7263 100.128 79.9072 102.541 82.0983C104.999 84.3331 106.458 87.2547 107.92 90.1821C109.08 92.5037 110.241 94.8289 111.904 96.8182C116.146 101.897 122.759 104.705 129.39 104.887C138.383 105.132 146.857 100.798 153.424 95.0463C159.231 89.958 163.824 83.6975 168.214 77.3825C163.176 86.7778 156.971 95.9005 148.145 102.061C139.328 108.222 127.454 110.975 117.424 106.968C108.552 103.416 102.532 95.4188 96.8226 87.8341L96.4652 87.3593C90.1025 78.909 80.4983 66.7606 68.236 69.0776C61.5399 70.3497 56.4738 76.3103 54.8438 82.8071C53.2137 89.3038 54.5197 96.2003 56.8165 102.497C58.3145 106.596 60.2534 110.557 62.5735 114.304C58.049 109.85 53.2002 105.714 48.0723 101.943C40.1073 96.0822 31.1329 90.9938 21.2323 89.8762C11.341 88.7677 0.393799 92.4294 -4.76488 100.789C-8.83579 107.379 -8.70329 115.365 -8.57307 123.215C-8.54331 125.009 -8.51367 126.795 -8.53435 128.557C-8.59543 133.42 -9.08818 138.276 -10 143.057V186.148C-7.56951 186.802 -4.92323 186.957 -2.41246 186.818C-0.63056 186.72 1.14907 186.504 2.92722 186.288H2.9274H2.92758H2.92776H2.92794H2.92812H2.9283H2.92848L2.92874 186.288C6.22396 185.888 9.51412 185.489 12.8043 185.837C24.8502 187.118 31.8817 196.283 38.8331 205.343C42.5281 210.159 46.2005 214.945 50.5914 218.502C54.2332 221.454 58.4212 223.716 62.5956 225.971C68.2518 229.025 73.8832 232.067 78.0982 236.793C79.4967 238.365 80.747 240.164 81.1082 242.218C81.4695 244.271 80.7656 246.615 78.9688 247.733C75.9403 249.614 72.0782 247.261 69.4572 244.871C62.7974 238.815 57.0653 231.882 51.3344 224.95L51.3342 224.949C49.0078 222.135 46.6815 219.322 44.2935 216.567C36.023 207.017 26.6781 197.94 15.0363 192.779C7.22405 189.319 -1.44883 187.873 -10 188.382V234.091C-9.62258 236.141 -9.36217 238.206 -9.21045 240.255C-8.66133 247.747 -9.30944 255.239 -10 262.736V297.804ZM147.198 37.0847C151.346 28.9904 158.689 25.6734 166.146 22.3052C169.446 20.8148 172.767 19.3143 175.844 17.3855C193.923 -11.8452 137.668 -3.51308 147.198 37.0847Z" fill="url(#paint0_linear_3500_32270)"/>
<defs>
<linearGradient id="paint0_linear_3500_32270" x1="97.288" y1="-0.000244141" x2="97.288" y2="382.563" gradientUnits="userSpaceOnUse">
<stop stop-color="#AADCDB"/>
<stop offset="0.0001" stop-color="#AADCDB"/>
<stop offset="1" stop-color="#AADCDB" stop-opacity="0"/>
</linearGradient>
</defs>
</svg>
