<svg width="287" height="288" viewBox="0 0 287 288" fill="none" xmlns="http://www.w3.org/2000/svg">
<path d="M49.4945 35.7754C49.6692 39.857 49.5834 43.9768 50.0917 48.0117C50.8767 54.2993 53.9578 59.6439 57.7317 64.6446C61.6181 69.7833 66.4505 73.951 71.218 78.2001C74.7429 81.3408 78.4377 84.3737 80.5808 88.709C81.9739 91.5121 83.0962 94.4629 84.2051 97.3953C84.7863 98.9211 84.4409 99.214 82.811 98.8818C81.3997 98.5929 80.0073 98.245 78.61 97.9289C73.7123 96.8362 68.7594 97.0573 63.8199 97.2967C57.3602 97.6158 50.8859 98.0077 44.4371 97.3229C36.7168 96.5014 29.5661 94.0568 23.8264 88.5743C21.1349 85.9993 18.7759 83.0673 16.2645 80.2979C15.9445 79.9385 15.5967 79.6108 15.1984 79.3145C18.2203 88.0126 22.3647 95.8648 30.2961 101.211C35.1518 104.484 40.3961 106.845 45.8779 108.765C50.9506 110.544 56.0422 112.264 60.8382 114.738C64.9808 116.877 68.0891 120.136 71.077 123.563C72.1181 124.752 71.7923 125.342 69.9515 125.532C64.9178 126.044 60.1481 127.449 55.5761 129.563C52.7604 130.87 49.9668 132.246 47.1288 133.507C41.0767 136.204 35.0156 138.896 28.3833 139.975C21.7692 141.064 15.43 140.366 9.36138 137.445C6.80593 136.213 4.2365 135.008 1.66266 133.79C1.26311 133.607 0.831193 133.466 0.422327 133.302C0.362223 133.374 0.297456 133.456 0.237359 133.528C2.25998 135.507 4.25023 137.527 6.33736 139.448C13.7056 146.226 22.6995 148.676 32.4165 148.825C37.9594 148.907 43.5295 148.579 49.0773 148.204C56.1043 147.741 62.5643 149.498 68.7213 152.694C69.978 153.351 70.0086 153.894 68.8317 154.712C66.1099 156.618 63.1445 158.261 60.6976 160.48C57.3014 163.565 54.3334 167.134 51.0858 170.399C47.4555 174.029 43.8927 177.752 39.9919 181.082C32.9179 187.131 24.6301 189.827 15.284 189.134C12.585 188.941 9.88394 188.93 7.10343 189.097C9.03861 189.884 10.9785 190.662 12.9227 191.454C19.0782 193.938 25.4186 194.946 32.0286 193.821C36.5403 193.052 40.8893 191.729 45.0656 189.917C50.136 187.703 55.1306 185.323 60.1653 183.045C65.741 180.517 71.6047 180.041 77.6211 180.63C78.0906 180.676 78.5448 180.863 79.3047 181.059C78.3717 182.518 77.6362 183.861 76.7151 185.074C73.7382 189.04 71.919 193.543 70.19 198.138C67.9255 204.156 65.7514 210.243 63.0373 216.065C60.2346 222.058 56.118 227.194 50.4529 230.812C48.4542 232.091 46.2265 233.035 44.0311 233.938C40.887 235.237 37.6627 236.357 34.4786 237.555L34.5028 237.843C37.6427 237.781 40.7862 237.8 43.9089 237.637C52.3821 237.194 59.3997 233.399 65.7812 228.096C70.8182 223.914 74.9745 218.903 79.2615 214.038C83.8903 208.798 89.4009 205.124 96.1239 203.243C96.522 203.137 96.9295 203.014 97.3364 202.936C97.5513 202.897 97.7745 202.932 98.2307 202.937C98.173 203.63 98.2296 204.301 98.0541 204.911C96.483 210.516 96.1793 216.222 96.4451 222.002C96.6847 227.252 96.9424 232.512 96.8945 237.764C96.8568 242.08 96.3128 246.378 95.086 250.531C93.2435 256.754 89.8334 261.966 84.9369 266.231C82.9423 267.971 81.038 269.803 79.0839 271.599C78.9318 271.739 78.8023 271.902 78.4837 272.254C86.7195 269.303 94.0832 265.571 99.329 258.549C103.167 253.419 105.839 247.748 107.948 241.742C109.53 237.209 111.272 232.724 113.058 228.262C114.695 224.158 117.654 221.009 120.812 218.031C121.499 217.386 122.181 216.727 122.904 216.123C123.756 215.402 124.257 215.544 124.51 216.615C124.824 217.946 125.037 219.294 125.264 220.638C126.134 225.823 128.227 230.568 130.416 235.283C133.052 240.915 135.825 246.479 137.677 252.432C139.806 259.295 140.511 266.23 138.51 273.231C137.912 275.288 136.996 277.272 136.076 279.22C134.83 281.849 133.433 284.412 132.1 287.008L132.453 287.259C132.702 287.042 132.96 286.831 133.199 286.609C136.389 283.591 139.44 280.442 141.97 276.832C145.094 272.38 146.508 267.325 147.382 262.05C148.514 255.267 148.205 248.478 147.672 241.677C147.288 236.64 147.051 231.585 148.687 226.725C149.673 223.801 151.09 221.019 152.339 218.184C152.484 217.857 152.81 217.624 153.129 217.248C153.372 217.602 153.588 217.851 153.74 218.135C156.686 223.743 160.958 228.243 165.552 232.517C170.065 236.704 174.554 240.937 178.73 245.444C183.642 250.754 187.266 256.916 188.085 264.254C188.51 268.028 188.222 271.872 188.221 275.691C188.223 277.161 188.125 278.625 188.337 280.178C188.824 279.029 189.338 277.894 189.789 276.726C191.353 272.585 192.963 268.468 193.335 263.991C193.865 257.667 192.786 251.572 190.458 245.743C188.224 240.156 185.687 234.69 183.159 229.228C180.426 223.316 179.11 217.192 179.778 210.687C179.86 209.857 180.243 209.067 180.485 208.262C181.192 208.649 181.988 208.931 182.607 209.444C186.139 212.347 190.192 214.303 194.404 215.926C202.842 219.17 211.495 221.927 219.32 226.61C225.258 230.164 229.796 235.018 232.477 241.454C233.82 244.667 234.943 247.974 236.167 251.24C236.353 251.726 236.554 252.207 236.753 252.734C236.864 252.608 236.956 252.563 236.961 252.508C237.235 245.342 236.961 238.239 233.898 231.584C231.545 226.476 228.152 222.05 224.175 218.137C219.94 213.99 215.489 210.063 211.129 206.047C206.481 201.767 203.916 196.309 202.238 190.354C202.137 189.97 202.192 189.551 202.153 188.912C203.168 189.123 204.052 189.256 204.903 189.498C210.407 190.994 216.018 191.122 221.67 190.835C228.883 190.479 236.1 190.181 243.3 190.988C251.549 191.92 258.746 195.054 264.414 201.326C266.682 203.832 269.005 206.298 271.305 208.787C268.554 200.722 264.939 193.268 257.814 188.026C251.934 183.71 245.371 180.925 238.549 178.534C234.23 177.028 230.006 175.249 225.829 173.379C222.028 171.691 219.246 168.622 216.395 165.689C216.061 165.335 215.75 164.957 215.439 164.58C214.642 163.631 214.771 163.089 215.965 162.819C217.543 162.448 219.161 162.201 220.757 161.884C225.59 160.914 230.069 158.935 234.504 156.865C241.062 153.809 247.642 150.799 254.662 148.898C261.394 147.067 268.073 147.147 274.635 149.508C277.231 150.439 279.662 151.802 282.153 153.001C283.515 153.654 284.844 154.371 286.187 155.061C286.294 154.921 286.387 154.785 286.493 154.645C284.212 152.475 281.969 150.279 279.656 148.151C272.874 141.927 264.535 139.721 255.664 139.353C250.055 139.133 244.409 139.675 238.783 139.734C235.543 139.768 232.266 139.806 229.063 139.366C225.109 138.826 221.44 137.217 217.882 135.391C216.635 134.738 216.547 133.948 217.713 133.331C224.537 129.712 229.63 124.126 234.737 118.535C239.069 113.785 243.382 109.003 248.702 105.299C254.927 100.971 261.752 98.4883 269.463 98.8808C272.669 99.0473 275.885 99.15 279.086 99.28C279.269 99.2819 279.442 99.2564 279.678 98.9759C276.697 97.8581 273.726 96.6993 270.726 95.6177C261.323 92.2228 252.18 93.8366 243.275 97.4199C238.014 99.536 232.895 102.046 227.781 104.524C221.749 107.449 215.383 107.988 208.836 107.517C207.308 107.409 207.122 106.969 208.034 105.683C210.569 102.087 213.136 98.518 214.682 94.3452C215.872 91.1133 217.079 87.8907 218.251 84.6495C220.664 77.9625 223.522 71.4809 227.496 65.5726C231.336 59.8591 236.77 56.1111 243.22 53.8023C245.972 52.8185 248.703 51.8117 251.442 50.8096C251.607 50.7566 251.754 50.6714 252.153 50.4977C242.422 49.9285 233.338 50.7581 225.272 56.5727C219.362 60.8449 214.446 66.0861 209.583 71.4237C207.242 73.9953 204.901 76.5898 202.303 78.8803C198.59 82.1355 193.986 83.7749 189.317 85.1855C189.074 85.2559 188.801 85.2302 188.358 85.2665C188.369 84.7099 188.265 84.1749 188.411 83.711C190.537 76.5782 190.301 69.3107 189.952 61.9964C189.701 56.5679 189.701 51.0964 190.056 45.6697C190.716 35.6966 194.859 27.3623 202.63 20.9149C204.449 19.4055 206.16 17.749 207.848 16.0922C200.109 18.6337 192.949 22.0803 187.858 28.7571C184.581 33.062 181.993 37.7895 179.985 42.7924C178.048 47.6364 176.511 52.6397 174.679 57.5259C173.166 61.5438 170.774 65.0413 167.734 68.08C166.433 69.385 165.087 70.6667 163.669 71.8426C162.789 72.5725 162.103 72.3233 161.992 71.2224C160.994 62.2446 156.79 54.4193 153.163 46.3855C150.454 40.3604 148.021 34.224 147.162 27.6116C146.433 21.9954 146.999 16.5163 149.419 11.3124C150.952 8.01567 152.466 4.70965 153.989 1.40829C154.068 1.25398 154.116 1.09476 153.978 0.782978C152.746 2.02023 151.492 3.23442 150.292 4.49939C147.342 7.60759 144.488 10.7761 142.602 14.6943C139.853 20.4285 138.65 26.5444 138.559 32.8181C138.483 38.1473 138.694 43.4979 139.075 48.8092C139.603 56.0432 138.097 62.7947 134.802 69.1894C134.536 69.7069 134.17 70.173 133.669 70.948C132.91 69.8812 132.326 69.0307 131.71 68.1982C129.488 65.2448 127.469 62.0974 124.979 59.3967C122.089 56.2719 118.695 53.6118 115.662 50.6087C112.416 47.4162 109.129 44.2142 106.197 40.7239C100.332 33.7433 97.5268 25.6499 98.1696 16.4478C98.3376 13.999 98.3734 11.5397 98.4686 9.07651C98.4816 8.71614 98.4581 8.35994 98.2026 7.94195C97.4855 9.69578 96.7136 11.4445 96.06 13.2309C94.6169 17.1355 93.3101 21.0872 93.0865 25.2968C92.822 30.3229 93.8098 35.166 95.2545 39.9456C97.2631 46.5748 100.39 52.7459 103.467 58.9028C106.602 65.1698 107.256 71.7572 106.794 78.5746C106.702 79.9381 106.089 80.0821 104.779 79.2604C101.906 77.441 99.1268 75.3943 96.067 73.9608C91.7589 71.9435 87.2359 70.3894 82.7969 68.6491C77.5401 66.6034 72.2221 64.7214 67.4189 61.6584C60.3501 57.1337 55.1768 51.1736 52.6505 43.0512C51.795 40.3177 50.7428 37.6323 49.5718 34.9548C49.5414 35.2374 49.4837 35.5061 49.4945 35.7754Z" fill="url(#paint0_linear_3114_2859)"/>
<defs>
<linearGradient id="paint0_linear_3114_2859" x1="208.728" y1="16.5442" x2="70.3095" y2="294.032" gradientUnits="userSpaceOnUse">
<stop stop-color="#7266F8"/>
<stop offset="0.501487" stop-color="#7266F8"/>
<stop offset="1" stop-color="#39A27A" stop-opacity="0"/>
</linearGradient>
</defs>
</svg>
