<svg width="447" height="388" viewBox="0 0 447 388" fill="none" xmlns="http://www.w3.org/2000/svg">
<path d="M46.9964 233.923C78.3923 208.619 111.05 187.151 148.616 172.746C186.357 158.273 225.956 157.204 265.688 155.98C265.821 154.79 265.972 153.602 266.107 152.395C263.189 151.461 260.298 149.794 257.345 149.69C219.67 148.312 183.266 154.123 147.846 167.099C121.786 176.642 97.3384 188.883 74.3551 204.176C69.0189 207.732 63.0701 210.471 57.1789 213.133C49.2531 216.714 42.4524 214.783 36.5058 208.136C37.8418 206.409 38.7396 204.631 40.1652 203.461C81.4579 169.532 125.691 140.341 179.538 129.913C201.495 125.659 224.357 125.046 246.846 124.619C268.516 124.211 290.339 125.231 311.907 127.465C327.485 129.068 342.724 133.694 358.112 136.965C362.108 137.82 366.128 138.61 370.128 139.432C370.528 138.513 370.945 137.597 371.344 136.695C367.967 134.94 364.718 132.878 361.191 131.494C332.512 120.251 302.116 119.759 271.944 118.634C251.071 117.856 230.122 119.007 209.258 118.13C197.23 117.63 185.255 115.083 173.352 112.893C169.983 112.271 166.115 110.277 164.067 107.694C161.712 104.72 161.138 100.389 159.783 96.6454C163.121 95.8133 166.444 94.3463 169.804 94.2663C209.89 93.2703 249.976 92.491 290.049 91.6606C325.655 90.9047 361.585 93.2094 394.122 106.963C435.981 124.667 472.732 150.514 487.448 196.199C501.326 239.282 471.502 283.237 425.874 287.189C415.981 288.044 405.122 285.171 395.592 281.687C379.519 275.826 363.946 268.472 348.495 261.077C311.092 243.214 271.581 238.754 230.59 241.612C199.444 243.777 170.464 253.235 141.898 264.645C132.265 268.489 122.456 272.002 112.545 275.09C108.909 276.232 104.67 276.241 100.826 275.799C98.6837 275.56 95.6913 273.686 95.0914 271.903C94.6301 270.499 96.7489 267.351 98.541 266.278C107.916 260.629 117.156 254.569 127.143 250.153C156.925 237.024 186.378 222.535 219.62 219.521C229.413 218.641 239.349 219.323 249.215 218.999C253.465 218.857 257.695 217.947 261.948 217.371L262.039 214.444C259.036 213.919 256.059 213.08 253.044 212.904C214.048 210.636 177.492 219.686 142.586 236.071C128.589 242.633 114.751 249.54 100.798 256.189C91.0646 260.825 81.1832 262.348 68.9298 256.411C73.3446 251.864 76.4483 247.729 80.4129 244.696C127.052 209.129 180.431 191.06 239.002 186.632C247.156 186.02 255.303 185.291 263.444 184.628C263.43 183.376 263.415 182.125 263.417 180.891C258.209 180.472 252.899 179.229 247.814 179.787C232.418 181.5 217.12 184.089 201.754 186.055C159.649 191.441 122.711 209.53 86.8964 230.478C80.8656 233.994 74.5256 237.136 68.0413 239.766C59.7418 243.134 55.2723 241.825 46.9612 233.937L46.9964 233.923Z" fill="url(#paint0_linear_3500_29039)"/>
<path d="M50.9769 245.367C82.3728 220.063 115.031 198.595 152.596 184.19C190.338 169.717 229.937 168.649 269.668 167.424C269.802 166.234 269.952 165.046 270.087 163.839C267.169 162.905 264.279 161.238 261.326 161.134C223.65 159.756 187.246 165.567 151.826 178.543C125.766 188.086 101.319 200.327 78.3356 215.62C72.9994 219.176 67.0506 221.916 61.1594 224.577C53.2336 228.158 46.4328 226.227 40.4863 219.58C41.8223 217.853 42.7201 216.075 44.1457 214.905C85.4384 180.976 129.671 151.785 183.518 141.357C205.476 137.103 228.338 136.49 250.826 136.064C272.496 135.655 294.319 136.675 315.887 138.909C331.465 140.512 346.705 145.138 362.092 148.409C366.089 149.264 370.108 150.054 374.108 150.876C374.508 149.958 374.925 149.041 375.324 148.139C371.947 146.384 368.698 144.322 365.171 142.938C336.492 131.695 306.097 131.203 275.925 130.078C255.052 129.3 234.103 130.451 213.238 129.574C201.211 129.074 189.236 126.527 177.333 124.337C173.963 123.716 170.096 121.721 168.048 119.138C165.692 116.165 165.118 111.833 163.763 108.089C167.101 107.257 170.424 105.79 173.784 105.71C213.871 104.714 253.956 103.935 294.029 103.105C329.636 102.349 365.565 104.654 398.103 118.407C439.961 136.111 476.713 161.958 491.429 207.643C505.307 250.726 475.483 294.681 429.855 298.633C419.961 299.489 409.103 296.615 399.572 293.131C383.499 287.27 367.926 279.916 352.475 272.521C315.073 254.659 275.562 250.198 234.57 253.056C203.425 255.221 174.444 264.679 145.879 276.089C136.246 279.933 126.436 283.446 116.526 286.535C112.89 287.676 108.65 287.686 104.806 287.243C102.664 287.004 99.6718 285.13 99.0719 283.347C98.6106 281.943 100.729 278.795 102.521 277.722C111.897 272.073 121.137 266.013 131.124 261.597C160.905 248.468 190.358 233.979 223.6 230.965C233.394 230.085 243.329 230.767 253.195 230.443C257.446 230.301 261.676 229.391 265.928 228.816L266.02 225.888C263.017 225.363 260.04 224.524 257.025 224.348C218.028 222.08 181.472 231.13 146.567 247.516C132.57 254.077 118.731 260.984 104.778 267.633C95.0451 272.269 85.1636 273.793 72.9103 267.855C77.3251 263.308 80.4287 259.173 84.3934 256.14C131.032 220.573 184.412 202.505 242.983 198.076C251.137 197.464 259.284 196.735 267.425 196.072C267.41 194.821 267.396 193.569 267.397 192.335C262.189 191.916 256.88 190.673 251.794 191.231C236.399 192.945 221.1 195.533 205.734 197.499C163.629 202.885 126.692 220.974 90.8769 241.922C84.846 245.439 78.5061 248.58 72.0217 251.211C63.7223 254.578 59.2528 253.269 50.9417 245.381L50.9769 245.367Z" fill="url(#paint1_linear_3500_29039)"/>
<defs>
<linearGradient id="paint0_linear_3500_29039" x1="274.258" y1="88.0574" x2="275.777" y2="166.968" gradientUnits="userSpaceOnUse">
<stop stop-color="#AADCDB"/>
<stop offset="1" stop-color="#AADCDB" stop-opacity="0"/>
</linearGradient>
<linearGradient id="paint1_linear_3500_29039" x1="278.238" y1="99.5015" x2="430.119" y2="273.384" gradientUnits="userSpaceOnUse">
<stop stop-color="#F22C5B"/>
<stop offset="1" stop-color="#F22C5B" stop-opacity="0"/>
</linearGradient>
</defs>
</svg>
