<svg width="38" height="47" viewBox="0 0 38 47" fill="none" xmlns="http://www.w3.org/2000/svg">
<path d="M19.12 46.64C15.152 46.64 11.7173 45.616 8.816 43.568C5.95733 41.52 3.86667 38.896 2.544 35.696C1.22133 32.4533 0.56 28.848 0.56 24.88C0.56 20.8693 1.072 17.2853 2.096 14.128C3.16267 10.928 4.57067 8.368 6.32 6.448C8.06933 4.528 10.032 3.07733 12.208 2.096C14.384 1.072 16.688 0.559998 19.12 0.559998C21.552 0.559998 23.856 1.072 26.032 2.096C28.208 3.07733 30.1707 4.528 31.92 6.448C33.6693 8.368 35.056 10.928 36.08 14.128C37.1467 17.2853 37.68 20.8693 37.68 24.88C37.68 30.8107 35.9307 35.9307 32.432 40.24C28.9333 44.5067 24.496 46.64 19.12 46.64ZM19.12 35.12C21.424 35.12 23.1947 34.0107 24.432 31.792C25.6693 29.5307 26.288 26.5653 26.288 22.896C26.288 18.8853 25.6907 15.4933 24.496 12.72C23.3013 9.94666 21.5947 8.45333 19.376 8.24H18.864C16.6453 8.45333 14.9387 9.94666 13.744 12.72C12.5493 15.4507 11.952 18.8427 11.952 22.896C11.952 26.352 12.5707 29.2533 13.808 31.6C15.088 33.9467 16.8587 35.12 19.12 35.12Z" fill="white"/>
</svg>
