<svg width="29" height="46" viewBox="0 0 29 46" fill="none" xmlns="http://www.w3.org/2000/svg">
<path d="M28.616 45.936H2.12C1.26667 43.376 0.84 40.8373 0.84 38.32C0.84 35.5467 1.416 33.0293 2.568 30.768C3.72 28.5067 5.10667 26.672 6.728 25.264C8.34933 23.856 9.97067 22.5547 11.592 21.36C13.2133 20.1653 14.6 18.928 15.752 17.648C16.904 16.368 17.48 15.0453 17.48 13.68C17.48 12.3573 17.0747 11.312 16.264 10.544C15.496 9.73333 14.4293 9.328 13.064 9.328C11.9547 9.328 10.824 9.49867 9.672 9.84C8.52 10.1813 7.496 10.608 6.6 11.12C5.74667 11.5893 4.95733 12.08 4.232 12.592C3.54933 13.104 3.016 13.5307 2.632 13.872L2.12 14.384V1.712C4.50933 0.901332 8.30667 0.495998 13.512 0.495998C17.864 0.495998 21.384 1.648 24.072 3.952C26.76 6.256 28.104 9.11466 28.104 12.528C28.104 14.704 27.6987 16.6453 26.888 18.352C26.12 20.016 25.1387 21.3173 23.944 22.256C22.792 23.152 21.5333 24.0693 20.168 25.008C18.8027 25.904 17.5227 26.7147 16.328 27.44C15.176 28.1653 14.1947 29.1467 13.384 30.384C12.616 31.5787 12.232 32.9653 12.232 34.544C12.232 34.544 12.4453 34.6293 12.872 34.8L15.368 34.928C18.2693 34.928 20.808 34.5867 22.984 33.904C25.2027 33.1787 26.696 32.4747 27.464 31.792L28.616 30.768V45.936Z" fill="white"/>
</svg>
