<svg width="31" height="46" viewBox="0 0 31 46" fill="none" xmlns="http://www.w3.org/2000/svg">
<path d="M15.304 45.576C13.2133 45.576 11.2507 45.2773 9.416 44.68C7.624 44.0827 6.19467 43.3573 5.128 42.504C4.06133 41.6507 3.144 40.7973 2.376 39.944C1.608 39.048 1.07467 38.3013 0.776 37.704L0.328 36.808L7.816 29.512C9.608 32.072 11.9973 33.352 14.984 33.352C16.5627 33.352 17.9067 32.9893 19.016 32.264C20.1253 31.496 20.68 30.344 20.68 28.808C20.68 27.4 20.168 26.3333 19.144 25.608C18.12 24.8827 16.84 24.52 15.304 24.52C14.92 24.52 14.5147 24.5627 14.088 24.648C13.704 24.7333 13.4267 24.8187 13.256 24.904L12.936 25.032L7.432 19.08C9.82133 17.2453 12.0187 15.4747 14.024 13.768C16.0293 12.0187 17.4373 10.7387 18.248 9.928L19.464 8.712C18.184 8.2 16.4133 7.944 14.152 7.944C11.848 7.944 9.65067 8.34933 7.56 9.16C5.46933 9.928 3.95467 10.696 3.016 11.464L1.672 12.68V0.135998H29.576V11.464L20.616 19.4C23.0053 19.9973 25.288 21.3627 27.464 23.496C29.6827 25.5867 30.792 28.232 30.792 31.432C30.792 35.4 29.512 38.7493 26.952 41.48C24.4347 44.2107 20.552 45.576 15.304 45.576Z" fill="white"/>
</svg>
