<svg width="31" height="45" viewBox="0 0 31 45" fill="none" xmlns="http://www.w3.org/2000/svg">
<path d="M15.56 45L16.392 36.104C16.392 36.0613 16.392 35.9973 16.392 35.912C16.4347 35.8267 16.456 35.7627 16.456 35.72C11.72 35.6773 6.30133 35.9973 0.2 36.68V27.08C3.22933 22.8987 6.024 18.568 8.584 14.088C11.144 9.608 12.9573 6.17333 14.024 3.784L15.56 0.199997H27.08C25.7573 9.544 25.288 18.6747 25.672 27.592C26.44 27.5493 28.1893 27.3787 30.92 27.08V36.68C30.0667 36.5947 28.5093 36.4453 26.248 36.232L27.08 45H15.56ZM16.968 28.04C17.1387 23.816 17.1387 19.592 16.968 15.368C14.2373 19.208 11.976 23.3893 10.184 27.912C11.72 27.9973 13.9813 28.04 16.968 28.04Z" fill="white"/>
</svg>
