<svg width="32" height="46" viewBox="0 0 32 46" fill="none" xmlns="http://www.w3.org/2000/svg">
<path d="M16.008 45.64C13.8747 45.64 11.848 45.32 9.928 44.68C6.89867 43.656 4.424 41.928 2.504 39.496C2.12 39.0267 1.77867 38.5787 1.48 38.152C1.18133 37.6827 0.968 37.32 0.84 37.064L0.712 36.744L8.2 29.448C9.352 31.4533 11.2293 32.6907 13.832 33.16C14.216 33.2453 14.7707 33.288 15.496 33.288H16.008C17.4587 33.2027 18.6533 32.7973 19.592 32.072C20.5733 31.304 21.064 30.2373 21.064 28.872C21.064 27.2933 20.2107 26.1413 18.504 25.416C16.84 24.6907 14.7707 24.328 12.296 24.328C10.7173 24.328 9.18133 24.4773 7.688 24.776C6.19467 25.032 5.08533 25.288 4.36 25.544L3.272 25.928C3.272 25.5013 3.31467 24.3493 3.4 22.472C3.48533 20.5947 3.528 19.1867 3.528 18.248C3.48533 16.584 3.35733 14.28 3.144 11.336C2.888 7.624 2.504 3.912 1.992 0.199997H29.96V12.68C29.832 12.552 29.64 12.3813 29.384 12.168C29.1707 11.9547 28.6587 11.592 27.848 11.08C27.0373 10.5253 26.184 10.056 25.288 9.672C24.392 9.24533 23.24 8.86133 21.832 8.52C20.4667 8.17867 19.0587 8.008 17.608 8.008C16.84 8.008 16.072 8.05067 15.304 8.136C14.536 8.22133 13.96 8.30667 13.576 8.392L13 8.52L12.936 16.648C14.344 16.392 15.8373 16.264 17.416 16.264C21.512 16.264 24.904 17.4587 27.592 19.848C30.3227 22.1947 31.688 25.6933 31.688 30.344C31.688 35.08 30.2373 38.8133 27.336 41.544C24.4347 44.2747 20.6587 45.64 16.008 45.64Z" fill="white"/>
</svg>
