<svg width="30" height="46" viewBox="0 0 30 46" fill="none" xmlns="http://www.w3.org/2000/svg">
<path d="M0.56 31.368C0.56 28.7653 1.008 26.1627 1.904 23.56C2.84267 20.744 4.12267 17.3307 5.744 13.32C7.408 9.30933 8.70933 5.384 9.648 1.544L9.968 0.199997H22.64C19.952 4.04 17.776 7.53867 16.112 10.696C14.4907 13.8107 13.5307 15.9653 13.232 17.16L12.784 18.952C14.3627 18.056 16.24 17.608 18.416 17.608C21.744 17.608 24.496 18.76 26.672 21.064C28.8907 23.368 30 26.44 30 30.28C30 34.7173 28.4853 38.3867 25.456 41.288C22.4693 44.1893 18.928 45.64 14.832 45.64C10.352 45.64 6.85333 44.296 4.336 41.608C1.81867 38.8773 0.56 35.464 0.56 31.368ZM10.352 29.128C10.352 30.536 10.8213 31.688 11.76 32.584C12.7413 33.48 14 33.928 15.536 33.928C16.9867 33.928 18.2027 33.4587 19.184 32.52C20.208 31.5387 20.72 30.344 20.72 28.936C20.72 27.4853 20.208 26.2693 19.184 25.288C18.2027 24.264 16.9867 23.752 15.536 23.752C14.0427 23.752 12.8053 24.2213 11.824 25.16C10.8427 26.0987 10.352 27.4213 10.352 29.128Z" fill="white"/>
</svg>
