<svg width="32" height="47" viewBox="0 0 32 47" fill="none" xmlns="http://www.w3.org/2000/svg">
<path d="M27.352 42.992C24.536 45.552 20.8453 46.832 16.28 46.832C11.7147 46.832 8.00267 45.552 5.144 42.992C2.328 40.3893 0.92 37.0613 0.92 33.008C0.92 28.7413 2.52 25.2427 5.72 22.512C3.37333 20.1653 2.2 17.264 2.2 13.808C2.2 10.1387 3.544 7.06666 6.232 4.592C8.96267 2.07467 12.312 0.815998 16.28 0.815998C20.248 0.815998 23.576 2.07467 26.264 4.592C28.9947 7.06666 30.36 10.1387 30.36 13.808C30.36 17.264 29.1867 20.1653 26.84 22.512C30.04 25.2427 31.64 28.7413 31.64 33.008C31.64 37.0613 30.2107 40.3893 27.352 42.992ZM12.504 17.008C13.4 17.904 14.6587 18.352 16.28 18.352C17.9013 18.352 19.16 17.904 20.056 17.008C20.952 16.0693 21.4 14.8747 21.4 13.424C21.4 12.016 20.888 10.8427 19.864 9.904C18.8827 8.92267 17.688 8.432 16.28 8.432C14.872 8.432 13.656 8.92267 12.632 9.904C11.6507 10.8427 11.16 12.016 11.16 13.424C11.16 14.8747 11.608 16.0693 12.504 17.008ZM16.28 34.032C17.816 34.032 19.0533 33.6053 19.992 32.752C20.9307 31.856 21.4 30.64 21.4 29.104C21.4 27.9947 20.888 27.056 19.864 26.288C18.8827 25.52 17.688 25.136 16.28 25.136C14.8293 25.136 13.6133 25.5413 12.632 26.352C11.6507 27.1627 11.16 28.2293 11.16 29.552C11.16 30.9173 11.6507 32.0053 12.632 32.816C13.6133 33.6267 14.8293 34.032 16.28 34.032Z" fill="white"/>
</svg>
