<svg width="30" height="46" viewBox="0 0 30 46" fill="none" xmlns="http://www.w3.org/2000/svg">
<path d="M20.592 45.936H7.92C10.608 42.096 12.7627 38.6187 14.384 35.504C16.048 32.3467 17.0293 30.1707 17.328 28.976L17.776 27.184C16.1547 28.08 14.2347 28.528 12.016 28.528C8.73067 28.528 6 27.376 3.824 25.072C1.648 22.768 0.56 19.696 0.56 15.856C0.56 11.4187 2.05333 7.74933 5.04 4.848C8.06933 1.94667 11.632 0.495998 15.728 0.495998C20.208 0.495998 23.7067 1.86133 26.224 4.592C28.7413 7.28 30 10.672 30 14.768C30 17.3707 29.552 19.9733 28.656 22.576C27.76 25.3493 26.48 28.7627 24.816 32.816C23.152 36.8267 21.8507 40.7733 20.912 44.656L20.592 45.936ZM14.832 18.672C16.3253 18.672 17.5627 18.1813 18.544 17.2C19.5253 16.176 20.016 14.8747 20.016 13.296C20.016 11.8453 19.5467 10.6933 18.608 9.84C17.6693 8.944 16.4107 8.496 14.832 8.496C13.424 8.496 12.208 9.02933 11.184 10.096C10.16 11.1627 9.648 12.4213 9.648 13.872C9.648 15.28 10.1387 16.432 11.12 17.328C12.144 18.224 13.3813 18.672 14.832 18.672Z" fill="white"/>
</svg>
