<svg width="19" height="55" viewBox="0 0 19 55" fill="none" xmlns="http://www.w3.org/2000/svg">
<path d="M1.592 1.048C7.16 1.624 12.728 1.624 18.296 1.048L18.968 0.951998C18.2 6.968 18.2 12.984 18.968 19C12.952 18.232 6.936 18.232 0.92 19C1.688 12.984 1.688 6.968 0.92 0.951998L1.592 1.048ZM1.592 37.048C7.16 37.624 12.728 37.624 18.296 37.048L18.968 36.952C18.2 42.968 18.2 48.984 18.968 55C12.952 54.232 6.936 54.232 0.92 55C1.688 48.984 1.688 42.968 0.92 36.952L1.592 37.048Z" fill="white"/>
</svg>
