<svg width="333" height="47" viewBox="0 0 333 47" fill="none" xmlns="http://www.w3.org/2000/svg">
<path d="M0.84 46L1.672 37.168C2.824 25.0507 2.54667 13.0827 0.84 1.264V1.2H16.2C21.1067 1.41333 25.3093 3.52533 28.808 7.536C32.3067 11.5467 34.056 17.1147 34.056 24.24C34.056 28.208 33.3947 31.8133 32.072 35.056C30.7493 38.256 28.6373 40.88 25.736 42.928C22.8773 44.976 19.464 46 15.496 46H0.84ZM12.808 34.48L12.936 34.544C14.3867 34.9707 15.816 34.9067 17.224 34.352C18.632 33.7547 19.6987 32.7947 20.424 31.472C21.832 28.9547 22.536 25.8827 22.536 22.256C22.536 17.0507 21.512 13.0187 19.464 10.16C18.696 9.09333 17.6933 8.32533 16.456 7.856C15.2187 7.38666 13.96 7.30133 12.68 7.6C11.528 16.5173 11.5707 25.4773 12.808 34.48ZM34.795 46L37.867 38.256C42.6457 26.3947 45.035 14.0427 45.035 1.2H60.523C60.523 14.0427 62.9123 26.3947 67.691 38.256L70.763 46H57.259L56.811 38.704C55.7017 38.4907 54.3577 38.384 52.779 38.384C51.2003 38.384 49.8563 38.4907 48.747 38.704L48.299 46H34.795ZM49.451 31.664C50.5177 31.792 51.627 31.856 52.779 31.856C53.931 31.856 55.0403 31.792 56.107 31.664C55.4243 27.312 54.315 21.9147 52.779 15.472C51.243 21.9147 50.1337 27.312 49.451 31.664ZM80.36 46L81.256 37.168C81.5973 33.456 81.8107 29.488 81.896 25.264L81.256 24.112C80.6587 23.0453 79.656 21.232 78.248 18.672C76.84 16.0693 75.688 13.9787 74.792 12.4C73.896 10.8213 72.7653 8.96533 71.4 6.832C70.0347 4.69866 68.7547 2.84266 67.56 1.264H80.552C82.344 7.74933 84.4133 13.2533 86.76 17.776C88.68 14.1493 90.7493 8.64533 92.968 1.264H105.96C104.765 2.84266 103.485 4.69866 102.12 6.832C100.797 8.96533 99.688 10.8427 98.792 12.464C97.896 14.0427 96.744 16.112 95.336 18.672C93.9707 21.1893 92.968 23.0027 92.328 24.112L91.688 25.264C91.7733 29.488 91.9867 33.456 92.328 37.168L93.16 46H80.36ZM120.64 46.704C118.379 46.704 116.181 46.576 114.048 46.32C111.915 46.064 110.357 45.8293 109.376 45.616L107.84 45.232V31.152C108.096 31.3653 108.459 31.6213 108.928 31.92C109.44 32.176 110.485 32.56 112.064 33.072C113.685 33.5413 115.328 33.776 116.992 33.776C118.912 33.776 120.448 33.2853 121.6 32.304C122.795 31.28 123.392 30.064 123.392 28.656C123.392 27.7173 123.051 26.864 122.368 26.096C121.685 25.328 120.832 24.7093 119.808 24.24C118.784 23.7707 117.675 23.1733 116.48 22.448C115.328 21.68 114.24 20.8907 113.216 20.08C112.192 19.2693 111.339 18.1173 110.656 16.624C109.973 15.1307 109.632 13.4027 109.632 11.44C109.632 8.06933 110.827 5.40267 113.216 3.44C115.648 1.47733 118.827 0.495998 122.752 0.495998C124.629 0.495998 126.485 0.645331 128.32 0.943996C130.155 1.24266 131.52 1.54133 132.416 1.84L133.824 2.288V13.296C133.739 13.168 133.611 12.9973 133.44 12.784C133.312 12.528 132.971 12.1013 132.416 11.504C131.861 10.9067 131.264 10.3947 130.624 9.968C129.984 9.49867 129.152 9.09333 128.128 8.752C127.104 8.368 126.016 8.176 124.864 8.176C123.499 8.176 122.411 8.58133 121.6 9.392C120.789 10.16 120.384 11.2267 120.384 12.592C120.384 14 120.917 15.3227 121.984 16.56C123.051 17.7547 124.352 18.864 125.888 19.888C127.424 20.8693 128.96 21.9147 130.496 23.024C132.032 24.0907 133.333 25.4347 134.4 27.056C135.467 28.6773 136 30.4907 136 32.496C136 36.8907 134.464 40.368 131.392 42.928C128.32 45.4453 124.736 46.704 120.64 46.704ZM168.018 46L168.85 37.168C169.319 32.1333 169.554 27.312 169.554 22.704C169.554 18.0107 169.319 13.1253 168.85 8.048C164.796 8.85867 161.106 10.416 157.778 12.72V1.2H191.058V12.72C187.73 10.416 184.039 8.85867 179.986 8.048C179.516 13.1253 179.282 18.0107 179.282 22.704C179.282 27.312 179.516 32.1333 179.986 37.168L180.818 46H168.018ZM213.495 46.64C209.527 46.64 206.092 45.616 203.191 43.568C200.332 41.52 198.242 38.896 196.919 35.696C195.596 32.4533 194.935 28.848 194.935 24.88C194.935 20.8693 195.447 17.2853 196.471 14.128C197.538 10.928 198.946 8.368 200.695 6.448C202.444 4.528 204.407 3.07733 206.583 2.096C208.759 1.072 211.063 0.559998 213.495 0.559998C215.927 0.559998 218.231 1.072 220.407 2.096C222.583 3.07733 224.546 4.528 226.295 6.448C228.044 8.368 229.431 10.928 230.455 14.128C231.522 17.2853 232.055 20.8693 232.055 24.88C232.055 30.8107 230.306 35.9307 226.807 40.24C223.308 44.5067 218.871 46.64 213.495 46.64ZM213.495 35.12C215.799 35.12 217.57 34.0107 218.807 31.792C220.044 29.5307 220.663 26.5653 220.663 22.896C220.663 18.8853 220.066 15.4933 218.871 12.72C217.676 9.94666 215.97 8.45333 213.751 8.24H213.239C211.02 8.45333 209.314 9.94666 208.119 12.72C206.924 15.4507 206.327 18.8427 206.327 22.896C206.327 26.352 206.946 29.2533 208.183 31.6C209.463 33.9467 211.234 35.12 213.495 35.12ZM271.745 46.64C265.857 46.64 261.292 44.5493 258.049 40.368C254.806 36.1867 253.185 31.024 253.185 24.88C253.185 17.4987 255.041 11.6107 258.753 7.216C262.465 2.77866 266.796 0.559998 271.745 0.559998C275.884 0.559998 279.297 1.648 281.985 3.824C284.673 5.95733 286.572 8.73066 287.681 12.144L278.593 14.576C277.313 10.352 275.222 8.24 272.321 8.24C269.846 8.24 267.948 9.62666 266.625 12.4C265.345 15.1733 264.705 18.672 264.705 22.896C264.705 26.3093 265.324 29.2107 266.561 31.6C267.798 33.9467 269.526 35.12 271.745 35.12C273.878 35.12 275.436 34.3947 276.417 32.944C277.441 31.4507 277.953 29.616 277.953 27.44C277.953 26.9707 277.91 26.1813 277.825 25.072C275.777 25.2853 273.964 25.648 272.385 26.16V17.2C275.158 18.0533 277.932 18.48 280.705 18.48C283.478 18.48 286.252 18.0533 289.025 17.2L288.513 20.656C288.044 23.4293 287.809 26.5013 287.809 29.872C287.809 35.9733 288.641 41.5627 290.305 46.64H288.641C287.148 46.64 285.889 46.1067 284.865 45.04C283.841 43.9733 283.329 42.736 283.329 41.328C283.329 40.816 283.436 40.24 283.649 39.6C280.662 44.2933 276.694 46.64 271.745 46.64ZM313.995 46.64C310.027 46.64 306.592 45.616 303.691 43.568C300.832 41.52 298.742 38.896 297.419 35.696C296.096 32.4533 295.435 28.848 295.435 24.88C295.435 20.8693 295.947 17.2853 296.971 14.128C298.038 10.928 299.446 8.368 301.195 6.448C302.944 4.528 304.907 3.07733 307.083 2.096C309.259 1.072 311.563 0.559998 313.995 0.559998C316.427 0.559998 318.731 1.072 320.907 2.096C323.083 3.07733 325.046 4.528 326.795 6.448C328.544 8.368 329.931 10.928 330.955 14.128C332.022 17.2853 332.555 20.8693 332.555 24.88C332.555 30.8107 330.806 35.9307 327.307 40.24C323.808 44.5067 319.371 46.64 313.995 46.64ZM313.995 35.12C316.299 35.12 318.07 34.0107 319.307 31.792C320.544 29.5307 321.163 26.5653 321.163 22.896C321.163 18.8853 320.566 15.4933 319.371 12.72C318.176 9.94666 316.47 8.45333 314.251 8.24H313.739C311.52 8.45333 309.814 9.94666 308.619 12.72C307.424 15.4507 306.827 18.8427 306.827 22.896C306.827 26.352 307.446 29.2533 308.683 31.6C309.963 33.9467 311.734 35.12 313.995 35.12Z" fill="white"/>
</svg>
