<svg width="130" height="84" viewBox="0 0 130 84" fill="none" xmlns="http://www.w3.org/2000/svg">
<path d="M0.88 35L1.504 28.376C2.368 19.288 2.16 10.312 0.88 1.448V1.4H12.4C16.08 1.56 19.232 3.144 21.856 6.152C24.48 9.16 25.792 13.336 25.792 18.68C25.792 21.656 25.296 24.36 24.304 26.792C23.312 29.192 21.728 31.16 19.552 32.696C17.408 34.232 14.848 35 11.872 35H0.88ZM9.856 26.36L9.952 26.408C11.04 26.728 12.112 26.68 13.168 26.264C14.224 25.816 15.024 25.096 15.568 24.104C16.624 22.216 17.152 19.912 17.152 17.192C17.152 13.288 16.384 10.264 14.848 8.12C14.272 7.32 13.52 6.744 12.592 6.392C11.664 6.04 10.72 5.976 9.76 6.2C8.896 12.888 8.928 19.608 9.856 26.36ZM25.6263 35L27.9303 29.192C31.5143 20.296 33.3063 11.032 33.3063 1.4H44.9223C44.9223 11.032 46.7143 20.296 50.2983 29.192L52.6023 35H42.4743L42.1383 29.528C41.3063 29.368 40.2983 29.288 39.1143 29.288C37.9303 29.288 36.9223 29.368 36.0903 29.528L35.7543 35H25.6263ZM36.6183 24.248C37.4183 24.344 38.2503 24.392 39.1143 24.392C39.9783 24.392 40.8103 24.344 41.6103 24.248C41.0983 20.984 40.2663 16.936 39.1143 12.104C37.9623 16.936 37.1303 20.984 36.6183 24.248ZM59.08 35L59.752 28.376C60.008 25.592 60.168 22.616 60.232 19.448L59.752 18.584C59.304 17.784 58.552 16.424 57.496 14.504C56.44 12.552 55.576 10.984 54.904 9.8C54.232 8.616 53.384 7.224 52.36 5.624C51.336 4.024 50.376 2.632 49.48 1.448H59.224C60.568 6.312 62.12 10.44 63.88 13.832C65.32 11.112 66.872 6.984 68.536 1.448H78.28C77.384 2.632 76.424 4.024 75.4 5.624C74.408 7.224 73.576 8.632 72.904 9.848C72.232 11.032 71.368 12.584 70.312 14.504C69.288 16.392 68.536 17.752 68.056 18.584L67.576 19.448C67.64 22.616 67.8 25.592 68.056 28.376L68.68 35H59.08ZM88.57 35.528C86.874 35.528 85.226 35.432 83.626 35.24C82.026 35.048 80.858 34.872 80.122 34.712L78.97 34.424V23.864C79.162 24.024 79.434 24.216 79.786 24.44C80.17 24.632 80.954 24.92 82.138 25.304C83.354 25.656 84.586 25.832 85.834 25.832C87.274 25.832 88.426 25.464 89.29 24.728C90.186 23.96 90.634 23.048 90.634 21.992C90.634 21.288 90.378 20.648 89.866 20.072C89.354 19.496 88.714 19.032 87.946 18.68C87.178 18.328 86.346 17.88 85.45 17.336C84.586 16.76 83.77 16.168 83.002 15.56C82.234 14.952 81.594 14.088 81.082 12.968C80.57 11.848 80.314 10.552 80.314 9.08C80.314 6.552 81.21 4.552 83.002 3.08C84.826 1.608 87.21 0.871999 90.154 0.871999C91.562 0.871999 92.954 0.983998 94.33 1.208C95.706 1.432 96.73 1.656 97.402 1.88L98.458 2.216V10.472C98.394 10.376 98.298 10.248 98.17 10.088C98.074 9.896 97.818 9.576 97.402 9.128C96.986 8.68 96.538 8.296 96.058 7.976C95.578 7.624 94.954 7.32 94.186 7.064C93.418 6.776 92.602 6.632 91.738 6.632C90.714 6.632 89.898 6.936 89.29 7.544C88.682 8.12 88.378 8.92 88.378 9.944C88.378 11 88.778 11.992 89.578 12.92C90.378 13.816 91.354 14.648 92.506 15.416C93.658 16.152 94.81 16.936 95.962 17.768C97.114 18.568 98.09 19.576 98.89 20.792C99.69 22.008 100.09 23.368 100.09 24.872C100.09 28.168 98.938 30.776 96.634 32.696C94.33 34.584 91.642 35.528 88.57 35.528ZM8.56 83L9.184 76.376C9.536 72.6 9.712 68.984 9.712 65.528C9.712 62.008 9.536 58.344 9.184 54.536C6.144 55.144 3.376 56.312 0.88 58.04V49.4H25.84V58.04C23.344 56.312 20.576 55.144 17.536 54.536C17.184 58.344 17.008 62.008 17.008 65.528C17.008 68.984 17.184 72.6 17.536 76.376L18.16 83H8.56ZM41.9481 83.48C38.9721 83.48 36.3961 82.712 34.2201 81.176C32.0761 79.64 30.5081 77.672 29.5161 75.272C28.5241 72.84 28.0281 70.136 28.0281 67.16C28.0281 64.152 28.4121 61.464 29.1801 59.096C29.9801 56.696 31.0361 54.776 32.3481 53.336C33.6601 51.896 35.1321 50.808 36.7641 50.072C38.3961 49.304 40.1241 48.92 41.9481 48.92C43.7721 48.92 45.5001 49.304 47.1321 50.072C48.7641 50.808 50.2361 51.896 51.5481 53.336C52.8601 54.776 53.9001 56.696 54.6681 59.096C55.4681 61.464 55.8681 64.152 55.8681 67.16C55.8681 71.608 54.5561 75.448 51.9321 78.68C49.3081 81.88 45.9801 83.48 41.9481 83.48ZM41.9481 74.84C43.6761 74.84 45.0041 74.008 45.9321 72.344C46.8601 70.648 47.3241 68.424 47.3241 65.672C47.3241 62.664 46.8761 60.12 45.9801 58.04C45.0841 55.96 43.8041 54.84 42.1401 54.68H41.7561C40.0921 54.84 38.8121 55.96 37.9161 58.04C37.0201 60.088 36.5721 62.632 36.5721 65.672C36.5721 68.264 37.0361 70.44 37.9641 72.2C38.9241 73.96 40.2521 74.84 41.9481 74.84ZM84.1956 83.48C79.7796 83.48 76.3556 81.912 73.9236 78.776C71.4916 75.64 70.2756 71.768 70.2756 67.16C70.2756 61.624 71.6676 57.208 74.4516 53.912C77.2356 50.584 80.4836 48.92 84.1956 48.92C87.2996 48.92 89.8596 49.736 91.8756 51.368C93.8916 52.968 95.3156 55.048 96.1476 57.608L89.3316 59.432C88.3716 56.264 86.8036 54.68 84.6276 54.68C82.7716 54.68 81.3476 55.72 80.3556 57.8C79.3956 59.88 78.9156 62.504 78.9156 65.672C78.9156 68.232 79.3796 70.408 80.3076 72.2C81.2356 73.96 82.5316 74.84 84.1956 74.84C85.7956 74.84 86.9636 74.296 87.6996 73.208C88.4676 72.088 88.8516 70.712 88.8516 69.08C88.8516 68.728 88.8196 68.136 88.7556 67.304C87.2196 67.464 85.8596 67.736 84.6756 68.12V61.4C86.7556 62.04 88.8356 62.36 90.9156 62.36C92.9956 62.36 95.0756 62.04 97.1556 61.4L96.7716 63.992C96.4196 66.072 96.2436 68.376 96.2436 70.904C96.2436 75.48 96.8676 79.672 98.1156 83.48H96.8676C95.7476 83.48 94.8036 83.08 94.0356 82.28C93.2676 81.48 92.8836 80.552 92.8836 79.496C92.8836 79.112 92.9636 78.68 93.1236 78.2C90.8836 81.72 87.9076 83.48 84.1956 83.48ZM115.163 83.48C112.187 83.48 109.611 82.712 107.435 81.176C105.291 79.64 103.723 77.672 102.731 75.272C101.739 72.84 101.243 70.136 101.243 67.16C101.243 64.152 101.627 61.464 102.395 59.096C103.195 56.696 104.251 54.776 105.563 53.336C106.875 51.896 108.347 50.808 109.979 50.072C111.611 49.304 113.339 48.92 115.163 48.92C116.987 48.92 118.715 49.304 120.347 50.072C121.979 50.808 123.451 51.896 124.763 53.336C126.075 54.776 127.115 56.696 127.883 59.096C128.683 61.464 129.083 64.152 129.083 67.16C129.083 71.608 127.771 75.448 125.147 78.68C122.523 81.88 119.195 83.48 115.163 83.48ZM115.163 74.84C116.891 74.84 118.219 74.008 119.147 72.344C120.075 70.648 120.539 68.424 120.539 65.672C120.539 62.664 120.091 60.12 119.195 58.04C118.299 55.96 117.019 54.84 115.355 54.68H114.971C113.307 54.84 112.027 55.96 111.131 58.04C110.235 60.088 109.787 62.632 109.787 65.672C109.787 68.264 110.251 70.44 111.179 72.2C112.139 73.96 113.467 74.84 115.163 74.84Z" fill="#FFF9F7"/>
</svg>
