<svg width="186" height="68" viewBox="0 0 186 68" fill="none" xmlns="http://www.w3.org/2000/svg">
<path d="M0.76 68L2.008 54.752C2.712 47.2 3.064 39.968 3.064 33.056C3.064 22.176 2.296 11.424 0.76 0.799995H19.96C18.168 10.208 17.272 19.84 17.272 29.696C17.272 36.608 17.688 43.2 18.52 49.472C21.016 50.24 23.576 50.624 26.2 50.624C31.256 50.624 36.056 49.248 40.6 46.496L43 44.96V68H0.76ZM53.5188 68L54.7668 54.752C55.4708 47.2 55.8228 39.968 55.8228 33.056C55.8228 22.176 55.0548 11.424 53.5188 0.799995H72.7188C71.1828 11.424 70.4148 22.176 70.4148 33.056C70.4148 39.968 70.7668 47.2 71.4708 54.752L72.7188 68H53.5188ZM118.972 68H95.74C95.74 48.736 92.156 30.208 84.988 12.416L80.38 0.799995H100.636L101.308 12.128C101.756 20.064 103.772 31.552 107.356 46.592C110.94 31.552 112.956 20.064 113.404 12.128L114.076 0.799995H134.332L129.724 12.416C122.556 30.208 118.972 48.736 118.972 68ZM142.979 68L144.227 54.752C144.931 47.2 145.283 39.968 145.283 33.056C145.283 22.176 144.515 11.424 142.979 0.799995H185.219V20L181.187 16.448C177.347 12.992 172.867 11.264 167.747 11.264C165.251 11.264 162.819 11.712 160.451 12.608C159.939 17.088 159.619 21.888 159.491 27.008C161.667 27.392 163.843 27.584 166.019 27.584C170.051 27.584 173.891 26.976 177.539 25.76V39.2C173.891 37.984 170.051 37.376 166.019 37.376C163.587 37.376 161.475 37.536 159.683 37.856C159.875 41.312 160.227 45.184 160.739 49.472C163.235 50.24 165.795 50.624 168.419 50.624C173.475 50.624 178.275 49.248 182.819 46.496L185.219 44.96V68H142.979Z" fill="white"/>
</svg>
